Perun-Thin.ufo
<glyph name="numbersign" format="2">
  <advance width="745"/>
  <unicode hex="0023"/>
  <outline>
    <contour>
      <point x="140.269" y="0" type="line"/>
      <point x="161.163" y="0" type="line"/>
      <point x="381.163" y="722" type="line"/>
      <point x="360.269" y="722" type="line"/>
    </contour>
    <contour>
      <point x="323.397" y="0" type="line"/>
      <point x="344.292" y="0" type="line"/>
      <point x="564.292" y="722" type="line"/>
      <point x="543.397" y="722" type="line"/>
    </contour>
    <contour>
      <point x="135" y="513" type="line"/>
      <point x="128.913" y="493" type="line"/>
      <point x="689.898" y="493" type="line"/>
      <point x="696" y="513" type="line"/>
    </contour>
    <contour>
      <point x="64.3079" y="287.744" type="line"/>
      <point x="58.221" y="267.744" type="line"/>
      <point x="619.206" y="267.744" type="line"/>
      <point x="625.308" y="287.744" type="line"/>
    </contour>
  </outline>
  <guideline angle="253.054" x="545" y="722"/>
  <guideline angle="73.0535" x="399" y="0"/>
  <guideline angle="253.072" x="135" y="513"/>
  <guideline angle="73.0725" x="675" y="444"/>
  <guideline angle="0" x="0" y="513"/>
  <guideline angle="0" x="0" y="493"/>
</glyph>
<glyph name="ampersand" format="2">
  <advance width="717"/>
  <unicode hex="0026"/>
  <outline>
    <contour>
      <point x="614.251" y="0" type="line"/>
      <point x="642.064" y="0" type="line"/>
      <point x="217.276" y="463.378" type="line" smooth="yes"/>
      <point x="177.271" y="507.016"/>
      <point x="158.987" y="545.016"/>
      <point x="159.154" y="589.653" type="curve" smooth="yes"/>
      <point x="159.446" y="667.835"/>
      <point x="216.157" y="716"/>
      <point x="314.303" y="716" type="curve" smooth="yes"/>
      <point x="404.743" y="716"/>
      <point x="454.355" y="675.071"/>
      <point x="454.355" y="602.795" type="curve" smooth="yes"/>
      <point x="454.355" y="554.455"/>
      <point x="432.161" y="517.607"/>
      <point x="386.431" y="487.681" type="curve" smooth="yes"/>
      <point x="260.69" y="405.397" type="line"/>
      <point x="271.668" y="388.97" type="line"/>
      <point x="394.136" y="471.331" type="line" smooth="yes"/>
      <point x="449.67" y="508.678"/>
      <point x="474.355" y="548.969"/>
      <point x="474.355" y="602.266" type="curve" smooth="yes"/>
      <point x="474.355" y="686.456"/>
      <point x="414.458" y="736"/>
      <point x="312.676" y="736" type="curve" smooth="yes"/>
      <point x="203.353" y="736"/>
      <point x="139.134" y="679.832"/>
      <point x="139.134" y="586.475" type="curve" smooth="yes"/>
      <point x="139.134" y="540.002"/>
      <point x="155.048" y="506.603"/>
      <point x="199.461" y="457.605" type="curve" smooth="yes"/>
    </contour>
    <contour>
      <point x="67" y="165.892" type="curve" smooth="yes"/>
      <point x="67" y="63.4056"/>
      <point x="153.474" y="-9.85756"/>
      <point x="281.293" y="-9.85756" type="curve" smooth="yes"/>
      <point x="369.914" y="-9.85756"/>
      <point x="446.453" y="25.3599"/>
      <point x="529.13" y="103.306" type="curve"/>
      <point x="516.067" y="115.979" type="line"/>
      <point x="457.285" y="55.0379"/>
      <point x="361.908" y="10"/>
      <point x="291.635" y="10" type="curve" smooth="yes"/>
      <point x="168.854" y="10"/>
      <point x="87" y="74.3515"/>
      <point x="87" y="166.91" type="curve" smooth="yes"/>
      <point x="87" y="234.378"/>
      <point x="130.491" y="300.486"/>
      <point x="201.505" y="344.928" type="curve" smooth="yes"/>
      <point x="268.968" y="387.149" type="line"/>
      <point x="256.928" y="402.114" type="line"/>
      <point x="184.627" y="355.595" type="line" smooth="yes"/>
      <point x="111.598" y="308.608"/>
      <point x="67" y="239.492"/>
    </contour>
    <contour>
      <point x="531.843" y="106.584" type="line"/>
      <point x="603.93" y="186.652"/>
      <point x="648" y="306.321"/>
      <point x="648" y="422" type="curve"/>
      <point x="627.14" y="421.754" type="line"/>
      <point x="625.836" y="420.246" type="line"/>
      <point x="627.067" y="414.157"/>
      <point x="628" y="400.127"/>
      <point x="628" y="386.564" type="curve" smooth="yes"/>
      <point x="628" y="300.627"/>
      <point x="590.527" y="207.788"/>
      <point x="519.794" y="119.636" type="curve"/>
    </contour>
  </outline>
</glyph>
<glyph name="quotesingle" format="2">
  <advance width="160"/>
  <unicode hex="0027"/>
  <outline>
    <contour>
      <point x="75" y="434" type="line"/>
      <point x="85" y="434" type="line"/>
      <point x="100" y="722" type="line"/>
      <point x="60" y="722" type="line"/>
    </contour>
  </outline>
</glyph>
<glyph name="asterisk" format="2">
  <advance width="656"/>
  <unicode hex="002A"/>
  <outline>
    <contour>
      <point x="208.528" y="366.298" type="line"/>
      <point x="229.673" y="354.844" type="line"/>
      <point x="329" y="527" type="line"/>
      <point x="418.816" y="348.956" type="line"/>
      <point x="440.408" y="361.132" type="line"/>
      <point x="329" y="527" type="line"/>
      <point x="529" y="516.025" type="line"/>
      <point x="529" y="539.968" type="line"/>
      <point x="329" y="527" type="line"/>
      <point x="441.484" y="695.738" type="line"/>
      <point x="417.791" y="708.572" type="line"/>
      <point x="329" y="527" type="line"/>
      <point x="235.011" y="705.979" type="line"/>
      <point x="214.004" y="694.756" type="line"/>
      <point x="329" y="527" type="line"/>
      <point x="128" y="540.473" type="line"/>
      <point x="128" y="516.014" type="line"/>
      <point x="329" y="527" type="line"/>
    </contour>
  </outline>
  <guideline angle="28.1132" x="192" y="227.781"/>
  <guideline angle="28.1132" x="192" y="683"/>
  <guideline angle="90" x="128" y="0"/>
  <guideline angle="90" x="529" y="0"/>
  <guideline angle="331.557" x="393" y="266.375"/>
  <guideline angle="331.557" x="393" y="722"/>
  <guideline angle="90" x="329" y="0"/>
  <guideline angle="0" x="0" y="527"/>
</glyph>
<glyph name="four" format="2">
  <advance width="558"/>
  <unicode hex="0034"/>
  <outline>
    <contour>
      <point x="63.3111" y="186.037" type="line"/>
      <point x="426.69" y="712.205" type="line"/>
      <point x="420" y="714.242" type="line"/>
      <point x="420" y="0" type="line"/>
      <point x="440" y="0" type="line"/>
      <point x="440" y="722" type="line"/>
      <point x="410.227" y="722" type="line"/>
      <point x="50" y="203" type="line"/>
      <point x="50" y="176" type="line"/>
      <point x="435" y="176" type="line"/>
      <point x="435" y="196" type="line"/>
      <point x="58" y="196" type="line"/>
    </contour>
    <contour>
      <point x="425" y="176" type="line"/>
      <point x="529" y="176" type="line"/>
      <point x="529" y="196" type="line"/>
      <point x="425" y="196" type="line"/>
    </contour>
  </outline>
  <guideline angle="0" x="0" y="702"/>
</glyph>
<glyph name="nine" format="2">
  <advance width="558"/>
  <unicode hex="0039"/>
  <outline>
    <contour>
      <point x="276" y="297.835" type="curve" smooth="yes"/>
      <point x="137.197" y="297.835"/>
      <point x="67.6987" y="369.231"/>
      <point x="67.6987" y="501.091" type="curve" smooth="yes"/>
      <point x="67.6987" y="638.15"/>
      <point x="142.787" y="712.028"/>
      <point x="276" y="712.028" type="curve" smooth="yes"/>
      <point x="410.438" y="712.028"/>
      <point x="486.828" y="637.376"/>
      <point x="486.828" y="509.804" type="curve" smooth="yes"/>
      <point x="486.828" y="351.366"/>
      <point x="369" y="297.835"/>
    </contour>
    <contour>
      <point x="86.8999" y="172" type="curve"/>
      <point x="67" y="172" type="line"/>
      <point x="67" y="57"/>
      <point x="134" y="-10"/>
      <point x="255.792" y="-10" type="curve" smooth="yes"/>
      <point x="434.952" y="-10"/>
      <point x="512" y="134.983"/>
      <point x="512" y="463.388" type="curve" smooth="yes"/>
      <point x="512" y="642.683"/>
      <point x="432.015" y="732"/>
      <point x="277.671" y="732" type="curve" smooth="yes"/>
      <point x="116" y="732"/>
      <point x="48" y="634"/>
      <point x="48" y="504.544" type="curve" smooth="yes"/>
      <point x="48" y="363.014"/>
      <point x="129.277" y="278"/>
      <point x="264.474" y="278" type="curve" smooth="yes"/>
      <point x="379.784" y="278"/>
      <point x="471.916" y="339.842"/>
      <point x="493.236" y="433.747" type="curve"/>
      <point x="492.6" y="142.877"/>
      <point x="414.449" y="9.8963"/>
      <point x="264.167" y="9.8963" type="curve" smooth="yes"/>
      <point x="148.19" y="9.8963"/>
      <point x="86.999" y="65.0708"/>
    </contour>
  </outline>
</glyph>
<glyph name="greater" format="2">
  <advance width="700"/>
  <unicode hex="003E"/>
  <outline>
    <contour>
      <point x="650" y="289" type="line"/>
      <point x="650" y="311" type="line"/>
      <point x="50" y="541" type="line"/>
      <point x="50" y="520" type="line"/>
      <point x="632.279" y="295.903" type="line"/>
      <point x="632.463" y="304.421" type="line"/>
      <point x="50" y="80" type="line"/>
      <point x="50" y="59" type="line"/>
    </contour>
  </outline>
</glyph>
<glyph name="at" format="2">
  <advance width="1000"/>
  <unicode hex="0040"/>
  <outline>
    <contour>
      <point x="477" y="46" type="curve" smooth="yes"/>
      <point x="368.475" y="46"/>
      <point x="298" y="133.389"/>
      <point x="298" y="267" type="curve" smooth="yes"/>
      <point x="298" y="380.754"/>
      <point x="377.84" y="472"/>
      <point x="476.854" y="472" type="curve" smooth="yes"/>
      <point x="573.109" y="472"/>
      <point x="632" y="400.204"/>
      <point x="632" y="268" type="curve" smooth="yes"/>
      <point x="632" y="158.345"/>
      <point x="554.52" y="46"/>
    </contour>
    <contour>
      <point x="681" y="-89" type="curve"/>
      <point x="681" y="-71" type="line"/>
      <point x="623.527" y="-109.815"/>
      <point x="580.422" y="-123"/>
      <point x="511" y="-123" type="curve" smooth="yes"/>
      <point x="271.9" y="-123"/>
      <point x="117" y="20.3399"/>
      <point x="117" y="274.758" type="curve" smooth="yes"/>
      <point x="117" y="507.516"/>
      <point x="259.115" y="661"/>
      <point x="500" y="661" type="curve" smooth="yes"/>
      <point x="734.072" y="661"/>
      <point x="881.5" y="521.331"/>
      <point x="881.5" y="299" type="curve" smooth="yes"/>
      <point x="881.5" y="145.335"/>
      <point x="840.642" y="41"/>
      <point x="757.731" y="41" type="curve" smooth="yes"/>
      <point x="703.549" y="41"/>
      <point x="652" y="95.0841"/>
      <point x="652" y="167.017" type="curve" smooth="yes"/>
      <point x="652" y="485" type="line"/>
      <point x="632" y="485" type="line"/>
      <point x="632" y="383.148" type="line"/>
      <point x="616.189" y="446.801"/>
      <point x="550.195" y="492"/>
      <point x="473.066" y="492" type="curve" smooth="yes"/>
      <point x="368.336" y="492"/>
      <point x="278" y="398.229"/>
      <point x="278" y="266" type="curve" smooth="yes"/>
      <point x="278" y="119.419"/>
      <point x="360.64" y="26"/>
      <point x="471.526" y="26" type="curve" smooth="yes"/>
      <point x="542.881" y="26"/>
      <point x="601.106" y="104.359"/>
      <point x="631.498" y="170.231" type="curve"/>
      <point x="636.626" y="75.4255"/>
      <point x="689.402" y="21"/>
      <point x="756.101" y="21" type="curve" smooth="yes"/>
      <point x="857.624" y="21"/>
      <point x="901.5" y="126.381"/>
      <point x="901.5" y="299" type="curve" smooth="yes"/>
      <point x="901.5" y="540.523"/>
      <point x="750.857" y="681"/>
      <point x="492" y="681" type="curve" smooth="yes"/>
      <point x="243.992" y="681"/>
      <point x="97" y="519.783"/>
      <point x="97" y="273.758" type="curve" smooth="yes"/>
      <point x="97" y="5.02097"/>
      <point x="258.898" y="-143"/>
      <point x="516" y="-143" type="curve" smooth="yes"/>
      <point x="574.45" y="-143"/>
      <point x="633.903" y="-123.542"/>
    </contour>
  </outline>
</glyph>
<glyph name="D" format="2">
  <advance width="622"/>
  <unicode hex="0044"/>
  <anchor x="247" y="797" name="top"/>
  <outline>
    <component base="I" xOffset="-10"/>
    <contour>
      <point x="77" y="0" type="line"/>
      <point x="285" y="0" type="line" smooth="yes"/>
      <point x="461.2" y="0"/>
      <point x="572" y="146.4"/>
      <point x="572" y="366" type="curve" smooth="yes"/>
      <point x="572" y="580"/>
      <point x="461" y="722"/>
      <point x="285" y="722" type="curve" smooth="yes"/>
      <point x="77" y="722" type="line"/>
      <point x="77" y="702" type="line"/>
      <point x="285" y="702" type="line" smooth="yes"/>
      <point x="448" y="702"/>
      <point x="550" y="566"/>
      <point x="550" y="363" type="curve" smooth="yes"/>
      <point x="550" y="157.2"/>
      <point x="448" y="20"/>
      <point x="285" y="20" type="curve" smooth="yes"/>
      <point x="77" y="20" type="line"/>
    </contour>
  </outline>
</glyph>
<glyph name="E" format="2">
  <advance width="510"/>
  <unicode hex="0045"/>
  <anchor x="258" y="797" name="top"/>
  <anchor x="-8" y="722" name="tonos"/>
  <anchor x="260" y="0" name="b.cedilla"/>
  <anchor x="310" y="0" name="ogonekUC"/>
  <outline>
    <component base="I" xOffset="-10"/>
    <contour>
      <point x="82" y="18" type="line"/>
      <point x="82" y="0" type="line"/>
      <point x="450" y="0" type="line"/>
      <point x="450" y="18" type="line"/>
    </contour>
    <contour>
      <point x="82" y="378" type="line"/>
      <point x="82" y="358" type="line"/>
      <point x="430" y="358" type="line"/>
      <point x="430" y="378" type="line"/>
    </contour>
    <contour>
      <point x="82" y="722" type="line"/>
      <point x="82" y="704" type="line"/>
      <point x="440" y="704" type="line"/>
      <point x="440" y="722" type="line"/>
    </contour>
  </outline>
  <guideline angle="90" x="440" y="0"/>
  <guideline angle="90" x="70" y="0"/>
  <guideline angle="62.8664" x="70" y="0"/>
  <guideline angle="117.759" x="450" y="0"/>
  <guideline angle="90" x="258" y="0"/>
</glyph>
<glyph name="G" format="2">
  <advance width="735"/>
  <unicode hex="0047"/>
  <anchor x="357" y="797" name="top"/>
  <anchor x="358" y="-75" name="bottom"/>
  <outline>
    <contour>
      <point x="60" y="361" type="curve" smooth="yes"/>
      <point x="60" y="143"/>
      <point x="140" y="-10"/>
      <point x="387.345" y="-10" type="curve" smooth="yes"/>
      <point x="475.726" y="-10"/>
      <point x="561.785" y="8.28408"/>
      <point x="629" y="39.574" type="curve"/>
      <point x="629" y="326" type="line"/>
      <point x="364" y="326" type="line"/>
      <point x="364" y="306" type="line"/>
      <point x="607" y="306" type="line"/>
      <point x="607" y="54.1499" type="line"/>
      <point x="539.904" y="24.2662"/>
      <point x="458.334" y="10"/>
      <point x="383.255" y="10" type="curve" smooth="yes"/>
      <point x="158" y="10"/>
      <point x="82" y="161"/>
      <point x="82" y="361" type="curve" smooth="yes"/>
      <point x="82" y="561"/>
      <point x="158" y="712"/>
      <point x="358" y="712" type="curve" smooth="yes"/>
      <point x="508" y="712"/>
      <point x="601" y="636"/>
      <point x="611" y="525" type="curve"/>
      <point x="633" y="525" type="line"/>
      <point x="623" y="650"/>
      <point x="524" y="732"/>
      <point x="358" y="732" type="curve" smooth="yes"/>
      <point x="140" y="732"/>
      <point x="60" y="579"/>
    </contour>
  </outline>
  <guideline angle="90" x="358" y="0"/>
</glyph>
<glyph name="H" format="2">
  <advance width="620"/>
  <unicode hex="0048"/>
  <anchor x="310" y="797" name="top"/>
  <anchor x="310" y="-75" name="bottom"/>
  <anchor x="-8" y="722" name="tonos"/>
  <anchor x="87" y="0" name="b.cedilla"/>
  <outline>
    <component base="I" xOffset="-10"/>
    <component base="I" xOffset="448"/>
    <contour>
      <point x="82" y="379" type="line"/>
      <point x="82" y="361" type="line"/>
      <point x="539" y="361" type="line"/>
      <point x="539" y="379" type="line"/>
    </contour>
  </outline>
  <guideline angle="90" x="70" y="0"/>
  <guideline angle="90" x="550" y="0"/>
  <guideline angle="56.3832" x="70" y="0"/>
  <guideline angle="123.617" x="550" y="0"/>
  <guideline angle="90" x="310" y="0"/>
</glyph>
<glyph name="I" format="2">
  <advance width="182"/>
  <unicode hex="0049"/>
  <anchor x="91" y="797" name="top"/>
  <anchor x="-8" y="722" name="tonos"/>
  <anchor x="102" y="0" name="ogonekUC"/>
  <outline>
    <contour>
      <point x="80" y="0" type="line"/>
      <point x="102" y="0" type="line"/>
      <point x="102" y="722" type="line"/>
      <point x="80" y="722" type="line"/>
    </contour>
  </outline>
</glyph>
<glyph name="J" format="2">
  <advance width="449"/>
  <unicode hex="004A"/>
  <anchor x="360" y="797" name="top"/>
  <anchor x="205" y="-75" name="bottom"/>
  <outline>
    <contour>
      <point x="40.4554" y="174" type="line"/>
      <point x="40.0936" y="61.2"/>
      <point x="108.595" y="-14"/>
      <point x="211.71" y="-14" type="curve" smooth="yes"/>
      <point x="307.284" y="-14"/>
      <point x="371" y="61.9886"/>
      <point x="371" y="175.971" type="curve" smooth="yes"/>
      <point x="371" y="722" type="line"/>
      <point x="349" y="722" type="line"/>
      <point x="349" y="175.971" type="line" smooth="yes"/>
      <point x="349" y="73.9341"/>
      <point x="294.084" y="5.90916"/>
      <point x="211.71" y="5.90916" type="curve" smooth="yes"/>
      <point x="120.684" y="5.90916"/>
      <point x="60" y="73.1455"/>
      <point x="60" y="174" type="curve"/>
    </contour>
  </outline>
</glyph>
<glyph name="K" format="2">
  <advance width="503"/>
  <unicode hex="004B"/>
  <anchor x="226" y="797" name="top"/>
  <anchor x="260" y="-57" name="bottom"/>
  <outline>
    <component base="I"/>
    <contour>
      <point x="86" y="405.618" type="line"/>
      <point x="434" y="0" type="line"/>
      <point x="463" y="0" type="line"/>
      <point x="113.497" y="407.866" type="line"/>
      <point x="117.185" y="393.725" type="line"/>
      <point x="437" y="722" type="line"/>
      <point x="406" y="722" type="line"/>
      <point x="86.4225" y="392.79" type="line"/>
    </contour>
  </outline>
  <guideline angle="90" x="80" y="0"/>
  <guideline angle="90" x="463" y="0"/>
  <guideline angle="90" x="261" y="0"/>
  <guideline angle="0" x="0" y="-57"/>
</glyph>
<glyph name="M" format="2">
  <advance width="724"/>
  <unicode hex="004D"/>
  <anchor x="361" y="797" name="top"/>
  <outline>
    <contour>
      <point x="70" y="0" type="line"/>
      <point x="92" y="0" type="line"/>
      <point x="92" y="722" type="line"/>
      <point x="70" y="722" type="line"/>
    </contour>
    <contour>
      <point x="632" y="0" type="line"/>
      <point x="654" y="0" type="line"/>
      <point x="654" y="722" type="line"/>
      <point x="632" y="722" type="line"/>
    </contour>
    <contour>
      <point x="352" y="0" type="line"/>
      <point x="372" y="0" type="line"/>
      <point x="642" y="722" type="line"/>
      <point x="622" y="722" type="line"/>
      <point x="358" y="24" type="line"/>
      <point x="366" y="24" type="line"/>
      <point x="102" y="722" type="line"/>
      <point x="82" y="722" type="line"/>
    </contour>
  </outline>
  <guideline angle="90" x="362" y="0"/>
</glyph>
<glyph name="N" format="2">
  <advance width="683"/>
  <unicode hex="004E"/>
  <anchor x="345" y="797" name="top"/>
  <anchor x="320" y="-57" name="bottom"/>
  <outline>
    <contour>
      <point x="70" y="722" type="line"/>
      <point x="545" y="0" type="line"/>
      <point x="569" y="0" type="line"/>
      <point x="94" y="722" type="line"/>
    </contour>
    <contour>
      <point x="81.862" y="722" type="line"/>
      <point x="60" y="722" type="line"/>
      <point x="60" y="0" type="line"/>
      <point x="81.862" y="0" type="line"/>
    </contour>
    <contour>
      <point x="558.103" y="0" type="line"/>
      <point x="580.103" y="0" type="line"/>
      <point x="580.103" y="722" type="line"/>
      <point x="558.103" y="722" type="line"/>
    </contour>
  </outline>
</glyph>
<glyph name="O" format="2">
  <advance width="754"/>
  <unicode hex="004F"/>
  <anchor x="365" y="797" name="top"/>
  <anchor x="72" y="722" name="tonos"/>
  <anchor x="390" y="0" name="ogonekUC"/>
  <outline>
    <contour>
      <point x="80" y="361" type="curve" smooth="yes"/>
      <point x="80" y="116.299"/>
      <point x="181.447" y="-10"/>
      <point x="378" y="-10" type="curve" smooth="yes"/>
      <point x="574.553" y="-10"/>
      <point x="676" y="116.299"/>
      <point x="676" y="361" type="curve" smooth="yes"/>
      <point x="676" y="605.701"/>
      <point x="574.553" y="732"/>
      <point x="378" y="732" type="curve" smooth="yes"/>
      <point x="181.447" y="732"/>
      <point x="80" y="605.701"/>
    </contour>
    <contour>
      <point x="102" y="361" type="curve" smooth="yes"/>
      <point x="102" y="588.174"/>
      <point x="199.368" y="712"/>
      <point x="378" y="712" type="curve" smooth="yes"/>
      <point x="556.632" y="712"/>
      <point x="654" y="588.174"/>
      <point x="654" y="361" type="curve" smooth="yes"/>
      <point x="654" y="133.946"/>
      <point x="556.707" y="10.2145"/>
      <point x="378" y="10" type="curve" smooth="yes"/>
      <point x="199.442" y="9.7857"/>
      <point x="102" y="133.706"/>
    </contour>
  </outline>
  <guideline angle="90" x="80" y="0"/>
  <guideline angle="90" x="102" y="0"/>
  <guideline angle="0" x="0" y="714"/>
</glyph>
<glyph name="P" format="2">
  <advance width="631"/>
  <unicode hex="0050"/>
  <anchor x="245" y="797" name="top"/>
  <outline>
    <contour>
      <point x="81" y="702.052" type="line"/>
      <point x="307" y="702.052" type="line" smooth="yes"/>
      <point x="461.168" y="702.052"/>
      <point x="531.005" y="643.112"/>
      <point x="531.005" y="513" type="curve" smooth="yes"/>
      <point x="531.005" y="382.555"/>
      <point x="463.522" y="326.315"/>
      <point x="307" y="326.315" type="curve" smooth="yes"/>
      <point x="81" y="326.315" type="line"/>
      <point x="81" y="306" type="line"/>
      <point x="294" y="306" type="line" smooth="yes"/>
      <point x="477.905" y="306"/>
      <point x="553" y="366.308"/>
      <point x="553" y="514" type="curve" smooth="yes"/>
      <point x="553" y="661.692"/>
      <point x="477.905" y="722"/>
      <point x="294" y="722" type="curve" smooth="yes"/>
      <point x="70" y="722" type="line"/>
      <point x="70" y="712" type="line"/>
    </contour>
    <contour>
      <point x="70" y="0" type="line"/>
      <point x="92" y="0" type="line"/>
      <point x="92" y="712" type="line"/>
      <point x="82.2414" y="722" type="line"/>
      <point x="70" y="722" type="line"/>
    </contour>
  </outline>
</glyph>
<glyph name="S" format="2">
  <advance width="700"/>
  <unicode hex="0053"/>
  <anchor x="336" y="797" name="top"/>
  <anchor x="350" y="0" name="b.cedilla"/>
  <outline>
    <contour>
      <point x="80" y="219" type="line"/>
      <point x="80" y="82"/>
      <point x="187" y="-10"/>
      <point x="346" y="-10" type="curve" smooth="yes"/>
      <point x="543.228" y="-10"/>
      <point x="622" y="47.1809"/>
      <point x="622" y="190.35" type="curve" smooth="yes"/>
      <point x="622" y="283.224"/>
      <point x="538.721" y="345.761"/>
      <point x="371" y="378.832" type="curve" smooth="yes"/>
      <point x="156.009" y="421.225"/>
      <point x="110.546" y="471.761"/>
      <point x="110.546" y="550.048" type="curve" smooth="yes"/>
      <point x="110.546" y="660.664"/>
      <point x="201.309" y="712.278"/>
      <point x="329" y="712.278" type="curve" smooth="yes"/>
      <point x="493.677" y="712.278"/>
      <point x="574" y="653.869"/>
      <point x="574" y="535" type="curve"/>
      <point x="594" y="535" type="line"/>
      <point x="594" y="661"/>
      <point x="501" y="732"/>
      <point x="334.019" y="732" type="curve" smooth="yes"/>
      <point x="186" y="732"/>
      <point x="89" y="676.209"/>
      <point x="89" y="556.209" type="curve" smooth="yes"/>
      <point x="89" y="464.104"/>
      <point x="145.906" y="401.915"/>
      <point x="332" y="366.552" type="curve" smooth="yes"/>
      <point x="532.775" y="328.398"/>
      <point x="600.085" y="275.389"/>
      <point x="600.085" y="184.944" type="curve" smooth="yes"/>
      <point x="600.085" y="62.8467"/>
      <point x="525.749" y="10"/>
      <point x="354" y="10" type="curve" smooth="yes"/>
      <point x="201.247" y="10"/>
      <point x="99.7601" y="93.7263"/>
      <point x="100.383" y="219" type="curve"/>
    </contour>
  </outline>
  <guideline angle="346.485" x="39" y="448.094"/>
</glyph>
<glyph name="T" format="2">
  <advance width="652"/>
  <unicode hex="0054"/>
  <anchor x="325" y="797" name="top"/>
  <anchor x="332" y="0" name="b.cedilla"/>
  <outline>
    <contour>
      <point x="612" y="702" type="line"/>
      <point x="612" y="722" type="line"/>
      <point x="40" y="722" type="line"/>
      <point x="40" y="702" type="line"/>
      <point x="315" y="702" type="line"/>
      <point x="315" y="0" type="line"/>
      <point x="336.993" y="0" type="line"/>
      <point x="336.993" y="702" type="line"/>
    </contour>
  </outline>
  <guideline angle="90" x="326" y="0"/>
</glyph>
<glyph name="W" format="2">
  <advance width="880"/>
  <unicode hex="0057"/>
  <anchor x="440" y="797" name="top"/>
  <outline>
    <contour>
      <point x="839.632" y="722" type="line"/>
      <point x="820" y="722" type="line"/>
      <point x="631.131" y="19.4075" type="line"/>
      <point x="637.131" y="19.4025" type="line"/>
      <point x="451.567" y="722" type="line"/>
      <point x="427.622" y="722" type="line"/>
      <point x="239.918" y="19.4025" type="line"/>
      <point x="246.101" y="19.4075" type="line"/>
      <point x="59.1696" y="722" type="line"/>
      <point x="40.2116" y="722" type="line"/>
      <point x="231.191" y="0" type="line"/>
      <point x="254.844" y="0" type="line"/>
      <point x="442.608" y="702.563" type="line"/>
      <point x="436.608" y="702.563" type="line"/>
      <point x="622" y="0" type="line"/>
      <point x="645.892" y="0" type="line"/>
    </contour>
  </outline>
  <guideline angle="90" x="440" y="0"/>
</glyph>
<glyph name="Y" format="2">
  <advance width="636"/>
  <unicode hex="0059"/>
  <anchor x="318" y="797" name="top"/>
  <outline>
    <contour>
      <point x="596" y="722" type="line"/>
      <point x="576" y="722" type="line"/>
      <point x="317.873" y="288.453" type="line"/>
      <point x="60.2391" y="722" type="line"/>
      <point x="40" y="722" type="line"/>
      <point x="317.907" y="255.692" type="line"/>
    </contour>
    <contour>
      <point x="307" y="279.768" type="line"/>
      <point x="307" y="0" type="line"/>
      <point x="328.994" y="0" type="line"/>
      <point x="328.994" y="279.768" type="line"/>
    </contour>
  </outline>
  <guideline angle="90" x="318" y="0"/>
</glyph>
<glyph name="asciicircum" format="2">
  <advance width="551"/>
  <unicode hex="005E"/>
  <outline>
    <contour>
      <point x="511" y="10" type="line"/>
      <point x="288.586" y="610" type="line"/>
      <point x="263.414" y="610" type="line"/>
      <point x="40.5609" y="10" type="line"/>
      <point x="60.6642" y="10" type="line"/>
      <point x="276" y="590" type="line"/>
      <point x="491" y="10" type="line"/>
    </contour>
  </outline>
  <guideline angle="90" x="276" y="0"/>
  <guideline angle="110.339" x="491" y="10"/>
  <guideline angle="249.661" x="276" y="590"/>
  <guideline angle="110.339" x="511" y="10"/>
  <guideline angle="249.661" x="256" y="590"/>
  <guideline angle="249.661" x="276" y="590"/>
  <guideline angle="110.339" x="491" y="10"/>
</glyph>
<glyph name="a" format="2">
  <advance width="565"/>
  <unicode hex="0061"/>
  <anchor x="283" y="580" name="top"/>
  <anchor x="283" y="580" name="t.ring"/>
  <anchor x="282" y="-50" name="bottom"/>
  <anchor x="485" y="0" name="ogonekLC"/>
  <outline>
    <contour>
      <point x="80" y="146" type="curve" smooth="yes"/>
      <point x="80" y="53"/>
      <point x="147" y="-10"/>
      <point x="247" y="-10" type="curve" smooth="yes"/>
      <point x="343.136" y="-10"/>
      <point x="420.394" y="24.297"/>
      <point x="461" y="85" type="curve"/>
      <point x="451" y="83" type="line"/>
      <point x="453" y="52"/>
      <point x="458" y="19"/>
      <point x="465" y="0" type="curve"/>
      <point x="485" y="0" type="line"/>
      <point x="473" y="31"/>
      <point x="469" y="99.9939"/>
      <point x="469" y="142.886" type="curve" smooth="yes"/>
      <point x="469" y="356" type="line" smooth="yes"/>
      <point x="469" y="450.005"/>
      <point x="405.721" y="512"/>
      <point x="286.385" y="512" type="curve" smooth="yes"/>
      <point x="178.426" y="512"/>
      <point x="107" y="462"/>
      <point x="107" y="365" type="curve"/>
      <point x="127" y="365" type="line"/>
      <point x="127" y="451"/>
      <point x="186.6" y="494"/>
      <point x="285.446" y="494" type="curve" smooth="yes"/>
      <point x="396.566" y="494"/>
      <point x="449" y="438.006"/>
      <point x="449" y="353" type="curve" smooth="yes"/>
      <point x="449" y="120" type="line" smooth="yes"/>
      <point x="449" y="61.9914"/>
      <point x="347" y="10"/>
      <point x="255" y="10" type="curve" smooth="yes"/>
      <point x="161" y="10"/>
      <point x="100" y="65"/>
      <point x="100" y="148" type="curve" smooth="yes"/>
      <point x="100" y="242"/>
      <point x="176" y="290"/>
      <point x="336" y="290" type="curve" smooth="yes"/>
      <point x="369" y="290"/>
      <point x="425" y="284"/>
      <point x="460" y="280" type="curve"/>
      <point x="460" y="300" type="line"/>
      <point x="427" y="304"/>
      <point x="370" y="308"/>
      <point x="327" y="308" type="curve" smooth="yes"/>
      <point x="156" y="308"/>
      <point x="80" y="248"/>
    </contour>
  </outline>
  <guideline angle="90" x="282.5" y="0"/>
</glyph>
<glyph name="b" format="2">
  <advance width="619"/>
  <unicode hex="0062"/>
  <anchor x="259" y="754" name="top"/>
  <anchor x="309.5" y="-88" name="bottom"/>
  <outline>
    <contour>
      <point x="100.048" y="0" type="curve"/>
      <point x="120" y="0" type="line"/>
      <point x="125" y="26.0296"/>
      <point x="126" y="52.8481"/>
      <point x="126" y="78.8777" type="curve" smooth="yes"/>
      <point x="126" y="112.998"/>
      <point x="122" y="148.152"/>
      <point x="122" y="182.272" type="curve"/>
      <point x="117.516" y="182.55" type="line"/>
      <point x="118.398" y="328.45" type="line"/>
      <point x="122" y="328.323" type="line"/>
      <point x="126.32" y="366.274"/>
      <point x="126" y="405.351"/>
      <point x="126" y="443.324" type="curve" smooth="yes"/>
      <point x="126" y="722" type="line"/>
      <point x="106.048" y="722" type="line"/>
      <point x="106.048" y="139.346" type="line" smooth="yes"/>
      <point x="106.048" y="93.3618"/>
      <point x="105.048" y="45.9842"/>
    </contour>
    <contour>
      <point x="115.924" y="120.778" type="line"/>
      <point x="126.817" y="120.778" type="line"/>
      <point x="162.366" y="33.3409"/>
      <point x="220.491" y="-10"/>
      <point x="321.161" y="-10" type="curve" smooth="yes"/>
      <point x="446.682" y="-10"/>
      <point x="539" y="84.2416"/>
      <point x="539" y="254.994" type="curve" smooth="yes"/>
      <point x="539" y="425.319"/>
      <point x="447.043" y="512"/>
      <point x="316" y="512" type="curve" smooth="yes"/>
      <point x="239.732" y="512"/>
      <point x="160.175" y="463.134"/>
      <point x="128.805" y="370.55" type="curve"/>
      <point x="115.924" y="370.55" type="line"/>
    </contour>
    <contour>
      <point x="124" y="262" type="curve" smooth="yes"/>
      <point x="124" y="421.965"/>
      <point x="231.583" y="492"/>
      <point x="313.257" y="492" type="curve" smooth="yes"/>
      <point x="435.757" y="492"/>
      <point x="519" y="416.677"/>
      <point x="519" y="257.376" type="curve" smooth="yes"/>
      <point x="519" y="95.4855"/>
      <point x="433.683" y="10"/>
      <point x="319.331" y="10" type="curve" smooth="yes"/>
      <point x="199.558" y="10"/>
      <point x="124" y="103.783"/>
    </contour>
  </outline>
  <guideline angle="90" x="309.5" y="0"/>
</glyph>
<glyph name="c" format="2">
  <advance width="616"/>
  <unicode hex="0063"/>
  <anchor x="322" y="580" name="top"/>
  <anchor x="312" y="0" name="b.cedilla"/>
  <outline>
    <contour>
      <point x="80" y="250" type="curve" smooth="yes"/>
      <point x="80" y="407.2"/>
      <point x="174.245" y="512"/>
      <point x="315.613" y="512" type="curve" smooth="yes"/>
      <point x="435.248" y="512"/>
      <point x="521.802" y="443.6"/>
      <point x="532" y="341" type="curve"/>
      <point x="512" y="341" type="line"/>
      <point x="502.819" y="431.6"/>
      <point x="424.29" y="492"/>
      <point x="315.677" y="492" type="curve" smooth="yes"/>
      <point x="186.271" y="492"/>
      <point x="100" y="395.156"/>
      <point x="100" y="249.889" type="curve" smooth="yes"/>
      <point x="100" y="105.956"/>
      <point x="186.227" y="10"/>
      <point x="315.567" y="10" type="curve" smooth="yes"/>
      <point x="425.71" y="10"/>
      <point x="505.884" y="73.2"/>
      <point x="516" y="168" type="curve"/>
      <point x="536" y="168" type="line"/>
      <point x="524.67" y="61.2"/>
      <point x="436.476" y="-10"/>
      <point x="315.514" y="-10" type="curve" smooth="yes"/>
      <point x="174.206" y="-10"/>
      <point x="80" y="94"/>
    </contour>
  </outline>
  <guideline angle="90" x="308" y="0"/>
  <guideline angle="0" x="0" y="580"/>
</glyph>
<glyph name="d" format="2">
  <advance width="611"/>
  <unicode hex="0064"/>
  <anchor x="387" y="748" name="top"/>
  <anchor x="590" y="722" name="caron_TR"/>
  <outline>
    <contour>
      <point x="501" y="0" type="line"/>
      <point x="521" y="0" type="line"/>
      <point x="521" y="722" type="line"/>
      <point x="501" y="722" type="line"/>
    </contour>
    <contour>
      <point x="80" y="250.204" type="curve" smooth="yes"/>
      <point x="80" y="85.2011"/>
      <point x="158.724" y="-10"/>
      <point x="306" y="-10" type="curve" smooth="yes"/>
      <point x="401" y="-10"/>
      <point x="490.009" y="59.1489"/>
      <point x="510.441" y="169.878" type="curve"/>
      <point x="510.009" y="324.509" type="line"/>
      <point x="495.17" y="424"/>
      <point x="410.009" y="512"/>
      <point x="302" y="512" type="curve" smooth="yes"/>
      <point x="159.515" y="512"/>
      <point x="80" y="416.033"/>
    </contour>
    <contour>
      <point x="100" y="251.402" type="curve" smooth="yes"/>
      <point x="100" y="404.286"/>
      <point x="167.613" y="492"/>
      <point x="303.627" y="492" type="curve" smooth="yes"/>
      <point x="418.434" y="492"/>
      <point x="501" y="387.659"/>
      <point x="501" y="242.333" type="curve" smooth="yes"/>
      <point x="501" y="88.5059"/>
      <point x="396" y="10"/>
      <point x="308.507" y="10" type="curve" smooth="yes"/>
      <point x="176.603" y="10"/>
      <point x="100" y="88.6729"/>
    </contour>
  </outline>
  <guideline angle="90" x="590" y="0"/>
  <guideline angle="90" x="305.5" y="0"/>
</glyph>
<glyph name="e" format="2">
  <advance width="616"/>
  <unicode hex="0065"/>
  <anchor x="308" y="580" name="top"/>
  <anchor x="288" y="-89" name="bottom"/>
  <anchor x="312" y="0" name="b.cedilla"/>
  <anchor x="329" y="0" name="ogonekLC"/>
  <outline>
    <contour>
      <point x="80" y="250" type="curve" smooth="yes"/>
      <point x="80" y="94"/>
      <point x="174" y="-10"/>
      <point x="314.992" y="-10" type="curve" smooth="yes"/>
      <point x="429" y="-10"/>
      <point x="517" y="58"/>
      <point x="536" y="160" type="curve"/>
      <point x="516" y="160" type="line"/>
      <point x="499" y="70"/>
      <point x="418" y="10"/>
      <point x="315" y="10" type="curve" smooth="yes"/>
      <point x="185" y="10"/>
      <point x="100" y="106"/>
      <point x="100" y="250" type="curve" smooth="yes"/>
      <point x="100" y="395"/>
      <point x="188" y="492"/>
      <point x="314.542" y="492" type="curve" smooth="yes"/>
      <point x="437.512" y="492"/>
      <point x="516" y="400.399"/>
      <point x="516" y="256.756" type="curve"/>
      <point x="528" y="246" type="line"/>
      <point x="536" y="246" type="line"/>
      <point x="536" y="270" type="line" smooth="yes"/>
      <point x="536" y="412.634"/>
      <point x="450.078" y="512"/>
      <point x="314.928" y="512" type="curve" smooth="yes"/>
      <point x="176" y="512"/>
      <point x="80" y="407"/>
    </contour>
    <contour>
      <point x="91" y="246" type="line"/>
      <point x="536" y="246" type="line"/>
      <point x="536" y="261" type="line"/>
      <point x="531" y="266" type="line"/>
      <point x="91" y="266" type="line"/>
    </contour>
  </outline>
  <guideline angle="90" x="308" y="0"/>
</glyph>
<glyph name="f" format="2">
  <advance width="280"/>
  <unicode hex="0066"/>
  <anchor x="179" y="757" name="top"/>
  <anchor x="123" y="-75" name="bottom"/>
  <outline>
    <contour>
      <point x="110" y="622.98" type="curve" smooth="yes"/>
      <point x="110" y="0" type="line"/>
      <point x="130" y="0" type="line"/>
      <point x="130" y="620.98" type="line" smooth="yes"/>
      <point x="130" y="682.944"/>
      <point x="148.197" y="711.926"/>
      <point x="201.763" y="711.926" type="curve" smooth="yes"/>
      <point x="219.525" y="711.926"/>
      <point x="241.515" y="709.179"/>
      <point x="261" y="701.98" type="curve"/>
      <point x="261" y="722" type="line"/>
      <point x="238.955" y="729.348"/>
      <point x="223.045" y="732"/>
      <point x="192.024" y="732" type="curve" smooth="yes"/>
      <point x="137.751" y="732"/>
      <point x="110" y="692.469"/>
    </contour>
    <contour>
      <point x="120" y="500" type="line"/>
      <point x="10" y="500" type="line"/>
      <point x="10" y="480" type="line"/>
      <point x="120" y="480" type="line"/>
    </contour>
    <contour>
      <point x="120.494" y="480" type="line"/>
      <point x="256" y="480" type="line"/>
      <point x="256" y="500" type="line"/>
      <point x="120.493" y="500" type="line"/>
    </contour>
  </outline>
</glyph>
<glyph name="g" format="2">
  <advance width="613"/>
  <unicode hex="0067"/>
  <anchor x="307" y="580" name="top"/>
  <anchor x="317" y="-273" name="bottom"/>
  <anchor x="292" y="580" name="cedilla.top"/>
  <outline>
    <contour>
      <point x="80" y="266" type="curve" smooth="yes"/>
      <point x="80" y="106.667"/>
      <point x="159.429" y="14"/>
      <point x="296" y="14" type="curve" smooth="yes"/>
      <point x="394.184" y="14"/>
      <point x="465.464" y="69.4402"/>
      <point x="503" y="175" type="curve"/>
      <point x="503" y="21" type="line" smooth="yes"/>
      <point x="503" y="-106.944"/>
      <point x="433.678" y="-178"/>
      <point x="310.244" y="-178" type="curve" smooth="yes"/>
      <point x="200.574" y="-178"/>
      <point x="127" y="-122.82"/>
      <point x="126.984" y="-39" type="curve"/>
      <point x="107" y="-39" type="line"/>
      <point x="107" y="-134.291"/>
      <point x="186.736" y="-198"/>
      <point x="306" y="-198" type="curve" smooth="yes"/>
      <point x="456" y="-198"/>
      <point x="523" y="-111"/>
      <point x="523" y="29" type="curve" smooth="yes"/>
      <point x="523" y="500" type="line"/>
      <point x="503" y="500" type="line"/>
      <point x="503" y="364" type="line"/>
      <point x="463.712" y="461.169"/>
      <point x="393.991" y="512"/>
      <point x="300" y="512" type="curve" smooth="yes"/>
      <point x="168.558" y="512"/>
      <point x="80" y="413.816"/>
    </contour>
    <contour>
      <point x="309" y="34" type="curve" smooth="yes"/>
      <point x="172.839" y="34"/>
      <point x="100" y="116.249"/>
      <point x="100" y="270" type="curve" smooth="yes"/>
      <point x="100" y="404.058"/>
      <point x="180.718" y="492"/>
      <point x="303.763" y="492" type="curve" smooth="yes"/>
      <point x="416.92" y="492"/>
      <point x="503" y="382.443"/>
      <point x="503" y="264" type="curve" smooth="yes"/>
      <point x="503" y="144.458"/>
      <point x="409.869" y="34"/>
    </contour>
  </outline>
  <guideline angle="90" x="306.5" y="0"/>
</glyph>
<glyph name="h" format="2">
  <advance width="575"/>
  <unicode hex="0068"/>
  <anchor x="299" y="-75" name="bottom"/>
  <anchor x="361" y="797" name="top"/>
  <anchor x="115" y="0" name="b.cedilla"/>
  <outline>
    <component base="l"/>
    <contour>
      <point x="110" y="376.185" type="line"/>
      <point x="120" y="376" type="line"/>
      <point x="129.434" y="441.097"/>
      <point x="215.865" y="490"/>
      <point x="289.535" y="490" type="curve" smooth="yes"/>
      <point x="399.198" y="490"/>
      <point x="465" y="431.284"/>
      <point x="465" y="315.893" type="curve" smooth="yes"/>
      <point x="465" y="0" type="line"/>
      <point x="485" y="0" type="line"/>
      <point x="485" y="312" type="line" smooth="yes"/>
      <point x="485" y="441.495"/>
      <point x="412.03" y="510"/>
      <point x="293" y="510" type="curve" smooth="yes"/>
      <point x="228.947" y="510"/>
      <point x="150.75" y="474.346"/>
      <point x="120" y="420" type="curve" smooth="yes"/>
      <point x="110" y="402.327" type="line"/>
    </contour>
  </outline>
  <guideline angle="90" x="170" y="0"/>
  <guideline angle="90" x="196" y="0"/>
</glyph>
<glyph name="j" format="2">
  <advance width="207"/>
  <unicode hex="006A"/>
  <outline>
    <contour>
      <point x="40" y="-200" type="line"/>
      <point x="65" y="-200" type="line" smooth="yes"/>
      <point x="100.224" y="-200"/>
      <point x="115.984" y="-174.015"/>
      <point x="115.984" y="-114" type="curve" smooth="yes"/>
      <point x="115.984" y="500" type="line"/>
      <point x="96" y="500" type="line"/>
      <point x="96" y="-107.818" type="line" smooth="yes"/>
      <point x="96" y="-160.904"/>
      <point x="85.7702" y="-180"/>
      <point x="58.1466" y="-180" type="curve" smooth="yes"/>
      <point x="40" y="-180" type="line"/>
    </contour>
    <contour>
      <point x="95" y="630" type="line"/>
      <point x="117" y="630" type="line"/>
      <point x="117" y="722" type="line"/>
      <point x="95" y="722" type="line"/>
    </contour>
  </outline>
  <guideline angle="0" x="0" y="630"/>
</glyph>
<glyph name="n" format="2">
  <advance width="575"/>
  <unicode hex="006E"/>
  <anchor x="287" y="580" name="top"/>
  <anchor x="301" y="-57" name="bottom"/>
  <outline>
    <component base="dotlessi"/>
    <contour>
      <point x="110" y="376" type="line"/>
      <point x="120" y="376" type="line"/>
      <point x="128" y="436"/>
      <point x="209" y="492"/>
      <point x="296" y="492" type="curve" smooth="yes"/>
      <point x="395" y="492"/>
      <point x="465" y="422.22"/>
      <point x="465" y="320" type="curve" smooth="yes"/>
      <point x="465" y="0" type="line"/>
      <point x="485" y="0" type="line"/>
      <point x="485" y="324" type="line" smooth="yes"/>
      <point x="485" y="431"/>
      <point x="411" y="510"/>
      <point x="298" y="510" type="curve" smooth="yes"/>
      <point x="221" y="510"/>
      <point x="153" y="474"/>
      <point x="122" y="420" type="curve"/>
      <point x="110" y="420" type="line"/>
    </contour>
  </outline>
</glyph>
<glyph name="o" format="2">
  <advance width="620"/>
  <unicode hex="006F"/>
  <anchor x="310" y="580" name="top"/>
  <anchor x="310" y="-75" name="bottom"/>
  <anchor x="310" y="580" name="tonos.top"/>
  <anchor x="329" y="0" name="ogonekLC"/>
  <outline>
    <contour>
      <point x="80" y="250" type="curve" smooth="yes"/>
      <point x="80" y="83.976"/>
      <point x="163.585" y="-10"/>
      <point x="310" y="-10" type="curve" smooth="yes"/>
      <point x="455.964" y="-10"/>
      <point x="540" y="83.976"/>
      <point x="540" y="250" type="curve" smooth="yes"/>
      <point x="540" y="416.024"/>
      <point x="455.513" y="510"/>
      <point x="310" y="510" type="curve" smooth="yes"/>
      <point x="162.229" y="510"/>
      <point x="80" y="416.024"/>
    </contour>
    <contour>
      <point x="102" y="250" type="curve" smooth="yes"/>
      <point x="102" y="403.065"/>
      <point x="177.616" y="490"/>
      <point x="310" y="490" type="curve" smooth="yes"/>
      <point x="442.838" y="490"/>
      <point x="518" y="403.065"/>
      <point x="518" y="250" type="curve" smooth="yes"/>
      <point x="518" y="96.9348"/>
      <point x="443.292" y="10"/>
      <point x="310" y="10" type="curve" smooth="yes"/>
      <point x="176.257" y="10"/>
      <point x="102" y="96.9348"/>
    </contour>
  </outline>
  <guideline angle="90" x="310" y="0"/>
  <guideline angle="0" x="0" y="580"/>
</glyph>
<glyph name="r" format="2">
  <advance width="332"/>
  <unicode hex="0072"/>
  <anchor x="200" y="580" name="top"/>
  <anchor x="110" y="-57" name="bottom"/>
  <outline>
    <component base="dotlessi"/>
    <contour>
      <point x="130" y="442" type="curve" smooth="yes"/>
      <point x="110" y="411.233" type="line"/>
      <point x="110" y="349.682" type="line"/>
      <point x="120" y="350" type="line"/>
      <point x="120" y="443.038"/>
      <point x="181.05" y="490"/>
      <point x="302" y="490" type="curve"/>
      <point x="302" y="510" type="line"/>
      <point x="215.347" y="510"/>
      <point x="159.972" y="488.108"/>
    </contour>
  </outline>
  <guideline angle="90" x="166" y="0"/>
</glyph>
<glyph name="u" format="2">
  <advance width="574"/>
  <unicode hex="0075"/>
  <anchor x="282" y="580" name="top"/>
  <anchor x="282" y="-87" name="bottom"/>
  <anchor x="474" y="0" name="ogonekLC"/>
  <outline>
    <contour>
      <point x="90" y="174" type="line" smooth="yes"/>
      <point x="90" y="53.0055"/>
      <point x="151.889" y="-10"/>
      <point x="270.911" y="-10" type="curve" smooth="yes"/>
      <point x="353.882" y="-10"/>
      <point x="425.638" y="48.5288"/>
      <point x="453.886" y="119" type="curve" smooth="yes"/>
      <point x="463.886" y="143.947" type="line"/>
      <point x="463.886" y="193.745" type="line"/>
      <point x="453.886" y="194.284" type="line"/>
      <point x="453.995" y="96.8939"/>
      <point x="359.625" y="9.98976"/>
      <point x="275.769" y="9.98976" type="curve" smooth="yes"/>
      <point x="163.62" y="9.98976"/>
      <point x="110" y="62.5888"/>
      <point x="110" y="172" type="curve" smooth="yes"/>
      <point x="110" y="500" type="line"/>
      <point x="90" y="500" type="line"/>
    </contour>
    <contour>
      <point x="474" y="0" type="line"/>
      <point x="474" y="500" type="line"/>
      <point x="454" y="500" type="line"/>
      <point x="454" y="0" type="line"/>
    </contour>
  </outline>
  <guideline angle="90" x="282" y="0"/>
</glyph>
<glyph name="x" format="2">
  <advance width="501"/>
  <unicode hex="0078"/>
  <anchor x="251" y="580" name="top"/>
  <outline>
    <contour>
      <point x="461" y="0" type="line"/>
      <point x="75.9289" y="500" type="line"/>
      <point x="50.1141" y="500" type="line"/>
      <point x="436" y="0" type="line"/>
    </contour>
    <contour>
      <point x="237.123" y="261.064" type="line"/>
      <point x="40" y="0" type="line"/>
      <point x="67.3428" y="0" type="line"/>
      <point x="252.781" y="249.721" type="line"/>
    </contour>
    <contour>
      <point x="256.74" y="254.152" type="line"/>
      <point x="441" y="500" type="line"/>
      <point x="413.58" y="500" type="line"/>
      <point x="241.002" y="265.622" type="line"/>
    </contour>
  </outline>
  <guideline angle="90" x="250.5" y="0"/>
</glyph>
<glyph name="braceleft" format="2">
  <advance width="487"/>
  <unicode hex="007B"/>
  <outline>
    <contour>
      <point x="80" y="250" type="line"/>
      <point x="176" y="231"/>
      <point x="200" y="146"/>
      <point x="200" y="70" type="curve" smooth="yes"/>
      <point x="200" y="44"/>
      <point x="194" y="-74"/>
      <point x="194" y="-100" type="curve" smooth="yes"/>
      <point x="194" y="-197.589"/>
      <point x="236.411" y="-240"/>
      <point x="336" y="-240" type="curve"/>
      <point x="336" y="-220" type="line"/>
      <point x="247" y="-220"/>
      <point x="214" y="-181"/>
      <point x="214" y="-104" type="curve" smooth="yes"/>
      <point x="214" y="-71"/>
      <point x="220" y="19"/>
      <point x="220" y="47" type="curve" smooth="yes"/>
      <point x="220" y="150"/>
      <point x="197.418" y="237.153"/>
      <point x="111.063" y="259.502" type="curve"/>
      <point x="197.418" y="296.353"/>
      <point x="220" y="358"/>
      <point x="220" y="450" type="curve" smooth="yes"/>
      <point x="220" y="490"/>
      <point x="214" y="589.317"/>
      <point x="214" y="624.317" type="curve" smooth="yes"/>
      <point x="214" y="711.775"/>
      <point x="243.936" y="740"/>
      <point x="336" y="740" type="curve"/>
      <point x="336" y="760" type="line"/>
      <point x="231.947" y="760"/>
      <point x="194" y="723.107"/>
      <point x="194" y="624.317" type="curve" smooth="yes"/>
      <point x="194" y="589.317"/>
      <point x="200" y="491"/>
      <point x="200" y="450" type="curve" smooth="yes"/>
      <point x="200" y="380"/>
      <point x="182" y="294"/>
      <point x="80" y="270" type="curve"/>
    </contour>
  </outline>
  <guideline angle="0" x="0" y="260"/>
</glyph>
<glyph name="currency" format="2">
  <advance width="619"/>
  <unicode hex="00A4"/>
  <outline>
    <contour>
      <point x="99" y="427" type="curve" smooth="yes"/>
      <point x="99" y="303.737"/>
      <point x="189.508" y="216"/>
      <point x="311.987" y="216" type="curve" smooth="yes"/>
      <point x="436.822" y="216"/>
      <point x="521" y="307.578"/>
      <point x="521" y="431" type="curve" smooth="yes"/>
      <point x="521" y="551.233"/>
      <point x="431.386" y="639"/>
      <point x="312.981" y="639" type="curve" smooth="yes"/>
      <point x="185.472" y="639"/>
      <point x="99" y="553.448"/>
    </contour>
    <contour>
      <point x="118.874" y="426.877" type="curve" smooth="yes"/>
      <point x="118.874" y="542.087"/>
      <point x="197.96" y="620.501"/>
      <point x="312.482" y="620.501" type="curve" smooth="yes"/>
      <point x="422.484" y="620.501"/>
      <point x="501.126" y="538.877"/>
      <point x="501.126" y="428.126" type="curve" smooth="yes"/>
      <point x="501.126" y="316.043"/>
      <point x="422.631" y="233.501"/>
      <point x="312.482" y="233.501" type="curve" smooth="yes"/>
      <point x="198.873" y="233.501"/>
      <point x="118.874" y="312.996"/>
    </contour>
    <contour>
      <point x="177.863" y="578.871" type="line"/>
      <point x="65.8884" y="689.888" type="line"/>
      <point x="50.3077" y="674.308" type="line"/>
      <point x="162.312" y="564.201" type="line"/>
    </contour>
    <contour>
      <point x="458.012" y="562.011" type="line"/>
      <point x="570" y="674" type="line"/>
      <point x="553.947" y="690.053" type="line"/>
      <point x="443.523" y="578.795" type="line"/>
    </contour>
    <contour>
      <point x="448.179" y="283.179" type="line"/>
      <point x="557.661" y="174.265" type="line"/>
      <point x="571.676" y="187.901" type="line"/>
      <point x="462.296" y="296.869" type="line"/>
    </contour>
    <contour>
      <point x="159.115" y="291.935" type="line"/>
      <point x="52.0515" y="183.948" type="line"/>
      <point x="66" y="170" type="line"/>
      <point x="172.3" y="276.3" type="line"/>
    </contour>
  </outline>
  <guideline angle="135.246" x="193" y="563.863"/>
  <guideline angle="225.246" x="544" y="680.138"/>
  <guideline angle="45" x="465" y="569"/>
  <guideline angle="315.49" x="40" y="684.441"/>
  <guideline angle="225" x="76" y="700"/>
  <guideline angle="135" x="580" y="664"/>
  <guideline angle="44.2152" x="543" y="160"/>
  <guideline angle="315" x="40" y="196"/>
  <guideline angle="90" x="312" y="0"/>
  <guideline angle="0" x="0" y="431"/>
</glyph>
<glyph name="section" format="2">
  <advance width="467"/>
  <unicode hex="00A7"/>
  <outline>
    <contour>
      <point x="40.4248" y="347.783" type="curve" smooth="yes"/>
      <point x="40.4248" y="312.921"/>
      <point x="55.7044" y="278.59"/>
      <point x="85.9576" y="256.547" type="curve" smooth="yes"/>
      <point x="314.532" y="90.0042" type="line" smooth="yes"/>
      <point x="341.165" y="70.5988"/>
      <point x="358.5" y="28.203"/>
      <point x="358.5" y="-14.8536" type="curve" smooth="yes"/>
      <point x="358.5" y="-93.5179"/>
      <point x="300.324" y="-131"/>
      <point x="209.028" y="-131" type="curve" smooth="yes"/>
      <point x="160.139" y="-131"/>
      <point x="102.894" y="-103.587"/>
      <point x="63" y="-59" type="curve"/>
      <point x="63" y="-84" type="line"/>
      <point x="104.11" y="-123.901"/>
      <point x="161.367" y="-149"/>
      <point x="212" y="-149" type="curve" smooth="yes"/>
      <point x="314.507" y="-149"/>
      <point x="378.512" y="-102.509"/>
      <point x="378.512" y="-15.1978" type="curve" smooth="yes"/>
      <point x="378.512" y="33.7159"/>
      <point x="358.424" y="82.6949"/>
      <point x="331.435" y="102.275" type="curve" smooth="yes"/>
      <point x="103.742" y="267.456" type="line" smooth="yes"/>
      <point x="73.3162" y="289.53"/>
      <point x="60.5" y="317.588"/>
      <point x="60.5" y="346.944" type="curve" smooth="yes"/>
      <point x="60.5" y="403.806"/>
      <point x="108.585" y="443.635"/>
      <point x="209.244" y="454.012" type="curve"/>
      <point x="190.927" y="468.762" type="line"/>
      <point x="95.076" y="461.074"/>
      <point x="40.4248" y="413.714"/>
    </contour>
    <contour>
      <point x="101.5" y="581.385" type="curve" smooth="yes"/>
      <point x="101.5" y="537.105"/>
      <point x="119.442" y="506.137"/>
      <point x="152.383" y="482.262" type="curve" smooth="yes"/>
      <point x="376.528" y="319.803" type="line" smooth="yes"/>
      <point x="399.791" y="302.943"/>
      <point x="408.557" y="285.266"/>
      <point x="408.557" y="250.509" type="curve" smooth="yes"/>
      <point x="408.557" y="203.393"/>
      <point x="338.736" y="153.577"/>
      <point x="246.851" y="146.268" type="curve"/>
      <point x="266.459" y="131.951" type="line"/>
      <point x="374.087" y="148.774"/>
      <point x="428.557" y="197.938"/>
      <point x="428.557" y="258.215" type="curve" smooth="yes"/>
      <point x="428.557" y="287.81"/>
      <point x="415.426" y="317.494"/>
      <point x="387.766" y="337.385" type="curve" smooth="yes"/>
      <point x="162.16" y="499.629" type="line" smooth="yes"/>
      <point x="135.741" y="518.628"/>
      <point x="121.584" y="550.793"/>
      <point x="121.584" y="584.257" type="curve" smooth="yes"/>
      <point x="121.584" y="646.314"/>
      <point x="171.415" y="695"/>
      <point x="248.742" y="695" type="curve" smooth="yes"/>
      <point x="299.075" y="695"/>
      <point x="341.124" y="674.372"/>
      <point x="385" y="626.029" type="curve"/>
      <point x="385" y="651" type="line"/>
      <point x="343.168" y="693.933"/>
      <point x="300.06" y="713"/>
      <point x="246.368" y="713" type="curve" smooth="yes"/>
      <point x="155.536" y="713"/>
      <point x="101.5" y="658.431"/>
    </contour>
  </outline>
</glyph>
<glyph name="dieresis" format="2">
  <advance width="352"/>
  <unicode hex="00A8"/>
  <outline>
    <contour>
      <point x="100" y="600" type="line"/>
      <point x="122" y="600" type="line"/>
      <point x="122" y="692" type="line"/>
      <point x="100" y="692" type="line"/>
    </contour>
    <contour>
      <point x="240" y="600" type="line"/>
      <point x="262" y="600" type="line"/>
      <point x="262" y="692" type="line"/>
      <point x="240" y="692" type="line"/>
    </contour>
  </outline>
  <guideline angle="0" x="0" y="722"/>
  <guideline angle="90" x="181" y="0"/>
  <guideline angle="0" x="0" y="600"/>
  <guideline angle="90" x="122" y="0"/>
  <guideline angle="90" x="240" y="0"/>
</glyph>
<glyph name="copyright" format="2">
  <advance width="867"/>
  <unicode hex="00A9"/>
  <outline>
    <contour>
      <point x="252.5" y="354" type="curve" smooth="yes"/>
      <point x="252.5" y="210.484"/>
      <point x="311.139" y="141.5"/>
      <point x="434" y="141.5" type="curve" smooth="yes"/>
      <point x="532.655" y="141.5"/>
      <point x="587.134" y="188.249"/>
      <point x="596" y="284" type="curve"/>
      <point x="576" y="284" type="line"/>
      <point x="566.101" y="200.412"/>
      <point x="520.694" y="159.5"/>
      <point x="433" y="159.5" type="curve" smooth="yes"/>
      <point x="325.072" y="159.5"/>
      <point x="272.567" y="224.572"/>
      <point x="272.567" y="353" type="curve" smooth="yes"/>
      <point x="272.567" y="374.694" type="line" smooth="yes"/>
      <point x="272.567" y="486.561"/>
      <point x="332.724" y="558.5"/>
      <point x="424.409" y="558.5" type="curve" smooth="yes"/>
      <point x="523.303" y="558.5"/>
      <point x="571" y="516.303"/>
      <point x="571" y="441" type="curve"/>
      <point x="591" y="441" type="line"/>
      <point x="591" y="529.429"/>
      <point x="534.988" y="576.5"/>
      <point x="425" y="576.5" type="curve" smooth="yes"/>
      <point x="315.264" y="576.5"/>
      <point x="252.5" y="500.22"/>
    </contour>
    <contour>
      <point x="60.9893" y="360.447" type="curve" smooth="yes"/>
      <point x="60.9893" y="146.453"/>
      <point x="219.332" y="-12.502"/>
      <point x="432.501" y="-12.502" type="curve" smooth="yes"/>
      <point x="647.58" y="-12.502"/>
      <point x="806.011" y="145.691"/>
      <point x="806.011" y="360.447" type="curve" smooth="yes"/>
      <point x="806.011" y="571.437"/>
      <point x="644.887" y="731.502"/>
      <point x="432.501" y="731.502" type="curve" smooth="yes"/>
      <point x="221.704" y="731.502"/>
      <point x="60.9893" y="570.985"/>
    </contour>
    <contour>
      <point x="81.1854" y="360.447" type="curve" smooth="yes"/>
      <point x="81.1854" y="560.999"/>
      <point x="232.084" y="711.998"/>
      <point x="432.501" y="711.998" type="curve" smooth="yes"/>
      <point x="634.296" y="711.998"/>
      <point x="785.815" y="561.235"/>
      <point x="785.815" y="360.446" type="curve" smooth="yes"/>
      <point x="785.815" y="156.784"/>
      <point x="636.087" y="7"/>
      <point x="432.501" y="7" type="curve" smooth="yes"/>
      <point x="230.978" y="7"/>
      <point x="81.1854" y="157.702"/>
    </contour>
  </outline>
  <guideline angle="90" x="433" y="0"/>
  <guideline angle="0" x="0" y="360"/>
</glyph>
<glyph name="guillemotleft" format="2">
  <advance width="512"/>
  <unicode hex="00AB"/>
  <outline>
    <contour>
      <point x="237" y="57" type="line"/>
      <point x="110.711" y="262.22" type="line"/>
      <point x="110.711" y="241.78" type="line"/>
      <point x="237" y="447" type="line"/>
      <point x="217" y="447" type="line"/>
      <point x="80" y="252" type="line"/>
      <point x="217" y="57" type="line"/>
    </contour>
    <contour>
      <point x="431.701" y="57" type="line"/>
      <point x="305.411" y="262.22" type="line"/>
      <point x="305.411" y="241.78" type="line"/>
      <point x="431.701" y="447" type="line"/>
      <point x="411.701" y="447" type="line"/>
      <point x="274.701" y="252" type="line"/>
      <point x="411.701" y="57" type="line"/>
    </contour>
  </outline>
  <guideline angle="301.576" x="169" y="262"/>
  <guideline angle="54.9095" x="100" y="252"/>
  <guideline angle="125.091" x="237" y="57"/>
</glyph>
<glyph name="registered" format="2">
  <advance width="867"/>
  <unicode hex="00AE"/>
  <outline>
    <contour>
      <point x="60.9893" y="360.447" type="curve" smooth="yes"/>
      <point x="60.9893" y="146.453"/>
      <point x="219.332" y="-12.502"/>
      <point x="432.501" y="-12.502" type="curve" smooth="yes"/>
      <point x="647.58" y="-12.502"/>
      <point x="806.011" y="145.691"/>
      <point x="806.011" y="360.447" type="curve" smooth="yes"/>
      <point x="806.011" y="571.437"/>
      <point x="644.887" y="731.502"/>
      <point x="432.501" y="731.502" type="curve" smooth="yes"/>
      <point x="221.704" y="731.502"/>
      <point x="60.9893" y="570.985"/>
    </contour>
    <contour>
      <point x="81.1854" y="360.447" type="curve" smooth="yes"/>
      <point x="81.1854" y="560.999"/>
      <point x="232.084" y="711.998"/>
      <point x="432.501" y="711.998" type="curve" smooth="yes"/>
      <point x="634.296" y="711.998"/>
      <point x="785.815" y="561.235"/>
      <point x="785.815" y="360.446" type="curve" smooth="yes"/>
      <point x="785.815" y="156.784"/>
      <point x="636.087" y="7"/>
      <point x="432.501" y="7" type="curve" smooth="yes"/>
      <point x="230.978" y="7"/>
      <point x="81.1854" y="157.702"/>
    </contour>
    <contour>
      <point x="299.963" y="582" type="line"/>
      <point x="475.203" y="582" type="line" smooth="yes"/>
      <point x="539.698" y="582"/>
      <point x="572" y="547.998"/>
      <point x="572" y="480.637" type="curve" smooth="yes"/>
      <point x="572" y="424.056"/>
      <point x="507" y="380.5"/>
      <point x="446" y="380.5" type="curve" smooth="yes"/>
      <point x="310" y="380.5" type="line"/>
      <point x="310" y="362.5" type="line"/>
      <point x="449.658" y="362.5" type="line" smooth="yes"/>
      <point x="551.821" y="362.5"/>
      <point x="530.307" y="285.501"/>
      <point x="578" y="130" type="curve"/>
      <point x="600" y="130" type="line"/>
      <point x="565.029" y="222.028"/>
      <point x="571.101" y="358.114"/>
      <point x="495.714" y="371.695" type="curve"/>
      <point x="553.505" y="390.83"/>
      <point x="592" y="434.957"/>
      <point x="592" y="480.637" type="curve" smooth="yes"/>
      <point x="592" y="571.538"/>
      <point x="538" y="600"/>
      <point x="478.203" y="600" type="curve" smooth="yes"/>
      <point x="300" y="600" type="line"/>
    </contour>
    <contour>
      <point x="300" y="131" type="line"/>
      <point x="320" y="131" type="line"/>
      <point x="320" y="600.001" type="line"/>
      <point x="300" y="600" type="line"/>
    </contour>
  </outline>
</glyph>
<glyph name="macron" format="2">
  <advance width="290"/>
  <unicode hex="00AF"/>
  <outline>
    <contour>
      <point x="290" y="630" type="line"/>
      <point x="290" y="650" type="line"/>
      <point x="0" y="650" type="line"/>
      <point x="0" y="630" type="line"/>
    </contour>
  </outline>
  <guideline angle="0" x="0" y="665"/>
  <guideline angle="0" x="0" y="580"/>
  <guideline angle="0" x="0" y="600"/>
  <guideline angle="90" x="145" y="0"/>
</glyph>
<glyph name="plusminus" format="2">
  <advance width="1000"/>
  <unicode hex="00B1"/>
  <outline>
    <contour>
      <point x="800" y="378" type="line"/>
      <point x="800" y="398" type="line"/>
      <point x="510" y="398" type="line"/>
      <point x="510" y="600" type="line"/>
      <point x="490" y="600" type="line"/>
      <point x="490" y="398" type="line"/>
      <point x="200" y="398" type="line"/>
      <point x="200" y="378" type="line"/>
      <point x="490" y="378" type="line"/>
      <point x="490" y="178.432" type="line"/>
      <point x="510" y="178.432" type="line"/>
      <point x="510" y="378" type="line"/>
    </contour>
    <contour>
      <point x="800" y="22" type="line"/>
      <point x="800" y="42" type="line"/>
      <point x="200" y="42" type="line"/>
      <point x="200" y="22" type="line"/>
    </contour>
  </outline>
</glyph>
<glyph name="twosuperior" format="2">
  <advance width="353"/>
  <unicode hex="00B2"/>
  <outline>
    <contour>
      <point x="28" y="364" type="line"/>
      <point x="28" y="341" type="line"/>
      <point x="301" y="341" type="line"/>
      <point x="301" y="361" type="line"/>
      <point x="39.6682" y="361" type="line"/>
      <point x="39.9273" y="350.884" type="line"/>
      <point x="137.522" y="422.621" type="line" smooth="yes"/>
      <point x="280.956" y="528.053"/>
      <point x="308" y="575.729"/>
      <point x="308" y="618.508" type="curve" smooth="yes"/>
      <point x="308" y="695.673"/>
      <point x="261.456" y="732"/>
      <point x="175.952" y="732" type="curve" smooth="yes"/>
      <point x="97.3557" y="732"/>
      <point x="42.185" y="685.191"/>
      <point x="38" y="613" type="curve"/>
      <point x="57" y="613" type="line"/>
      <point x="65.083" y="677.664"/>
      <point x="109.163" y="714"/>
      <point x="179.045" y="714" type="curve" smooth="yes"/>
      <point x="247.402" y="714"/>
      <point x="288" y="683.551"/>
      <point x="288" y="619.863" type="curve" smooth="yes"/>
      <point x="288" y="579.09"/>
      <point x="252.688" y="529.655"/>
      <point x="106.533" y="421.899" type="curve" smooth="yes"/>
    </contour>
  </outline>
  <guideline angle="0" x="0" y="-11"/>
</glyph>
<glyph name="acute" format="2">
  <advance width="210"/>
  <unicode hex="00B4"/>
  <outline>
    <contour>
      <point x="40" y="580" type="line"/>
      <point x="60" y="580" type="line"/>
      <point x="170" y="720" type="line"/>
      <point x="140" y="720" type="line"/>
    </contour>
  </outline>
</glyph>
<glyph name="cedilla" format="2">
  <advance width="287"/>
  <unicode hex="00B8"/>
  <outline>
    <contour>
      <point x="85.6407" y="-86" type="line"/>
      <point x="103.145" y="-89.5027" type="line"/>
      <point x="119.153" y="-78.1782"/>
      <point x="137.844" y="-72"/>
      <point x="156.097" y="-72" type="curve" smooth="yes"/>
      <point x="191.312" y="-72"/>
      <point x="217" y="-94.7331"/>
      <point x="217" y="-129.898" type="curve" smooth="yes"/>
      <point x="217" y="-167.159"/>
      <point x="187.4" y="-192"/>
      <point x="143" y="-192" type="curve" smooth="yes"/>
      <point x="114.387" y="-192"/>
      <point x="80.0372" y="-183.2"/>
      <point x="57.125" y="-170" type="curve"/>
      <point x="50.8827" y="-187.503" type="line"/>
      <point x="74.2441" y="-201.001"/>
      <point x="111.891" y="-210"/>
      <point x="145" y="-210" type="curve" smooth="yes"/>
      <point x="200.2" y="-210"/>
      <point x="237" y="-177.2"/>
      <point x="237" y="-128" type="curve" smooth="yes"/>
      <point x="237" y="-82.4"/>
      <point x="204.911" y="-54"/>
      <point x="156.776" y="-54" type="curve" smooth="yes"/>
      <point x="134.761" y="-54"/>
      <point x="114.743" y="-60.2937"/>
      <point x="103.92" y="-69.7343" type="curve"/>
      <point x="111.381" y="-73.2001" type="line"/>
      <point x="139" y="10" type="line"/>
      <point x="119" y="10" type="line"/>
    </contour>
  </outline>
  <guideline angle="0" x="0" y="-53"/>
  <guideline angle="0" x="0" y="-67"/>
  <guideline angle="251.03" x="119" y="10"/>
</glyph>
<glyph name="Eth" format="2">
  <advance width="719"/>
  <unicode hex="00D0"/>
  <outline>
    <component base="D" xOffset="11"/>
    <contour>
      <point x="0" y="372" type="line"/>
      <point x="0" y="352" type="line"/>
      <point x="351" y="352" type="line"/>
      <point x="351" y="372" type="line"/>
    </contour>
  </outline>
</glyph>
<glyph name="Thorn" format="2">
  <advance width="552"/>
  <unicode hex="00DE"/>
  <outline>
    <contour>
      <point x="76.8034" y="172" type="line"/>
      <point x="194.803" y="172" type="line" smooth="yes"/>
      <point x="397.24" y="172"/>
      <point x="474.009" y="229.13"/>
      <point x="473.802" y="381.266" type="curve" smooth="yes"/>
      <point x="473.596" y="531.842"/>
      <point x="398.24" y="588"/>
      <point x="194.803" y="588" type="curve" smooth="yes"/>
      <point x="76.8034" y="588" type="line"/>
      <point x="76.8034" y="568" type="line"/>
      <point x="197.803" y="568" type="line" smooth="yes"/>
      <point x="381.818" y="568"/>
      <point x="452.075" y="516.093"/>
      <point x="451.856" y="379" type="curve" smooth="yes"/>
      <point x="451.637" y="242.655"/>
      <point x="383.142" y="192"/>
      <point x="197.803" y="192" type="curve" smooth="yes"/>
      <point x="76.8033" y="192" type="line"/>
    </contour>
    <contour>
      <point x="70" y="0" type="line"/>
      <point x="91.8034" y="0" type="line"/>
      <point x="91.8034" y="723" type="line"/>
      <point x="70" y="723" type="line"/>
    </contour>
  </outline>
</glyph>
<glyph name="ae" format="2">
  <advance width="905"/>
  <unicode hex="00E6"/>
  <outline>
    <contour>
      <point x="59" y="131.662" type="curve" smooth="yes"/>
      <point x="59" y="48"/>
      <point x="121.595" y="-10"/>
      <point x="217" y="-10" type="curve" smooth="yes"/>
      <point x="338.466" y="-10"/>
      <point x="427.728" y="72.927"/>
      <point x="440.154" y="197.317" type="curve"/>
      <point x="429.784" y="198.41" type="line"/>
      <point x="447" y="62.0355"/>
      <point x="526.251" y="-10"/>
      <point x="626.957" y="-10" type="curve" smooth="yes"/>
      <point x="717.105" y="-10"/>
      <point x="795.867" y="56.8"/>
      <point x="807" y="157" type="curve"/>
      <point x="787.035" y="157" type="line"/>
      <point x="777.994" y="68.8"/>
      <point x="711.506" y="10"/>
      <point x="628.843" y="10" type="curve" smooth="yes"/>
      <point x="520.267" y="10"/>
      <point x="449" y="95.4624"/>
      <point x="449" y="263.614" type="curve" smooth="yes"/>
      <point x="449" y="404"/>
      <point x="516.607" y="492"/>
      <point x="617.023" y="492" type="curve" smooth="yes"/>
      <point x="722.41" y="492"/>
      <point x="793" y="429"/>
      <point x="793" y="283" type="curve"/>
      <point x="440.2" y="283" type="line"/>
      <point x="440.2" y="263" type="line"/>
      <point x="815" y="263" type="line"/>
      <point x="815" y="280" type="line" smooth="yes"/>
      <point x="815" y="420"/>
      <point x="750.249" y="512"/>
      <point x="624.428" y="512" type="curve" smooth="yes"/>
      <point x="537.053" y="512"/>
      <point x="455.677" y="467.633"/>
      <point x="433.972" y="322.155" type="curve"/>
      <point x="443.072" y="326.827" type="line"/>
      <point x="436.375" y="462.871"/>
      <point x="350.518" y="512"/>
      <point x="250.187" y="512" type="curve" smooth="yes"/>
      <point x="145" y="512"/>
      <point x="86" y="458"/>
      <point x="86" y="376" type="curve"/>
      <point x="106" y="376" type="line"/>
      <point x="106" y="446"/>
      <point x="155.52" y="492"/>
      <point x="253.632" y="492" type="curve" smooth="yes"/>
      <point x="379.511" y="492"/>
      <point x="427" y="416.582"/>
      <point x="427" y="276" type="curve" smooth="yes"/>
      <point x="427" y="250" type="line" smooth="yes"/>
      <point x="427" y="106"/>
      <point x="343.352" y="10"/>
      <point x="217.879" y="10" type="curve" smooth="yes"/>
      <point x="136" y="10"/>
      <point x="79" y="62.0202"/>
      <point x="79" y="133.629" type="curve" smooth="yes"/>
      <point x="79" y="217"/>
      <point x="156.265" y="269"/>
      <point x="271" y="269" type="curve" smooth="yes"/>
      <point x="322" y="269"/>
      <point x="413.992" y="264.927"/>
      <point x="435.8" y="262" type="curve"/>
      <point x="435.8" y="282" type="line"/>
      <point x="398" y="286"/>
      <point x="298.52" y="289"/>
      <point x="270.11" y="289" type="curve" smooth="yes"/>
      <point x="142" y="289"/>
      <point x="59" y="228"/>
    </contour>
  </outline>
</glyph>
<glyph name="divide" format="2">
  <advance width="1000"/>
  <unicode hex="00F7"/>
  <outline>
    <contour>
      <point x="800" y="290" type="line"/>
      <point x="800" y="310" type="line"/>
      <point x="200" y="310" type="line"/>
      <point x="200" y="290" type="line"/>
    </contour>
    <contour>
      <point x="489.088" y="77.7445" type="line"/>
      <point x="511.088" y="77.7445" type="line"/>
      <point x="511.088" y="200.745" type="line"/>
      <point x="489.088" y="200.745" type="line"/>
    </contour>
    <contour>
      <point x="489.088" y="398.738" type="line"/>
      <point x="511.088" y="398.738" type="line"/>
      <point x="511.088" y="521.738" type="line"/>
      <point x="489.088" y="521.738" type="line"/>
    </contour>
  </outline>
</glyph>
<glyph name="dotlessi" format="2">
  <advance width="220"/>
  <unicode hex="0131"/>
  <anchor x="110" y="580" name="top"/>
  <anchor x="120" y="0" name="ogonekLC"/>
  <outline>
    <contour>
      <point x="120" y="0" type="line"/>
      <point x="120" y="500" type="line"/>
      <point x="100" y="500" type="line"/>
      <point x="100" y="0" type="line"/>
    </contour>
  </outline>
  <guideline angle="90" x="110" y="0"/>
  <guideline angle="90" x="100" y="0"/>
  <guideline angle="90" x="120" y="0"/>
  <guideline angle="0" x="0" y="580"/>
</glyph>
<glyph name="kgreenlandic" format="2">
  <advance width="459"/>
  <unicode hex="0138"/>
  <outline>
    <contour>
      <point x="120" y="0" type="line"/>
      <point x="120" y="500" type="line"/>
      <point x="100" y="492.989" type="line"/>
      <point x="100" y="0" type="line"/>
    </contour>
    <contour>
      <point x="419" y="0" type="line"/>
      <point x="142.226" y="287.753" type="line"/>
      <point x="142.411" y="272.384" type="line"/>
      <point x="393" y="500" type="line"/>
      <point x="360" y="500" type="line"/>
      <point x="119.711" y="280.736" type="line"/>
      <point x="390" y="0" type="line"/>
    </contour>
  </outline>
  <guideline angle="198.435" x="155" y="511.667"/>
</glyph>
<glyph name="Lslash" format="2">
  <advance width="602"/>
  <unicode hex="0141"/>
  <outline>
    <component base="L" xOffset="107"/>
    <contour>
      <point x="209" y="291.855" type="line"/>
      <point x="315" y="395.984" type="line"/>
      <point x="315" y="425.797" type="line"/>
      <point x="209" y="319.797" type="line"/>
    </contour>
    <contour>
      <point x="186.644" y="298.379" type="line"/>
      <point x="80.6435" y="193.285" type="line"/>
      <point x="80.6435" y="166.472" type="line"/>
      <point x="187" y="270.231" type="line"/>
    </contour>
  </outline>
</glyph>
<glyph name="eng" format="2">
  <advance width="575"/>
  <unicode hex="014B"/>
  <outline>
    <component base="n"/>
    <contour>
      <point x="251.761" y="-143" type="line"/>
      <point x="274.82" y="-178.697"/>
      <point x="313.943" y="-200"/>
      <point x="356.44" y="-200" type="curve" smooth="yes"/>
      <point x="439.881" y="-200"/>
      <point x="484.853" y="-150.956"/>
      <point x="484.853" y="-62" type="curve" smooth="yes"/>
      <point x="484.853" y="50" type="line"/>
      <point x="465" y="50" type="line"/>
      <point x="465" y="-62" type="line" smooth="yes"/>
      <point x="465" y="-140.802"/>
      <point x="427.716" y="-180.054"/>
      <point x="355.372" y="-180.054" type="curve" smooth="yes"/>
      <point x="319.837" y="-180.054"/>
      <point x="292.295" y="-165.455"/>
      <point x="265.613" y="-129.387" type="curve"/>
    </contour>
  </outline>
  <guideline angle="90" x="485" y="0"/>
  <guideline angle="90" x="465" y="0"/>
  <guideline angle="0" x="0" y="-200"/>
  <guideline angle="0" x="0" y="-180"/>
  <guideline angle="45" x="252" y="-143"/>
</glyph>
<glyph name="longs" format="2">
  <advance width="280"/>
  <unicode hex="017F"/>
  <outline>
    <contour>
      <point x="110" y="0" type="line"/>
      <point x="130" y="0" type="line"/>
      <point x="130" y="620.98" type="line" smooth="yes"/>
      <point x="130" y="682.944"/>
      <point x="148.197" y="711.926"/>
      <point x="201.763" y="711.926" type="curve" smooth="yes"/>
      <point x="219.525" y="711.926"/>
      <point x="241.515" y="709.179"/>
      <point x="261" y="701.98" type="curve"/>
      <point x="261" y="722" type="line"/>
      <point x="238.955" y="729.348"/>
      <point x="223.045" y="732"/>
      <point x="192.024" y="732" type="curve" smooth="yes"/>
      <point x="137.751" y="732"/>
      <point x="110" y="692.469"/>
      <point x="110" y="622.98" type="curve" smooth="yes"/>
    </contour>
    <contour>
      <point x="10" y="480" type="line"/>
      <point x="120" y="480" type="line"/>
      <point x="120" y="500" type="line"/>
      <point x="10" y="500" type="line"/>
    </contour>
  </outline>
</glyph>
<glyph name="florin" format="2">
  <advance width="503"/>
  <unicode hex="0192"/>
  <outline>
    <contour>
      <point x="115.138" y="-92.0962" type="line" smooth="yes"/>
      <point x="95.5821" y="-164.687"/>
      <point x="59.231" y="-194"/>
      <point x="-8.23377" y="-194" type="curve" smooth="yes"/>
      <point x="-31" y="-194"/>
      <point x="-57.9683" y="-185.381"/>
      <point x="-66.9683" y="-176.381" type="curve"/>
      <point x="-73" y="-199" type="line"/>
      <point x="-57" y="-208"/>
      <point x="-30.7774" y="-212"/>
      <point x="-11.7774" y="-212" type="curve" smooth="yes"/>
      <point x="70.7666" y="-212"/>
      <point x="112.165" y="-185.547"/>
      <point x="139.548" y="-83.5375" type="curve" smooth="yes"/>
      <point x="300.256" y="515.128" type="line" smooth="yes"/>
      <point x="338.212" y="656.524"/>
      <point x="385" y="714"/>
      <point x="447" y="714" type="curve" smooth="yes"/>
      <point x="470" y="714"/>
      <point x="504.067" y="709.454"/>
      <point x="517.067" y="701.505" type="curve"/>
      <point x="521.933" y="718.314" type="line"/>
      <point x="500.417" y="728.487"/>
      <point x="477.704" y="732"/>
      <point x="454" y="732" type="curve" smooth="yes"/>
      <point x="373.389" y="732"/>
      <point x="323.819" y="682.497"/>
      <point x="284.849" y="537.847" type="curve" smooth="yes"/>
    </contour>
    <contour>
      <point x="144" y="499.846" type="line"/>
      <point x="138.77" y="479.846" type="line"/>
      <point x="447.77" y="479.846" type="line"/>
      <point x="453" y="499.846" type="line"/>
    </contour>
  </outline>
  <guideline angle="74.9736" x="160.9" y="-4"/>
  <guideline angle="254.922" x="257.142" y="435"/>
  <guideline angle="255.343" x="109.631" y="500"/>
  <guideline angle="0" x="0" y="500"/>
  <guideline angle="73.8557" x="501" y="646"/>
</glyph>
<glyph name="uni019E" format="2">
  <advance width="608"/>
  <unicode hex="019E"/>
  <outline>
    <contour>
      <point x="120" y="0" type="line"/>
      <point x="120" y="500" type="line"/>
      <point x="100" y="500" type="line"/>
      <point x="100" y="0" type="line"/>
    </contour>
    <contour>
      <point x="110" y="376.185" type="line"/>
      <point x="120" y="376" type="line"/>
      <point x="129.434" y="441.097"/>
      <point x="215.865" y="490"/>
      <point x="289.535" y="490" type="curve" smooth="yes"/>
      <point x="399.198" y="490"/>
      <point x="465" y="431.284"/>
      <point x="465" y="315.893" type="curve" smooth="yes"/>
      <point x="465" y="0" type="line"/>
      <point x="485" y="0" type="line"/>
      <point x="485" y="312" type="line" smooth="yes"/>
      <point x="485" y="441.495"/>
      <point x="412.03" y="510"/>
      <point x="293" y="510" type="curve" smooth="yes"/>
      <point x="228.947" y="510"/>
      <point x="150.75" y="474.346"/>
      <point x="120" y="420" type="curve" smooth="yes"/>
      <point x="110" y="402.327" type="line"/>
    </contour>
    <contour>
      <point x="485" y="100" type="line"/>
      <point x="465" y="100" type="line"/>
      <point x="465" y="-200" type="line"/>
      <point x="485" y="-200" type="line"/>
    </contour>
  </outline>
</glyph>
<glyph name="Obar" format="2">
  <advance width="756"/>
  <unicode hex="019F"/>
  <anchor x="365" y="797" name="top"/>
  <outline>
    <component base="O"/>
    <contour>
      <point x="94" y="349" type="line"/>
      <point x="663" y="349" type="line"/>
      <point x="663" y="369" type="line"/>
      <point x="94" y="369" type="line"/>
    </contour>
  </outline>
</glyph>
<glyph name="uni0255" format="2">
  <advance width="555"/>
  <unicode hex="0255"/>
  <outline>
    <contour>
      <point x="298.771" y="-10" type="curve" smooth="yes"/>
      <point x="429.383" y="-10"/>
      <point x="505" y="51.2447"/>
      <point x="505" y="127.186" type="curve" smooth="yes"/>
      <point x="505" y="191.049"/>
      <point x="451.522" y="234"/>
      <point x="381.789" y="234" type="curve" smooth="yes"/>
      <point x="249.191" y="234"/>
      <point x="115.603" y="79.2874"/>
      <point x="60.9895" y="-133" type="curve"/>
      <point x="80.9895" y="-140" type="line"/>
      <point x="127.74" y="52.6551"/>
      <point x="249.827" y="214.157"/>
      <point x="382.692" y="214.157" type="curve" smooth="yes"/>
      <point x="447.639" y="214.157"/>
      <point x="484.627" y="175.568"/>
      <point x="484.627" y="126.501" type="curve" smooth="yes"/>
      <point x="484.627" y="58.1446"/>
      <point x="412.838" y="10"/>
      <point x="311.599" y="10" type="curve" smooth="yes"/>
      <point x="155.12" y="10"/>
      <point x="79.9623" y="85.1211"/>
      <point x="79.9623" y="237.693" type="curve" smooth="yes"/>
      <point x="79.9623" y="393.271"/>
      <point x="158.11" y="490.494"/>
      <point x="288.437" y="490.494" type="curve" smooth="yes"/>
      <point x="388.036" y="490.494"/>
      <point x="455.751" y="433.713"/>
      <point x="464.256" y="341" type="curve"/>
      <point x="484" y="341" type="line"/>
      <point x="476.153" y="450.863"/>
      <point x="396.266" y="510"/>
      <point x="287.365" y="510" type="curve" smooth="yes"/>
      <point x="138.168" y="510"/>
      <point x="60" y="399"/>
      <point x="60" y="240.813" type="curve" smooth="yes"/>
      <point x="60" y="82.8245"/>
      <point x="137.973" y="-10"/>
    </contour>
  </outline>
  <guideline angle="341.222" x="61" y="-133"/>
</glyph>
<glyph name="uni025F" format="2">
  <advance width="317"/>
  <unicode hex="025F"/>
  <outline>
    <contour>
      <point x="-28" y="-147" type="line"/>
      <point x="8" y="-185"/>
      <point x="45" y="-200"/>
      <point x="86" y="-200" type="curve" smooth="yes"/>
      <point x="145" y="-200"/>
      <point x="182" y="-167"/>
      <point x="182" y="-116" type="curve" smooth="yes"/>
      <point x="182" y="500" type="line"/>
      <point x="162" y="500" type="line"/>
      <point x="162" y="-106" type="line" smooth="yes"/>
      <point x="162" y="-153"/>
      <point x="136" y="-182"/>
      <point x="86" y="-182" type="curve" smooth="yes"/>
      <point x="51" y="-182"/>
      <point x="17" y="-168"/>
      <point x="-13" y="-132" type="curve"/>
    </contour>
    <contour>
      <point x="37" y="241" type="line"/>
      <point x="307" y="241" type="line"/>
      <point x="307" y="259" type="line"/>
      <point x="37" y="259" type="line"/>
    </contour>
  </outline>
  <guideline angle="225" x="29" y="-90"/>
</glyph>
<glyph name="uni0262" format="2">
  <advance width="562"/>
  <unicode hex="0262"/>
  <outline>
    <contour>
      <point x="80" y="256.261" type="curve" smooth="yes"/>
      <point x="80" y="71.5913"/>
      <point x="154.487" y="-9.9986"/>
      <point x="320.806" y="-9.9986" type="curve" smooth="yes"/>
      <point x="381.59" y="-9.9986"/>
      <point x="426.269" y="1.18003"/>
      <point x="481.464" y="24.9346" type="curve"/>
      <point x="481.464" y="244.521" type="line"/>
      <point x="321.725" y="244.521" type="line"/>
      <point x="321.725" y="226.584" type="line"/>
      <point x="461.586" y="226.584" type="line"/>
      <point x="461.586" y="34.7375" type="line"/>
      <point x="419.421" y="13.7067"/>
      <point x="360.043" y="8.48389"/>
      <point x="318.123" y="8.48389" type="curve" smooth="yes"/>
      <point x="167.383" y="8.48389"/>
      <point x="99.9917" y="86.7683"/>
      <point x="99.9917" y="254.865" type="curve" smooth="yes"/>
      <point x="99.9917" y="401.506"/>
      <point x="162.36" y="492.179"/>
      <point x="305.406" y="492.055" type="curve" smooth="yes"/>
      <point x="395.378" y="491.976"/>
      <point x="455" y="434.324"/>
      <point x="455.023" y="364.459" type="curve"/>
      <point x="474.926" y="364.459" type="line"/>
      <point x="474.926" y="442.011"/>
      <point x="414.027" y="510"/>
      <point x="305.036" y="510" type="curve" smooth="yes"/>
      <point x="141.934" y="510"/>
      <point x="80" y="406.444"/>
    </contour>
  </outline>
</glyph>
<glyph name="uni0264" format="2">
  <advance width="579"/>
  <unicode hex="0264"/>
  <outline>
    <contour>
      <point x="194.085" y="79.2789" type="curve" smooth="yes"/>
      <point x="194.085" y="19.6238"/>
      <point x="224.499" y="-12"/>
      <point x="282.163" y="-12" type="curve" smooth="yes"/>
      <point x="340.339" y="-12"/>
      <point x="365.894" y="35.0646"/>
      <point x="365.894" y="79.4971" type="curve" smooth="yes"/>
      <point x="365.894" y="144.443"/>
      <point x="345.677" y="197.764"/>
      <point x="296.618" y="280.977" type="curve"/>
      <point x="286.454" y="260.082" type="line"/>
      <point x="331.055" y="181.584"/>
      <point x="346.086" y="137.477"/>
      <point x="346.086" y="85.9955" type="curve" smooth="yes"/>
      <point x="346.086" y="33.7749"/>
      <point x="318.229" y="6"/>
      <point x="283.532" y="6" type="curve" smooth="yes"/>
      <point x="237.01" y="6"/>
      <point x="213.877" y="27.8649"/>
      <point x="213.877" y="81.8672" type="curve" smooth="yes"/>
      <point x="213.877" y="115.142"/>
      <point x="247.345" y="197.263"/>
      <point x="277.881" y="247.106" type="curve" smooth="yes"/>
      <point x="323.574" y="321.69" type="line" smooth="yes"/>
      <point x="379.348" y="412.729"/>
      <point x="455.384" y="489.979"/>
      <point x="492.967" y="489.979" type="curve" smooth="yes"/>
      <point x="503.72" y="489.979"/>
      <point x="525.654" y="442.383"/>
      <point x="531.87" y="436.504" type="curve" smooth="yes"/>
      <point x="536.164" y="432.442"/>
      <point x="543.459" y="427.904"/>
      <point x="549.696" y="427.904" type="curve" smooth="yes"/>
      <point x="556.531" y="427.904"/>
      <point x="561.531" y="433.934"/>
      <point x="561.531" y="443.514" type="curve" smooth="yes"/>
      <point x="561.531" y="471.51"/>
      <point x="527.299" y="510"/>
      <point x="488.012" y="510" type="curve" smooth="yes"/>
      <point x="431.827" y="510"/>
      <point x="353.11" y="414.203"/>
      <point x="295.57" y="315.285" type="curve" smooth="yes"/>
      <point x="261.232" y="256.253" type="line" smooth="yes"/>
      <point x="219.189" y="183.976"/>
      <point x="194.085" y="112.699"/>
    </contour>
    <contour>
      <point x="288.594" y="283.392" type="line"/>
      <point x="201.557" y="422.84"/>
      <point x="132.684" y="510.156"/>
      <point x="81.5838" y="510.156" type="curve" smooth="yes"/>
      <point x="42.6089" y="510.156"/>
      <point x="11.5315" y="471.31"/>
      <point x="11.5315" y="442.105" type="curve" smooth="yes"/>
      <point x="11.5315" y="432.929"/>
      <point x="15.5315" y="427.904"/>
      <point x="22.6517" y="427.904" type="curve" smooth="yes"/>
      <point x="28.8905" y="427.904"/>
      <point x="33.5972" y="430.692"/>
      <point x="38.212" y="434.357" type="curve" smooth="yes"/>
      <point x="47.2589" y="441.542"/>
      <point x="69.6148" y="490"/>
      <point x="80.7213" y="490" type="curve" smooth="yes"/>
      <point x="104.019" y="490"/>
      <point x="153.801" y="447.743"/>
      <point x="191.653" y="391.325" type="curve" smooth="yes"/>
      <point x="276.068" y="265.502" type="line"/>
    </contour>
  </outline>
</glyph>
<glyph name="uni0265" format="2">
  <advance width="593"/>
  <unicode hex="0265"/>
  <outline>
    <contour>
      <point x="464" y="-200" type="line"/>
      <point x="484" y="-200" type="line"/>
      <point x="484" y="0" type="line"/>
      <point x="464" y="0" type="line"/>
    </contour>
    <contour>
      <point x="100" y="174" type="line" smooth="yes"/>
      <point x="100" y="53.0055"/>
      <point x="161.889" y="-10"/>
      <point x="280.911" y="-10" type="curve" smooth="yes"/>
      <point x="363.882" y="-10"/>
      <point x="435.638" y="48.5288"/>
      <point x="463.886" y="119" type="curve" smooth="yes"/>
      <point x="473.886" y="143.947" type="line"/>
      <point x="473.886" y="193.745" type="line"/>
      <point x="463.886" y="194.284" type="line"/>
      <point x="463.995" y="96.8939"/>
      <point x="369.625" y="9.98976"/>
      <point x="285.769" y="9.98976" type="curve" smooth="yes"/>
      <point x="173.62" y="9.98976"/>
      <point x="120" y="62.5888"/>
      <point x="120" y="172" type="curve" smooth="yes"/>
      <point x="120" y="500" type="line"/>
      <point x="100" y="500" type="line"/>
    </contour>
    <contour>
      <point x="484" y="0" type="line"/>
      <point x="484" y="500" type="line"/>
      <point x="464" y="500" type="line"/>
      <point x="464" y="0" type="line"/>
    </contour>
  </outline>
</glyph>
<glyph name="uni0266" format="2">
  <advance width="573"/>
  <unicode hex="0266"/>
  <outline>
    <contour>
      <point x="100" y="380" type="line"/>
      <point x="120" y="380" type="line"/>
      <point x="120" y="540.215" type="line" smooth="yes"/>
      <point x="120" y="649.294"/>
      <point x="183.88" y="712"/>
      <point x="303.193" y="712" type="curve" smooth="yes"/>
      <point x="359.277" y="712"/>
      <point x="403.923" y="698.145"/>
      <point x="435.754" y="668.318" type="curve"/>
      <point x="451" y="683" type="line"/>
      <point x="414.916" y="716.352"/>
      <point x="365.098" y="732"/>
      <point x="304.593" y="732" type="curve" smooth="yes"/>
      <point x="175.216" y="732"/>
      <point x="100" y="660.453"/>
      <point x="100" y="545" type="curve" smooth="yes"/>
    </contour>
    <contour>
      <point x="110" y="376" type="line"/>
      <point x="120" y="376" type="line"/>
      <point x="128" y="436"/>
      <point x="209" y="492"/>
      <point x="296" y="492" type="curve" smooth="yes"/>
      <point x="395" y="492"/>
      <point x="465" y="422.22"/>
      <point x="465" y="320" type="curve" smooth="yes"/>
      <point x="465" y="0" type="line"/>
      <point x="485" y="0" type="line"/>
      <point x="485" y="324" type="line" smooth="yes"/>
      <point x="485" y="431"/>
      <point x="411" y="510"/>
      <point x="298" y="510" type="curve" smooth="yes"/>
      <point x="221" y="510"/>
      <point x="153" y="474"/>
      <point x="122" y="420" type="curve"/>
      <point x="110" y="420" type="line"/>
    </contour>
    <contour>
      <point x="120" y="0" type="line"/>
      <point x="120" y="500" type="line"/>
      <point x="100" y="500" type="line"/>
      <point x="100" y="0" type="line"/>
    </contour>
  </outline>
</glyph>
<glyph name="uni026C" format="2">
  <advance width="522"/>
  <unicode hex="026C"/>
  <outline>
    <component base="l" xOffset="145"/>
    <contour>
      <point x="248.442" y="316.307" type="line"/>
      <point x="155.504" y="316.017"/>
      <point x="62.3" y="343.204"/>
      <point x="62.3" y="416.216" type="curve" smooth="yes"/>
      <point x="62.3" y="465.06"/>
      <point x="98.9056" y="499"/>
      <point x="155.248" y="499" type="curve" smooth="yes"/>
      <point x="178.773" y="499"/>
      <point x="208.376" y="492.996"/>
      <point x="251.677" y="476.507" type="curve"/>
      <point x="251.151" y="495.928" type="line"/>
      <point x="225.389" y="508.548"/>
      <point x="181.501" y="517"/>
      <point x="154.27" y="517" type="curve" smooth="yes"/>
      <point x="86.3436" y="517"/>
      <point x="42.3" y="477.091"/>
      <point x="42.3" y="415.54" type="curve" smooth="yes"/>
      <point x="42.3" y="329.706"/>
      <point x="129.052" y="304.357"/>
      <point x="247.86" y="296.836" type="curve"/>
    </contour>
    <contour>
      <point x="261.903" y="297.532" type="line"/>
      <point x="323.279" y="298.026"/>
      <point x="385.323" y="326.311"/>
      <point x="417.756" y="358.888" type="curve"/>
      <point x="405.018" y="372.297" type="line"/>
      <point x="377.34" y="343.204"/>
      <point x="317.423" y="315.969"/>
      <point x="261.583" y="316.477" type="curve"/>
    </contour>
  </outline>
</glyph>
<glyph name="uni0270" format="2">
  <advance width="876"/>
  <unicode hex="0270"/>
  <outline>
    <contour>
      <point x="756" y="-197" type="line"/>
      <point x="776" y="-197" type="line"/>
      <point x="776" y="0" type="line"/>
      <point x="756" y="0" type="line"/>
    </contour>
    <contour>
      <point x="441" y="193.126" type="curve" smooth="yes"/>
      <point x="441" y="500" type="line"/>
      <point x="421" y="500" type="line"/>
      <point x="421" y="194" type="line" smooth="yes"/>
      <point x="421" y="96.2968"/>
      <point x="342.582" y="10"/>
      <point x="253.799" y="10" type="curve" smooth="yes"/>
      <point x="147.053" y="10"/>
      <point x="110" y="51.4652"/>
      <point x="110" y="194" type="curve" smooth="yes"/>
      <point x="110" y="500" type="line"/>
      <point x="90" y="500" type="line"/>
      <point x="90" y="194" type="line" smooth="yes"/>
      <point x="90" y="44.1033"/>
      <point x="132.575" y="-10"/>
      <point x="250.531" y="-10" type="curve" smooth="yes"/>
      <point x="326.821" y="-10"/>
      <point x="400.915" y="48.9177"/>
      <point x="424.789" y="130" type="curve"/>
      <point x="444.462" y="36.2684"/>
      <point x="497.91" y="-10"/>
      <point x="587.019" y="-10" type="curve" smooth="yes"/>
      <point x="655.874" y="-10"/>
      <point x="732.405" y="52.7004"/>
      <point x="760" y="144.401" type="curve"/>
      <point x="760" y="194.204" type="line"/>
      <point x="756" y="194" type="line"/>
      <point x="756" y="103.759"/>
      <point x="665.779" y="10"/>
      <point x="589.989" y="10" type="curve" smooth="yes"/>
      <point x="492.212" y="10"/>
      <point x="441" y="72.9465"/>
    </contour>
    <contour>
      <point x="756" y="168.489" type="line"/>
      <point x="756" y="-0.181702" type="line"/>
      <point x="776" y="-0.181702" type="line"/>
      <point x="776" y="95" type="line"/>
    </contour>
    <contour>
      <point x="776" y="95" type="line"/>
      <point x="776" y="500" type="line"/>
      <point x="756" y="500" type="line"/>
      <point x="756.055" y="170.387" type="line"/>
    </contour>
  </outline>
</glyph>
<glyph name="uni0272" format="2">
  <advance width="619"/>
  <unicode hex="0272"/>
  <outline>
    <component base="n" xOffset="-20"/>
    <contour>
      <point x="-35" y="-181.843" type="line"/>
      <point x="-35" y="-199.862" type="line"/>
      <point x="13.8925" y="-199.862" type="line" smooth="yes"/>
      <point x="68.7031" y="-199.862"/>
      <point x="100" y="-171.935"/>
      <point x="100" y="-122" type="curve" smooth="yes"/>
      <point x="100" y="50" type="line"/>
      <point x="80" y="50" type="line"/>
      <point x="80" y="-122" type="line" smooth="yes"/>
      <point x="80" y="-163.47"/>
      <point x="60.3213" y="-181.843"/>
      <point x="14.5077" y="-181.843" type="curve" smooth="yes"/>
    </contour>
  </outline>
</glyph>
<glyph name="uni0273" format="2">
  <advance width="620"/>
  <unicode hex="0273"/>
  <outline>
    <contour>
      <point x="600" y="-181.843" type="line"/>
      <point x="550.492" y="-181.843" type="line" smooth="yes"/>
      <point x="504.679" y="-181.843"/>
      <point x="485" y="-163.47"/>
      <point x="485" y="-122" type="curve" smooth="yes"/>
      <point x="485" y="50" type="line"/>
      <point x="465" y="50" type="line"/>
      <point x="465" y="-122" type="line" smooth="yes"/>
      <point x="465" y="-171.935"/>
      <point x="496.297" y="-199.862"/>
      <point x="551.107" y="-199.862" type="curve" smooth="yes"/>
      <point x="600" y="-199.862" type="line"/>
    </contour>
    <contour>
      <point x="110" y="376" type="line"/>
      <point x="120" y="376" type="line"/>
      <point x="128" y="436"/>
      <point x="209" y="492"/>
      <point x="296" y="492" type="curve" smooth="yes"/>
      <point x="395" y="492"/>
      <point x="465" y="422.22"/>
      <point x="465" y="320" type="curve" smooth="yes"/>
      <point x="465" y="0" type="line"/>
      <point x="485" y="0" type="line"/>
      <point x="485" y="324" type="line" smooth="yes"/>
      <point x="485" y="431"/>
      <point x="411" y="510"/>
      <point x="298" y="510" type="curve" smooth="yes"/>
      <point x="221" y="510"/>
      <point x="153" y="474"/>
      <point x="122" y="420" type="curve"/>
      <point x="110" y="420" type="line"/>
    </contour>
    <contour>
      <point x="120" y="0" type="line"/>
      <point x="120" y="500" type="line"/>
      <point x="100" y="500" type="line"/>
      <point x="100" y="0" type="line"/>
    </contour>
  </outline>
</glyph>
<glyph name="uni0274" format="2">
  <advance width="553"/>
  <unicode hex="0274"/>
  <outline>
    <contour>
      <point x="100.5" y="0" type="line"/>
      <point x="120.5" y="0" type="line"/>
      <point x="120.5" y="466" type="line"/>
      <point x="443.03" y="0" type="line"/>
      <point x="462.88" y="0" type="line"/>
      <point x="462.5" y="500" type="line"/>
      <point x="442.5" y="500" type="line"/>
      <point x="442.5" y="34" type="line"/>
      <point x="120.971" y="500" type="line"/>
      <point x="100.875" y="500" type="line"/>
    </contour>
  </outline>
</glyph>
<glyph name="uni0278" format="2">
  <advance width="652"/>
  <unicode hex="0278"/>
  <outline>
    <contour>
      <point x="336" y="722" type="line"/>
      <point x="316" y="722" type="line"/>
      <point x="316" y="-200" type="line"/>
      <point x="336" y="-200" type="line"/>
    </contour>
    <contour>
      <point x="321.852" y="7.52399" type="line"/>
      <point x="197.052" y="24.1261"/>
      <point x="100" y="112.265"/>
      <point x="100" y="247" type="curve" smooth="yes"/>
      <point x="100" y="387.795"/>
      <point x="192.023" y="475.86"/>
      <point x="321.852" y="494.476" type="curve"/>
      <point x="321.852" y="512.416" type="line"/>
      <point x="191.174" y="504.272"/>
      <point x="80" y="400.992"/>
      <point x="80" y="250" type="curve" smooth="yes"/>
      <point x="80" y="100.038"/>
      <point x="189.938" y="-2.28924"/>
      <point x="321.852" y="-10.4178" type="curve"/>
    </contour>
    <contour>
      <point x="572" y="250" type="curve" smooth="yes"/>
      <point x="572" y="400.992"/>
      <point x="460.86" y="504.272"/>
      <point x="330.182" y="512.416" type="curve"/>
      <point x="330.182" y="494.495" type="line"/>
      <point x="454.984" y="476.861"/>
      <point x="552" y="389.744"/>
      <point x="552" y="248" type="curve" smooth="yes"/>
      <point x="552" y="110.287"/>
      <point x="453.958" y="24.1285"/>
      <point x="330.182" y="7.524" type="curve"/>
      <point x="330.182" y="-10.4379" type="line"/>
      <point x="463.635" y="-1.83006"/>
      <point x="572" y="96.7728"/>
    </contour>
  </outline>
</glyph>
<glyph name="uni0279" format="2">
  <advance width="312"/>
  <unicode hex="0279"/>
  <outline>
    <contour>
      <point x="202" y="500" type="line"/>
      <point x="202" y="160" type="line" smooth="yes"/>
      <point x="202" y="67"/>
      <point x="141" y="20"/>
      <point x="20" y="20" type="curve"/>
      <point x="20" y="0" type="line"/>
      <point x="140" y="0"/>
      <point x="174" y="19"/>
      <point x="202" y="68" type="curve"/>
      <point x="202" y="0" type="line"/>
      <point x="222" y="0" type="line"/>
      <point x="222" y="500" type="line"/>
    </contour>
  </outline>
</glyph>
<glyph name="uni027B" format="2">
  <advance width="409"/>
  <unicode hex="027B"/>
  <outline>
    <component base="uni0279"/>
    <contour>
      <point x="337" y="-181.843" type="line"/>
      <point x="287.492" y="-181.843" type="line" smooth="yes"/>
      <point x="241.679" y="-181.843"/>
      <point x="222" y="-163.47"/>
      <point x="222" y="-122" type="curve" smooth="yes"/>
      <point x="222" y="50" type="line"/>
      <point x="202" y="50" type="line"/>
      <point x="202" y="-122" type="line" smooth="yes"/>
      <point x="202" y="-171.935"/>
      <point x="233.297" y="-199.862"/>
      <point x="288.107" y="-199.862" type="curve" smooth="yes"/>
      <point x="337" y="-199.862" type="line"/>
    </contour>
  </outline>
</glyph>
<glyph name="uni027E" format="2">
  <advance width="492"/>
  <unicode hex="027E"/>
  <outline>
    <contour>
      <point x="100" y="0" type="line"/>
      <point x="120" y="0" type="line"/>
      <point x="120" y="319" type="line" smooth="yes"/>
      <point x="120" y="435.954"/>
      <point x="166.299" y="492"/>
      <point x="281.153" y="492" type="curve" smooth="yes"/>
      <point x="332.156" y="492"/>
      <point x="377.853" y="470.705"/>
      <point x="404.954" y="443.397" type="curve"/>
      <point x="419.591" y="457.156" type="line"/>
      <point x="380.941" y="495.084"/>
      <point x="335.62" y="510"/>
      <point x="282.834" y="510" type="curve" smooth="yes"/>
      <point x="156.173" y="510"/>
      <point x="100" y="450.707"/>
      <point x="100" y="319" type="curve" smooth="yes"/>
    </contour>
  </outline>
  <guideline angle="223.229" x="429" y="466"/>
</glyph>
<glyph name="uni027F" format="2">
  <advance width="511"/>
  <unicode hex="027F"/>
  <outline>
    <contour>
      <point x="400.582" y="-200" type="line"/>
      <point x="420.582" y="-200" type="line"/>
      <point x="420.582" y="319" type="line" smooth="yes"/>
      <point x="420.582" y="450.707"/>
      <point x="364.409" y="510"/>
      <point x="237.748" y="510" type="curve" smooth="yes"/>
      <point x="184.962" y="510"/>
      <point x="139.641" y="495.084"/>
      <point x="100.991" y="457.156" type="curve"/>
      <point x="115.628" y="443.397" type="line"/>
      <point x="142.729" y="470.705"/>
      <point x="188.426" y="492"/>
      <point x="239.429" y="492" type="curve" smooth="yes"/>
      <point x="354.283" y="492"/>
      <point x="400.582" y="435.954"/>
      <point x="400.582" y="319" type="curve" smooth="yes"/>
    </contour>
  </outline>
</glyph>
<glyph name="uni0283" format="2">
  <advance width="365"/>
  <unicode hex="0283"/>
  <outline>
    <contour>
      <point x="23.4988" y="-178.475" type="line"/>
      <point x="41.4988" y="-189.475"/>
      <point x="64" y="-200"/>
      <point x="98.5964" y="-200" type="curve" smooth="yes"/>
      <point x="180.807" y="-200"/>
      <point x="230.658" y="-148.528"/>
      <point x="230.658" y="-43.443" type="curve" smooth="yes"/>
      <point x="230.658" y="3.90366"/>
      <point x="220.609" y="95.7904"/>
      <point x="202.906" y="222.821" type="curve" smooth="yes"/>
      <point x="184.08" y="357.897" type="line" smooth="yes"/>
      <point x="169.443" y="462.927"/>
      <point x="159.642" y="533.975"/>
      <point x="159.642" y="574.126" type="curve" smooth="yes"/>
      <point x="159.642" y="663.466"/>
      <point x="196.229" y="713.798"/>
      <point x="259.958" y="713.798" type="curve" smooth="yes"/>
      <point x="277.958" y="713.798"/>
      <point x="318.746" y="706.17"/>
      <point x="332.746" y="698.17" type="curve"/>
      <point x="342.362" y="714.318" type="line"/>
      <point x="328.362" y="723.318"/>
      <point x="298.643" y="732"/>
      <point x="266.012" y="732" type="curve" smooth="yes"/>
      <point x="188.191" y="732"/>
      <point x="140.082" y="685"/>
      <point x="140.082" y="574.126" type="curve" smooth="yes"/>
      <point x="140.082" y="532.062"/>
      <point x="149.83" y="465.078"/>
      <point x="164.196" y="356.763" type="curve" smooth="yes"/>
      <point x="182.711" y="217.167" type="line" smooth="yes"/>
      <point x="200.824" y="80.6015"/>
      <point x="210.658" y="-12.13"/>
      <point x="210.658" y="-46" type="curve" smooth="yes"/>
      <point x="210.658" y="-133.746"/>
      <point x="171.249" y="-182"/>
      <point x="99.7465" y="-182" type="curve" smooth="yes"/>
      <point x="75.409" y="-182"/>
      <point x="46.303" y="-173.994"/>
      <point x="33.303" y="-162.994" type="curve"/>
    </contour>
    <contour>
      <point x="174.489" y="283.751" type="curve" smooth="yes"/>
      <point x="174.489" y="277.751"/>
      <point x="178.489" y="273.751"/>
      <point x="184.489" y="273.751" type="curve" smooth="yes"/>
      <point x="190.489" y="273.751"/>
      <point x="194.489" y="277.751"/>
      <point x="194.489" y="283.751" type="curve" smooth="yes"/>
      <point x="194.489" y="289.751"/>
      <point x="190.489" y="293.751"/>
      <point x="184.489" y="293.751" type="curve" smooth="yes"/>
      <point x="178.489" y="293.751"/>
      <point x="174.489" y="289.751"/>
    </contour>
  </outline>
  <guideline angle="97.5946" x="181.4" y="227"/>
  <guideline angle="97.5946" x="201.533" y="227"/>
</glyph>
<glyph name="uni0288" format="2">
  <advance width="344"/>
  <unicode hex="0288"/>
  <outline>
    <contour>
      <point x="114" y="-116.205" type="line" smooth="yes"/>
      <point x="114" y="-172.232"/>
      <point x="136.214" y="-200"/>
      <point x="181.467" y="-200" type="curve" smooth="yes"/>
      <point x="199.451" y="-200"/>
      <point x="227.119" y="-196.57"/>
      <point x="244.011" y="-190" type="curve"/>
      <point x="244.011" y="-170" type="line"/>
      <point x="224.011" y="-176"/>
      <point x="203.011" y="-180"/>
      <point x="185.907" y="-180" type="curve" smooth="yes"/>
      <point x="148.946" y="-180"/>
      <point x="134.011" y="-161.319"/>
      <point x="134.011" y="-119.205" type="curve" smooth="yes"/>
      <point x="134.011" y="636" type="line"/>
      <point x="114" y="627.504" type="line"/>
    </contour>
    <contour>
      <point x="119.011" y="480" type="line"/>
      <point x="244.011" y="480" type="line"/>
      <point x="244.011" y="500" type="line"/>
      <point x="119.011" y="500" type="line"/>
    </contour>
    <contour>
      <point x="24" y="480" type="line"/>
      <point x="129" y="480" type="line"/>
      <point x="129" y="500" type="line"/>
      <point x="24" y="500" type="line"/>
    </contour>
  </outline>
</glyph>
<glyph name="uni028F" format="2">
  <advance width="474"/>
  <unicode hex="028F"/>
  <outline>
    <contour>
      <point x="433.211" y="500" type="line"/>
      <point x="409.582" y="500" type="line"/>
      <point x="234.274" y="213.101" type="line"/>
      <point x="242.116" y="213.101" type="line"/>
      <point x="63.7776" y="500" type="line"/>
      <point x="40.4794" y="500" type="line"/>
      <point x="228.5" y="199" type="line"/>
      <point x="228.5" y="0" type="line"/>
      <point x="248.5" y="0" type="line"/>
      <point x="248.5" y="199" type="line"/>
    </contour>
  </outline>
  <guideline angle="238.513" x="410" y="500"/>
  <guideline angle="121.833" x="213" y="260"/>
</glyph>
<glyph name="uni0290" format="2">
  <advance width="530"/>
  <unicode hex="0290"/>
  <outline>
    <component base="z"/>
    <contour>
      <point x="450" y="-84.5255" type="curve" smooth="yes"/>
      <point x="450" y="0.0325623" type="line"/>
      <point x="430" y="0.0325623" type="line"/>
      <point x="430" y="-90.5015" type="line" smooth="yes"/>
      <point x="430" y="-158.103"/>
      <point x="459.432" y="-200"/>
      <point x="538.432" y="-200" type="curve" smooth="yes"/>
      <point x="602.221" y="-200"/>
      <point x="647.007" y="-155.214"/>
      <point x="646.861" y="-88" type="curve"/>
      <point x="626.861" y="-88" type="line"/>
      <point x="626.609" y="-143.326"/>
      <point x="591.049" y="-182"/>
      <point x="538" y="-182" type="curve" smooth="yes"/>
      <point x="480.085" y="-182"/>
      <point x="450" y="-149.757"/>
    </contour>
  </outline>
</glyph>
<glyph name="uni0294" format="2">
  <advance width="489"/>
  <unicode hex="0294"/>
  <outline>
    <contour>
      <point x="190.5" y="0" type="line"/>
      <point x="191.5" y="400.781" type="line"/>
      <point x="309.965" y="410.237"/>
      <point x="373" y="464.714"/>
      <point x="373" y="556" type="curve" smooth="yes"/>
      <point x="373" y="649.115"/>
      <point x="291.725" y="713.202"/>
      <point x="179.332" y="713.202" type="curve" smooth="yes"/>
      <point x="146.363" y="713.202"/>
      <point x="102.772" y="706.724"/>
      <point x="64" y="693.692" type="curve"/>
      <point x="64" y="714" type="line"/>
      <point x="99.8885" y="725.615"/>
      <point x="141.516" y="732"/>
      <point x="181.353" y="732" type="curve" smooth="yes"/>
      <point x="308.881" y="732"/>
      <point x="393" y="659.109"/>
      <point x="393" y="548.601" type="curve" smooth="yes"/>
      <point x="393" y="459.457"/>
      <point x="329.606" y="402.189"/>
      <point x="210.5" y="383.734" type="curve"/>
      <point x="210.5" y="0" type="line"/>
    </contour>
  </outline>
</glyph>
<glyph name="uni0298" format="2">
  <advance width="872"/>
  <unicode hex="0298"/>
  <outline>
    <contour>
      <point x="448.349" y="362.809" type="curve" smooth="yes"/>
      <point x="448.349" y="370.728"/>
      <point x="442.943" y="375.985"/>
      <point x="435" y="375.985" type="curve" smooth="yes"/>
      <point x="427.057" y="375.985"/>
      <point x="421.651" y="370.728"/>
      <point x="421.651" y="362.809" type="curve" smooth="yes"/>
      <point x="421.651" y="354.854"/>
      <point x="427.278" y="348.985"/>
      <point x="435" y="348.985" type="curve" smooth="yes"/>
      <point x="442.917" y="348.985"/>
      <point x="448.348" y="354.855"/>
    </contour>
    <contour>
      <point x="791.5" y="361.161" type="curve" smooth="yes"/>
      <point x="791.5" y="153.518"/>
      <point x="641.482" y="3.49998"/>
      <point x="435" y="3.49998" type="curve" smooth="yes"/>
      <point x="228.518" y="3.49998"/>
      <point x="78.5" y="153.518"/>
      <point x="78.5" y="361.161" type="curve" smooth="yes"/>
      <point x="78.5" y="567.606"/>
      <point x="227.394" y="716.5"/>
      <point x="435" y="716.5" type="curve" smooth="yes"/>
      <point x="642.606" y="716.5"/>
      <point x="791.5" y="567.606"/>
    </contour>
    <contour>
      <point x="811" y="358.922" type="curve" smooth="yes"/>
      <point x="811" y="577.049"/>
      <point x="652.049" y="736"/>
      <point x="434.003" y="736" type="curve" smooth="yes"/>
      <point x="216.085" y="736"/>
      <point x="59" y="577.985"/>
      <point x="59" y="358.922" type="curve" smooth="yes"/>
      <point x="59" y="141.017"/>
      <point x="216.017" y="-16"/>
      <point x="434.003" y="-16" type="curve" smooth="yes"/>
      <point x="651.983" y="-16"/>
      <point x="811" y="142.087"/>
    </contour>
  </outline>
</glyph>
<glyph name="uni029D" format="2">
  <advance width="414"/>
  <unicode hex="029D"/>
  <outline>
    <contour>
      <point x="299" y="500" type="line"/>
      <point x="209" y="500" type="line"/>
    </contour>
    <contour>
      <point x="390" y="36" type="line"/>
      <point x="174.422" y="36" type="line" smooth="yes"/>
      <point x="100.288" y="36"/>
      <point x="51.5" y="-12.2112"/>
      <point x="51.5" y="-87.598" type="curve" smooth="yes"/>
      <point x="51.5" y="-148.2"/>
      <point x="100.14" y="-200"/>
      <point x="156.636" y="-200" type="curve" smooth="yes"/>
      <point x="227.677" y="-200"/>
      <point x="265" y="-163.045"/>
      <point x="265" y="-101.949" type="curve" smooth="yes"/>
      <point x="265" y="18" type="line"/>
      <point x="390" y="18" type="line"/>
    </contour>
    <contour>
      <point x="245" y="-107.501" type="line" smooth="yes"/>
      <point x="245" y="-152.671"/>
      <point x="210.411" y="-182.474"/>
      <point x="158" y="-182.474" type="curve" smooth="yes"/>
      <point x="114.706" y="-182.474"/>
      <point x="71.5" y="-138.76"/>
      <point x="71.5" y="-83.5692" type="curve" smooth="yes"/>
      <point x="71.5" y="-27.2217"/>
      <point x="116.998" y="18"/>
      <point x="173.422" y="18" type="curve" smooth="yes"/>
      <point x="245" y="18" type="line"/>
    </contour>
    <contour>
      <point x="244" y="630" type="line"/>
      <point x="266" y="630" type="line"/>
      <point x="266" y="722" type="line"/>
      <point x="244" y="722" type="line"/>
    </contour>
    <contour>
      <point x="265" y="0" type="line"/>
      <point x="265" y="500" type="line"/>
      <point x="245" y="500" type="line"/>
      <point x="245" y="0" type="line"/>
    </contour>
  </outline>
</glyph>
<glyph name="uni029F" format="2">
  <advance width="392"/>
  <unicode hex="029F"/>
  <outline>
    <contour>
      <point x="372" y="0" type="line"/>
      <point x="372" y="18" type="line"/>
      <point x="77" y="18" type="line"/>
      <point x="77" y="500" type="line"/>
      <point x="57" y="500" type="line"/>
      <point x="57" y="0" type="line"/>
    </contour>
  </outline>
</glyph>
<glyph name="hfishhookturned" format="2">
  <advance width="795"/>
  <unicode hex="02AE"/>
  <outline>
    <contour>
      <point x="675" y="0" type="line"/>
      <point x="675" y="-200" type="line"/>
      <point x="695" y="-200" type="line"/>
      <point x="695" y="0" type="line"/>
    </contour>
    <contour>
      <point x="310.582" y="472" type="line"/>
      <point x="330.582" y="472" type="line"/>
      <point x="330.582" y="531" type="line" smooth="yes"/>
      <point x="330.582" y="662.707"/>
      <point x="274.409" y="722"/>
      <point x="147.748" y="722" type="curve" smooth="yes"/>
      <point x="94.9621" y="722"/>
      <point x="49.6409" y="707.084"/>
      <point x="10.9908" y="669.156" type="curve"/>
      <point x="25.6282" y="655.397" type="line"/>
      <point x="52.7289" y="682.705"/>
      <point x="98.4259" y="704"/>
      <point x="149.429" y="704" type="curve" smooth="yes"/>
      <point x="264.283" y="704"/>
      <point x="310.582" y="647.954"/>
      <point x="310.582" y="531" type="curve" smooth="yes"/>
    </contour>
    <contour>
      <point x="311" y="174" type="line" smooth="yes"/>
      <point x="311" y="53.0055"/>
      <point x="372.889" y="-10"/>
      <point x="491.911" y="-10" type="curve" smooth="yes"/>
      <point x="574.882" y="-10"/>
      <point x="646.638" y="48.5288"/>
      <point x="674.886" y="119" type="curve" smooth="yes"/>
      <point x="684.886" y="143.947" type="line"/>
      <point x="684.886" y="193.745" type="line"/>
      <point x="674.886" y="194.284" type="line"/>
      <point x="674.995" y="96.8939"/>
      <point x="580.625" y="9.98976"/>
      <point x="496.769" y="9.98976" type="curve" smooth="yes"/>
      <point x="384.62" y="9.98976"/>
      <point x="331" y="62.5888"/>
      <point x="331" y="172" type="curve" smooth="yes"/>
      <point x="331" y="500" type="line"/>
      <point x="311" y="500" type="line"/>
    </contour>
    <contour>
      <point x="695" y="0" type="line"/>
      <point x="695" y="500" type="line"/>
      <point x="675" y="500" type="line"/>
      <point x="675" y="0" type="line"/>
    </contour>
  </outline>
</glyph>
<glyph name="uni02AF" format="2">
  <advance width="982"/>
  <unicode hex="02AF"/>
  <outline>
    <contour>
      <point x="311" y="174" type="line" smooth="yes"/>
      <point x="311" y="53.0055"/>
      <point x="372.889" y="-10"/>
      <point x="491.911" y="-10" type="curve" smooth="yes"/>
      <point x="574.882" y="-10"/>
      <point x="646.638" y="48.5288"/>
      <point x="674.886" y="119" type="curve" smooth="yes"/>
      <point x="684.886" y="143.947" type="line"/>
      <point x="684.886" y="193.745" type="line"/>
      <point x="674.886" y="194.284" type="line"/>
      <point x="674.995" y="96.8939"/>
      <point x="580.625" y="9.98975"/>
      <point x="496.769" y="9.98975" type="curve" smooth="yes"/>
      <point x="384.62" y="9.98975"/>
      <point x="331" y="62.5888"/>
      <point x="331" y="172" type="curve" smooth="yes"/>
      <point x="331" y="500" type="line"/>
      <point x="311" y="500" type="line"/>
    </contour>
    <contour>
      <point x="310.582" y="472" type="line"/>
      <point x="330.582" y="472" type="line"/>
      <point x="330.582" y="531" type="line" smooth="yes"/>
      <point x="330.582" y="662.707"/>
      <point x="274.409" y="722"/>
      <point x="147.748" y="722" type="curve" smooth="yes"/>
      <point x="94.9621" y="722"/>
      <point x="49.6409" y="707.084"/>
      <point x="10.9908" y="669.156" type="curve"/>
      <point x="25.6282" y="655.397" type="line"/>
      <point x="52.7289" y="682.705"/>
      <point x="98.4259" y="704"/>
      <point x="149.429" y="704" type="curve" smooth="yes"/>
      <point x="264.283" y="704"/>
      <point x="310.582" y="647.954"/>
      <point x="310.582" y="531" type="curve" smooth="yes"/>
    </contour>
    <contour>
      <point x="695" y="0" type="line"/>
      <point x="695" y="500" type="line"/>
      <point x="675" y="500" type="line"/>
      <point x="675" y="0" type="line"/>
    </contour>
    <contour>
      <point x="675" y="134" type="line"/>
      <point x="675" y="-75.0251" type="line" smooth="yes"/>
      <point x="675" y="-155.86"/>
      <point x="709.366" y="-199"/>
      <point x="773.758" y="-199" type="curve" smooth="yes"/>
      <point x="818.318" y="-199"/>
      <point x="850.304" y="-184.339"/>
      <point x="881.159" y="-150.159" type="curve"/>
      <point x="867.171" y="-136.171" type="line"/>
      <point x="846.109" y="-164.193"/>
      <point x="815.274" y="-178.938"/>
      <point x="776.478" y="-178.938" type="curve" smooth="yes"/>
      <point x="722.545" y="-178.938"/>
      <point x="695" y="-145.578"/>
      <point x="695" y="-76.0251" type="curve" smooth="yes"/>
      <point x="695" y="134" type="line"/>
    </contour>
  </outline>
</glyph>
<glyph name="uni02B7" format="2">
  <advance width="570"/>
  <unicode hex="02B7"/>
  <outline>
    <contour>
      <point x="529" y="700" type="line"/>
      <point x="508" y="700" type="line"/>
      <point x="397.279" y="375.47" type="line"/>
      <point x="401.992" y="374.983" type="line"/>
      <point x="293" y="700" type="line"/>
      <point x="277" y="700" type="line"/>
      <point x="168.311" y="375.265" type="line"/>
      <point x="173.512" y="375.428" type="line"/>
      <point x="62" y="700" type="line"/>
      <point x="41" y="700" type="line"/>
      <point x="161" y="350" type="line"/>
      <point x="181" y="350" type="line"/>
      <point x="283.664" y="651.427" type="line"/>
      <point x="286.336" y="651.427" type="line"/>
      <point x="390" y="350" type="line"/>
      <point x="410" y="350" type="line"/>
    </contour>
  </outline>
  <guideline angle="107.767" x="173.512" y="375.428"/>
  <guideline angle="252.417" x="168.311" y="375.265"/>
  <guideline angle="107.583" x="401.992" y="374.983"/>
  <guideline angle="252.233" x="397.279" y="375.47"/>
</glyph>
<glyph name="circumflex" format="2">
  <advance width="292"/>
  <unicode hex="02C6"/>
  <outline>
    <contour>
      <point x="30" y="580" type="line"/>
      <point x="50" y="580" type="line"/>
      <point x="154" y="711" type="line"/>
      <point x="138" y="711" type="line"/>
      <point x="242" y="580" type="line"/>
      <point x="262" y="580" type="line"/>
      <point x="160" y="720" type="line"/>
      <point x="132" y="720" type="line"/>
    </contour>
  </outline>
  <guideline angle="90" x="146" y="0"/>
</glyph>
<glyph name="uni02D1" format="2">
  <advance width="372"/>
  <unicode hex="02D1"/>
  <outline>
    <contour>
      <point x="241" y="500" type="line"/>
      <point x="130" y="500" type="line"/>
      <point x="180" y="329" type="line"/>
      <point x="192" y="329" type="line"/>
    </contour>
  </outline>
</glyph>
<glyph name="breve" format="2">
  <advance width="400"/>
  <unicode hex="02D8"/>
  <outline>
    <contour>
      <point x="200" y="580" type="curve" smooth="yes"/>
      <point x="273.72" y="580"/>
      <point x="323.881" y="622.756"/>
      <point x="340" y="697" type="curve"/>
      <point x="320" y="696.992" type="line"/>
      <point x="304.179" y="633.104"/>
      <point x="263.216" y="599.992"/>
      <point x="200" y="599.992" type="curve" smooth="yes"/>
      <point x="137.132" y="599.992"/>
      <point x="96.4241" y="632.897"/>
      <point x="80" y="696.992" type="curve"/>
      <point x="60" y="697" type="line"/>
      <point x="72.9386" y="624.16"/>
      <point x="125.78" y="580"/>
    </contour>
  </outline>
  <guideline angle="90" x="200" y="0"/>
</glyph>
<glyph name="ring" format="2">
  <advance width="248"/>
  <unicode hex="02DA"/>
  <outline>
    <contour>
      <point x="124" y="769" type="curve" smooth="yes"/>
      <point x="71" y="769"/>
      <point x="30" y="729"/>
      <point x="30" y="675" type="curve" smooth="yes"/>
      <point x="30" y="622"/>
      <point x="71" y="581"/>
      <point x="124" y="581" type="curve" smooth="yes"/>
      <point x="178" y="581"/>
      <point x="218" y="623"/>
      <point x="218" y="675" type="curve" smooth="yes"/>
      <point x="218" y="729"/>
      <point x="179" y="769"/>
    </contour>
    <contour>
      <point x="124" y="598" type="curve" smooth="yes"/>
      <point x="81" y="598"/>
      <point x="49" y="632"/>
      <point x="49" y="675" type="curve" smooth="yes"/>
      <point x="49" y="718"/>
      <point x="83" y="752"/>
      <point x="124" y="752" type="curve" smooth="yes"/>
      <point x="168" y="752"/>
      <point x="199" y="719"/>
      <point x="199" y="675" type="curve" smooth="yes"/>
      <point x="199" y="633"/>
      <point x="167" y="598"/>
    </contour>
  </outline>
</glyph>
<glyph name="ogonek" format="2">
  <advance width="250"/>
  <unicode hex="02DB"/>
  <outline>
    <contour>
      <point x="60" y="-127.593" type="curve" smooth="yes"/>
      <point x="60" y="-177.037"/>
      <point x="88.3789" y="-210"/>
      <point x="130.947" y="-210" type="curve" smooth="yes"/>
      <point x="152.111" y="-210"/>
      <point x="174.342" y="-205.508"/>
      <point x="189.972" y="-196" type="curve"/>
      <point x="185.402" y="-184.977" type="line"/>
      <point x="175.19" y="-188.035"/>
      <point x="161.009" y="-190"/>
      <point x="150" y="-190" type="curve" smooth="yes"/>
      <point x="107.99" y="-190"/>
      <point x="79.9831" y="-163.172"/>
      <point x="79.9831" y="-122.929" type="curve" smooth="yes"/>
      <point x="79.9831" y="-85.5337"/>
      <point x="104.447" y="-42.5646"/>
      <point x="149.972" y="0" type="curve"/>
      <point x="130" y="0" type="line"/>
      <point x="71.4209" y="-54.7698"/>
      <point x="60" y="-96.9642"/>
    </contour>
  </outline>
</glyph>
<glyph name="tilde" format="2">
  <advance width="292"/>
  <unicode hex="02DC"/>
  <outline>
    <contour>
      <point x="0" y="600" type="curve"/>
      <point x="20" y="600" type="line"/>
      <point x="26" y="628"/>
      <point x="49" y="644"/>
      <point x="79" y="644" type="curve" smooth="yes"/>
      <point x="129" y="644"/>
      <point x="157" y="602"/>
      <point x="209" y="602" type="curve" smooth="yes"/>
      <point x="254" y="602"/>
      <point x="284" y="625"/>
      <point x="292" y="666" type="curve"/>
      <point x="272" y="666" type="line"/>
      <point x="266" y="638"/>
      <point x="244" y="622"/>
      <point x="213" y="622" type="curve" smooth="yes"/>
      <point x="163" y="622"/>
      <point x="137" y="664"/>
      <point x="84" y="664" type="curve" smooth="yes"/>
      <point x="38" y="664"/>
      <point x="9" y="641"/>
    </contour>
  </outline>
  <guideline angle="90" x="146" y="0"/>
  <guideline angle="0" x="0" y="679"/>
  <guideline angle="0" x="0" y="580"/>
  <guideline angle="0" x="0" y="600"/>
</glyph>
<glyph name="uni02DE" format="2">
  <advance width="180"/>
  <unicode hex="02DE"/>
  <outline>
    <contour>
      <point x="161.5" y="319" type="curve"/>
      <point x="141.5" y="319" type="line"/>
      <point x="142.187" y="261.302"/>
      <point x="121.207" y="231"/>
      <point x="80.5715" y="231" type="curve" smooth="yes"/>
      <point x="45.7771" y="231"/>
      <point x="27.5" y="255.796"/>
      <point x="27.5" y="303" type="curve" smooth="yes"/>
      <point x="27.5" y="452" type="line"/>
      <point x="-110" y="377" type="line"/>
      <point x="-104.628" y="360.164" type="line"/>
      <point x="7.50749" y="421.726" type="line"/>
      <point x="7.50749" y="313.271" type="line" smooth="yes"/>
      <point x="7.50749" y="243.054"/>
      <point x="29.808" y="213"/>
      <point x="82.246" y="213" type="curve" smooth="yes"/>
      <point x="131.249" y="213"/>
      <point x="162.013" y="253.378"/>
    </contour>
  </outline>
</glyph>
<glyph name="uni0307" format="2">
  <unicode hex="0307"/>
  <anchor x="0" y="580" name="_top"/>
  <anchor x="0" y="720" name="t.mkmk"/>
  <outline>
    <contour>
      <point x="-11" y="600" type="line"/>
      <point x="10.9803" y="600" type="line"/>
      <point x="10.9803" y="700" type="line"/>
      <point x="-11" y="700" type="line"/>
    </contour>
  </outline>
  <guideline angle="90" x="-11" y="0"/>
  <guideline angle="90" x="10.9803" y="0"/>
</glyph>
<glyph name="uni0309" format="2">
  <unicode hex="0309"/>
  <anchor x="0" y="530" name="_top"/>
  <outline>
    <contour>
      <point x="91" y="663.362" type="curve" smooth="yes"/>
      <point x="91" y="713.4"/>
      <point x="53" y="751"/>
      <point x="-1" y="751" type="curve" smooth="yes"/>
      <point x="-50.0401" y="751"/>
      <point x="-84.8401" y="720.2"/>
      <point x="-91" y="674" type="curve"/>
      <point x="-71" y="674" type="line"/>
      <point x="-66.8303" y="708.4"/>
      <point x="-39.392" y="733"/>
      <point x="-2" y="733" type="curve" smooth="yes"/>
      <point x="40.6" y="733"/>
      <point x="71" y="703"/>
      <point x="71" y="663" type="curve" smooth="yes"/>
      <point x="71" y="616.9"/>
      <point x="32.6" y="586.5"/>
      <point x="-25" y="582" type="curve"/>
      <point x="-25" y="530" type="line"/>
      <point x="-5" y="530" type="line"/>
      <point x="-5" y="569.793" type="line"/>
      <point x="52.6" y="578.057"/>
      <point x="91" y="612.94"/>
    </contour>
  </outline>
</glyph>
<glyph name="uni030B" format="2">
  <unicode hex="030B"/>
  <anchor x="0" y="580" name="_top"/>
  <outline>
    <contour>
      <point x="-10" y="751" type="line"/>
      <point x="-50" y="751" type="line"/>
      <point x="-130" y="580" type="line"/>
      <point x="-120" y="580" type="line"/>
    </contour>
    <contour>
      <point x="130" y="751" type="line"/>
      <point x="90" y="751" type="line"/>
      <point x="10" y="580" type="line"/>
      <point x="20" y="580" type="line"/>
    </contour>
  </outline>
  <guideline angle="90" x="-294" y="0"/>
</glyph>
<glyph name="uni030E" format="2">
  <advance width="1"/>
  <unicode hex="030E"/>
  <outline>
    <contour>
      <point x="-345" y="600" type="line"/>
      <point x="-345" y="780" type="line"/>
      <point x="-365" y="780" type="line"/>
      <point x="-365" y="600" type="line"/>
    </contour>
    <contour>
      <point x="-225" y="600" type="line"/>
      <point x="-225" y="780" type="line"/>
      <point x="-245" y="780" type="line"/>
      <point x="-245" y="600" type="line"/>
    </contour>
  </outline>
</glyph>
<glyph name="uni030F" format="2">
  <unicode hex="030F"/>
  <anchor x="0" y="580" name="_top"/>
  <outline>
    <contour>
      <point x="-55" y="580" type="line"/>
      <point x="-155" y="720" type="line"/>
      <point x="-185" y="720" type="line"/>
      <point x="-75" y="580" type="line"/>
    </contour>
    <contour>
      <point x="85" y="580" type="line"/>
      <point x="-15" y="720" type="line"/>
      <point x="-45" y="720" type="line"/>
      <point x="65" y="580" type="line"/>
    </contour>
  </outline>
</glyph>
<glyph name="uni0310" format="2">
  <advance width="1"/>
  <unicode hex="0310"/>
  <anchor x="-290" y="600" name="_top"/>
  <outline>
    <contour>
      <point x="-439" y="717" type="line"/>
      <point x="-430.654" y="648.147"/>
      <point x="-372.122" y="600"/>
      <point x="-298" y="600" type="curve" smooth="yes"/>
      <point x="-225.736" y="600"/>
      <point x="-168.528" y="647.829"/>
      <point x="-157" y="717" type="curve"/>
      <point x="-174.666" y="717" type="line"/>
      <point x="-186.497" y="659.099"/>
      <point x="-233.883" y="620.005"/>
      <point x="-297" y="619.994" type="curve" smooth="yes"/>
      <point x="-359.957" y="619.983"/>
      <point x="-410.031" y="660.308"/>
      <point x="-420.996" y="717" type="curve"/>
    </contour>
    <contour>
      <point x="-302" y="717" type="line"/>
      <point x="-282" y="717" type="line"/>
      <point x="-282" y="817" type="line"/>
      <point x="-302" y="817" type="line"/>
    </contour>
  </outline>
</glyph>
<glyph name="uni0311" format="2">
  <unicode hex="0311"/>
  <anchor x="0" y="600" name="_top"/>
  <outline>
    <contour>
      <point x="141" y="600" type="line"/>
      <point x="129.207" y="670.2"/>
      <point x="72.2193" y="717"/>
      <point x="0.0311108" y="717" type="curve" smooth="yes"/>
      <point x="-75.5034" y="717"/>
      <point x="-130.491" y="670.2"/>
      <point x="-139" y="600" type="curve"/>
      <point x="-119" y="600" type="line"/>
      <point x="-108.202" y="658.205"/>
      <point x="-60.8513" y="697.008"/>
      <point x="0.970726" y="697.008" type="curve" smooth="yes"/>
      <point x="61.6239" y="697.008"/>
      <point x="110.25" y="658.205"/>
      <point x="121.037" y="600" type="curve"/>
    </contour>
  </outline>
</glyph>
<glyph name="uni0318" format="2">
  <advance width="1"/>
  <unicode hex="0318"/>
  <outline>
    <contour>
      <point x="-279" y="-305" type="line"/>
      <point x="-279" y="-41" type="line"/>
      <point x="-299" y="-41" type="line"/>
      <point x="-299" y="-164" type="line"/>
      <point x="-420" y="-164" type="line"/>
      <point x="-420" y="-182" type="line"/>
      <point x="-299" y="-182" type="line"/>
      <point x="-299" y="-305" type="line"/>
    </contour>
  </outline>
</glyph>
<glyph name="uni0325" format="2">
  <unicode hex="0325"/>
  <outline>
    <contour>
      <point x="-296.504" y="-99" type="curve" smooth="yes"/>
      <point x="-357.071" y="-99"/>
      <point x="-407" y="-148"/>
      <point x="-407" y="-209" type="curve" smooth="yes"/>
      <point x="-407" y="-270"/>
      <point x="-357.071" y="-319"/>
      <point x="-296.504" y="-319" type="curve" smooth="yes"/>
      <point x="-236.929" y="-319"/>
      <point x="-187" y="-269"/>
      <point x="-187" y="-209" type="curve" smooth="yes"/>
      <point x="-187" y="-148"/>
      <point x="-235.936" y="-99"/>
    </contour>
    <contour>
      <point x="-297.695" y="-299" type="curve" smooth="yes"/>
      <point x="-346.594" y="-299"/>
      <point x="-387" y="-259.371"/>
      <point x="-387" y="-210.567" type="curve" smooth="yes"/>
      <point x="-387" y="-160.485"/>
      <point x="-344.452" y="-119"/>
      <point x="-295.109" y="-119" type="curve" smooth="yes"/>
      <point x="-246.787" y="-119"/>
      <point x="-207" y="-158.787"/>
      <point x="-207" y="-209" type="curve" smooth="yes"/>
      <point x="-207" y="-258.027"/>
      <point x="-247.973" y="-299"/>
    </contour>
  </outline>
</glyph>
<glyph name="uni0326" format="2">
  <unicode hex="0326"/>
  <anchor x="-309" y="-57" name="_bottom"/>
  <outline>
    <contour>
      <point x="-364.238" y="-307" type="line"/>
      <point x="-354.298" y="-307" type="line"/>
      <point x="-254.298" y="-57" type="line"/>
      <point x="-284.238" y="-57" type="line"/>
    </contour>
  </outline>
  <guideline angle="90" x="-364" y="0"/>
  <guideline angle="90" x="-254" y="0"/>
  <guideline angle="0" x="0" y="-307"/>
  <guideline angle="0" x="0" y="-57"/>
  <guideline angle="90" x="-309" y="0"/>
</glyph>
<glyph name="uni035C" format="2">
  <advance width="1"/>
  <unicode hex="035C"/>
  <outline>
    <contour>
      <point x="408.5" y="-168" type="line"/>
      <point x="364.234" y="-271.134"/>
      <point x="205.868" y="-338"/>
      <point x="1" y="-338" type="curve" smooth="yes"/>
      <point x="-237.946" y="-338"/>
      <point x="-371.597" y="-251.307"/>
      <point x="-409" y="-168" type="curve"/>
      <point x="-391" y="-168" type="line"/>
      <point x="-367" y="-227"/>
      <point x="-242" y="-318"/>
      <point x="0" y="-318" type="curve" smooth="yes"/>
      <point x="242" y="-318"/>
      <point x="366.5" y="-227"/>
      <point x="390.5" y="-168" type="curve"/>
    </contour>
  </outline>
</glyph>
<glyph name="Psi" format="2">
  <advance width="618"/>
  <unicode hex="03A8"/>
  <outline>
    <contour>
      <point x="322" y="0" type="line"/>
      <point x="322" y="297" type="line"/>
      <point x="501.101" y="314.3"/>
      <point x="558" y="411.027"/>
      <point x="558" y="623" type="curve" smooth="yes"/>
      <point x="558" y="722" type="line"/>
      <point x="538" y="722" type="line"/>
      <point x="538" y="631" type="line" smooth="yes"/>
      <point x="538" y="418"/>
      <point x="479" y="332"/>
      <point x="322" y="317" type="curve"/>
      <point x="322" y="722" type="line"/>
      <point x="300" y="722" type="line"/>
      <point x="300" y="317" type="line"/>
      <point x="135" y="333"/>
      <point x="80" y="412"/>
      <point x="80" y="631" type="curve" smooth="yes"/>
      <point x="80" y="722" type="line"/>
      <point x="60" y="722" type="line"/>
      <point x="60" y="623" type="line" smooth="yes"/>
      <point x="60" y="409.592"/>
      <point x="116.993" y="313.358"/>
      <point x="300" y="297" type="curve"/>
      <point x="300" y="0" type="line"/>
    </contour>
  </outline>
</glyph>
<glyph name="gamma" format="2">
  <advance width="524"/>
  <unicode hex="03B3"/>
  <outline>
    <contour>
      <point x="96.332" y="494.252" type="line" smooth="yes"/>
      <point x="90.9212" y="506.889"/>
      <point x="79.2537" y="514"/>
      <point x="69.3165" y="514" type="curve" smooth="yes"/>
      <point x="59.9388" y="514"/>
      <point x="49.5975" y="512.84"/>
      <point x="40.3526" y="511" type="curve"/>
      <point x="40.3526" y="493.379" type="line"/>
      <point x="46.6502" y="494.379"/>
      <point x="51.1552" y="494.251"/>
      <point x="55.0308" y="494.251" type="curve" smooth="yes"/>
      <point x="68.2787" y="494.251"/>
      <point x="72.5372" y="489.812"/>
      <point x="77.0396" y="479.552" type="curve" smooth="yes"/>
      <point x="273" y="33" type="line"/>
      <point x="273" y="-200" type="line"/>
      <point x="293" y="-200" type="line"/>
      <point x="293" y="32.9751" type="line"/>
      <point x="483.307" y="503" type="line"/>
      <point x="458.577" y="503" type="line"/>
      <point x="273.869" y="42.4106" type="line"/>
      <point x="289.789" y="42.4106" type="line"/>
    </contour>
  </outline>
  <guideline angle="293.693" x="108" y="409"/>
  <guideline angle="113.178" x="254" y="126"/>
</glyph>
<glyph name="epsilon" format="2">
  <advance width="551"/>
  <unicode hex="03B5"/>
  <anchor x="260" y="600" name="tonos.top"/>
  <outline>
    <contour>
      <point x="91" y="127" type="curve" smooth="yes"/>
      <point x="91" y="38.4005"/>
      <point x="153.481" y="-10"/>
      <point x="265" y="-10" type="curve" smooth="yes"/>
      <point x="383" y="-10"/>
      <point x="463" y="39"/>
      <point x="463" y="109" type="curve"/>
      <point x="443" y="109" type="line"/>
      <point x="443" y="51.3108"/>
      <point x="368.89" y="8"/>
      <point x="272" y="8" type="curve" smooth="yes"/>
      <point x="169" y="8"/>
      <point x="111" y="45.3682"/>
      <point x="111" y="131.368" type="curve" smooth="yes"/>
      <point x="111" y="195.361"/>
      <point x="158.784" y="249.616"/>
      <point x="228" y="251" type="curve" smooth="yes"/>
      <point x="328" y="253" type="line"/>
      <point x="328" y="271" type="line"/>
      <point x="223" y="273" type="line" smooth="yes"/>
      <point x="168.992" y="274.029"/>
      <point x="129" y="322.814"/>
      <point x="129" y="379.529" type="curve" smooth="yes"/>
      <point x="129" y="450.515"/>
      <point x="182.186" y="492"/>
      <point x="274" y="492" type="curve" smooth="yes"/>
      <point x="362" y="492"/>
      <point x="422" y="455"/>
      <point x="422" y="399" type="curve"/>
      <point x="442" y="399" type="line"/>
      <point x="442" y="466"/>
      <point x="379" y="510"/>
      <point x="271" y="510" type="curve" smooth="yes"/>
      <point x="172" y="510"/>
      <point x="109" y="461"/>
      <point x="109" y="382" type="curve" smooth="yes"/>
      <point x="109" y="317"/>
      <point x="145" y="268"/>
      <point x="214" y="256" type="curve"/>
      <point x="214" y="264" type="line"/>
      <point x="119" y="246"/>
      <point x="91" y="194"/>
    </contour>
  </outline>
</glyph>
<glyph name="zeta" format="2">
  <advance width="444"/>
  <unicode hex="03B6"/>
  <outline>
    <contour>
      <point x="78" y="704" type="line"/>
      <point x="412.105" y="704" type="line"/>
      <point x="412.105" y="713" type="line"/>
      <point x="216.921" y="573.804"/>
      <point x="49" y="351.433"/>
      <point x="49" y="199.695" type="curve" smooth="yes"/>
      <point x="49" y="187.631" type="line" smooth="yes"/>
      <point x="49" y="63.665"/>
      <point x="112.432" y="0"/>
      <point x="197" y="0" type="curve" smooth="yes"/>
      <point x="388.47" y="0" type="line" smooth="yes"/>
      <point x="404.514" y="0"/>
      <point x="418.47" y="-14.698"/>
      <point x="418.47" y="-36.222" type="curve" smooth="yes"/>
      <point x="418.47" y="-48.0676"/>
      <point x="411.61" y="-71.7105"/>
      <point x="406.47" y="-89" type="curve" smooth="yes"/>
      <point x="373.47" y="-200" type="line"/>
      <point x="394" y="-200" type="line"/>
      <point x="435" y="-58" type="line" smooth="yes"/>
      <point x="437.009" y="-51.0434"/>
      <point x="438" y="-42.4512"/>
      <point x="438" y="-32" type="curve" smooth="yes"/>
      <point x="438" y="-1.19198"/>
      <point x="415.855" y="18"/>
      <point x="382.362" y="18" type="curve" smooth="yes"/>
      <point x="207.547" y="18" type="line" smooth="yes"/>
      <point x="124.515" y="18"/>
      <point x="69" y="71.601"/>
      <point x="69" y="188.636" type="curve" smooth="yes"/>
      <point x="69" y="203.295" type="line" smooth="yes"/>
      <point x="69" y="341.824"/>
      <point x="235.329" y="566.444"/>
      <point x="427" y="702.164" type="curve"/>
      <point x="427" y="722" type="line"/>
      <point x="78" y="722" type="line"/>
    </contour>
  </outline>
</glyph>
<glyph name="eta" format="2">
  <advance width="608"/>
  <unicode hex="03B7"/>
  <anchor x="280" y="600" name="tonos.top"/>
  <outline>
    <contour>
      <point x="126" y="0" type="line"/>
      <point x="146" y="0" type="line"/>
      <point x="146" y="420" type="line"/>
      <point x="144" y="420" type="line"/>
      <point x="144" y="481"/>
      <point x="124" y="500"/>
      <point x="85" y="500" type="curve" smooth="yes"/>
      <point x="64" y="500"/>
      <point x="53" y="498"/>
      <point x="32" y="492" type="curve"/>
      <point x="32" y="474" type="line"/>
      <point x="54" y="480"/>
      <point x="69.4656" y="482"/>
      <point x="82" y="482" type="curve" smooth="yes"/>
      <point x="111" y="482"/>
      <point x="126" y="464"/>
      <point x="126" y="430" type="curve" smooth="yes"/>
    </contour>
    <contour>
      <point x="491" y="-200" type="line"/>
      <point x="511" y="-200" type="line"/>
      <point x="511" y="10" type="line"/>
      <point x="491" y="10" type="line"/>
    </contour>
    <contour>
      <point x="136" y="376" type="line"/>
      <point x="146" y="376" type="line"/>
      <point x="155" y="441"/>
      <point x="242.465" y="490"/>
      <point x="316" y="490" type="curve" smooth="yes"/>
      <point x="426" y="490"/>
      <point x="491" y="431.107"/>
      <point x="491" y="316" type="curve" smooth="yes"/>
      <point x="491" y="0" type="line"/>
      <point x="511" y="0" type="line"/>
      <point x="511" y="312" type="line" smooth="yes"/>
      <point x="511" y="441"/>
      <point x="438" y="510"/>
      <point x="319" y="510" type="curve" smooth="yes"/>
      <point x="255" y="510"/>
      <point x="176.239" y="474.43"/>
      <point x="146" y="420" type="curve" smooth="yes"/>
      <point x="136" y="402" type="line"/>
    </contour>
  </outline>
  <guideline angle="90" x="146" y="0"/>
</glyph>
<glyph name="kappa" format="2">
  <advance width="468"/>
  <unicode hex="03BA"/>
  <outline>
    <contour>
      <point x="120" y="0" type="line"/>
      <point x="120" y="500" type="line"/>
      <point x="100" y="500" type="line"/>
      <point x="100" y="0" type="line"/>
    </contour>
    <contour>
      <point x="189.29" y="303.685" type="line"/>
      <point x="394.362" y="0" type="line"/>
      <point x="419.818" y="0" type="line"/>
      <point x="204.969" y="316.518" type="line"/>
    </contour>
    <contour>
      <point x="427.585" y="500" type="line"/>
      <point x="393.517" y="500" type="line"/>
      <point x="110.926" y="243.701" type="line"/>
      <point x="110.806" y="214.589" type="line"/>
    </contour>
  </outline>
  <guideline angle="222.409" x="342" y="454.701"/>
  <guideline angle="42.0863" x="111" y="214.385"/>
  <guideline angle="304.03" x="211.362" y="271"/>
  <guideline angle="124.168" x="419.818" y="0"/>
</glyph>
<glyph name="mu" format="2">
  <advance width="637"/>
  <unicode hex="03BC"/>
  <outline>
    <contour>
      <point x="105" y="-200" type="line"/>
      <point x="125" y="-200" type="line"/>
      <point x="125" y="500" type="line"/>
      <point x="105" y="500" type="line"/>
    </contour>
    <contour>
      <point x="557.922" y="-14" type="curve" smooth="yes"/>
      <point x="585.943" y="-14"/>
      <point x="597.512" y="-10.5355"/>
      <point x="624" y="-1" type="curve"/>
      <point x="624" y="19" type="line"/>
      <point x="604.729" y="10.1393"/>
      <point x="583.421" y="4"/>
      <point x="563" y="4" type="curve" smooth="yes"/>
      <point x="506.09" y="4"/>
      <point x="478" y="46.5886"/>
      <point x="478" y="131" type="curve" smooth="yes"/>
      <point x="478" y="500" type="line"/>
      <point x="458" y="500" type="line"/>
      <point x="458" y="112.647" type="line" smooth="yes"/>
      <point x="458" y="34.207"/>
      <point x="496.387" y="-14"/>
    </contour>
    <contour>
      <point x="114.889" y="95.3236" type="line"/>
      <point x="124.889" y="73.0402" type="line" smooth="yes"/>
      <point x="147.969" y="21.6102"/>
      <point x="212.48" y="-11"/>
      <point x="280.436" y="-11" type="curve" smooth="yes"/>
      <point x="371.354" y="-11"/>
      <point x="427.966" y="25.4141"/>
      <point x="468.034" y="122.851" type="curve"/>
      <point x="468.034" y="191.338" type="line"/>
      <point x="458.068" y="191" type="line"/>
      <point x="458.068" y="90.3898"/>
      <point x="386.372" y="7"/>
      <point x="288.563" y="7" type="curve" smooth="yes"/>
      <point x="211.023" y="7"/>
      <point x="124.889" y="56.647"/>
      <point x="124.889" y="154.302" type="curve"/>
      <point x="114.889" y="154.302" type="line"/>
    </contour>
  </outline>
</glyph>
<glyph name="xi" format="2">
  <advance width="496"/>
  <unicode hex="03BE"/>
  <outline>
    <contour>
      <point x="77" y="187.566" type="curve" smooth="yes"/>
      <point x="77" y="75.4488"/>
      <point x="137.788" y="-6"/>
      <point x="244.349" y="-6" type="curve" smooth="yes"/>
      <point x="438.865" y="-6" type="line" smooth="yes"/>
      <point x="464.306" y="-6"/>
      <point x="471.199" y="-18.5639"/>
      <point x="470.954" y="-31.3639" type="curve" smooth="yes"/>
      <point x="470.837" y="-37.4598"/>
      <point x="468.061" y="-52.2013"/>
      <point x="453.865" y="-94" type="curve" smooth="yes"/>
      <point x="417.865" y="-200" type="line"/>
      <point x="439" y="-200" type="line"/>
      <point x="480" y="-78" type="line" smooth="yes"/>
      <point x="487.935" y="-54.39"/>
      <point x="491" y="-40.7794"/>
      <point x="491" y="-28.6334" type="curve" smooth="yes"/>
      <point x="491" y="-2.99343"/>
      <point x="476.14" y="12"/>
      <point x="445.777" y="12" type="curve" smooth="yes"/>
      <point x="250" y="12" type="line" smooth="yes"/>
      <point x="156.44" y="12"/>
      <point x="97" y="75.9104"/>
      <point x="97" y="198" type="curve" smooth="yes"/>
      <point x="97" y="284.987"/>
      <point x="170.634" y="352.5"/>
      <point x="265.525" y="352.5" type="curve" smooth="yes"/>
      <point x="422" y="352.5" type="line"/>
      <point x="422" y="370.5" type="line"/>
      <point x="296" y="370.5" type="line" smooth="yes"/>
      <point x="153.859" y="370.5"/>
      <point x="77" y="306.061"/>
    </contour>
    <contour>
      <point x="72" y="704" type="line"/>
      <point x="450" y="704" type="line"/>
      <point x="450" y="722" type="line"/>
      <point x="72" y="722" type="line"/>
    </contour>
    <contour>
      <point x="299.62" y="358.474" type="line"/>
      <point x="299.62" y="370.575" type="line"/>
      <point x="201.605" y="371.056"/>
      <point x="114.974" y="447.053"/>
      <point x="114.974" y="532.816" type="curve" smooth="yes"/>
      <point x="114.974" y="611.525"/>
      <point x="157.757" y="671.392"/>
      <point x="289.037" y="712.409" type="curve"/>
      <point x="253.187" y="712.433" type="line"/>
      <point x="136.861" y="684.045"/>
      <point x="94.9242" y="612.447"/>
      <point x="94.9242" y="529.341" type="curve" smooth="yes"/>
      <point x="94.9242" y="448.495"/>
      <point x="161.679" y="375.826"/>
      <point x="261.863" y="358.105" type="curve"/>
    </contour>
  </outline>
</glyph>
<glyph name="pi" format="2">
  <advance width="633"/>
  <unicode hex="03C0"/>
  <outline>
    <contour>
      <point x="30" y="483" type="line"/>
      <point x="592" y="483" type="line"/>
      <point x="592" y="501" type="line"/>
      <point x="30" y="501" type="line"/>
    </contour>
    <contour>
      <point x="135" y="494" type="line"/>
      <point x="135" y="0" type="line"/>
      <point x="155" y="0" type="line"/>
      <point x="155" y="494" type="line"/>
    </contour>
    <contour>
      <point x="464" y="491.5" type="line"/>
      <point x="464" y="83.0599" type="line" smooth="yes"/>
      <point x="464" y="21.5714"/>
      <point x="491.636" y="-10"/>
      <point x="546" y="-10" type="curve" smooth="yes"/>
      <point x="565" y="-10"/>
      <point x="584" y="-8.0287"/>
      <point x="603" y="-3.10013" type="curve"/>
      <point x="603" y="12.0108" type="line"/>
      <point x="594" y="10.0054"/>
      <point x="559.263" y="8"/>
      <point x="549.263" y="8" type="curve" smooth="yes"/>
      <point x="499.768" y="8"/>
      <point x="484" y="44.6153"/>
      <point x="484" y="87.5352" type="curve" smooth="yes"/>
      <point x="484" y="491.5" type="line"/>
    </contour>
  </outline>
</glyph>
<glyph name="rho" format="2">
  <advance width="580"/>
  <unicode hex="03C1"/>
  <outline>
    <contour>
      <point x="100" y="-200" type="line"/>
      <point x="120" y="-200" type="line"/>
      <point x="120" y="99.8138" type="line"/>
      <point x="140.319" y="44.5162"/>
      <point x="198.487" y="-10"/>
      <point x="285.566" y="-10" type="curve" smooth="yes"/>
      <point x="424.763" y="-10"/>
      <point x="500" y="88.4063"/>
      <point x="500" y="240" type="curve" smooth="yes"/>
      <point x="500" y="420.476"/>
      <point x="433.397" y="510"/>
      <point x="278.969" y="510" type="curve" smooth="yes"/>
      <point x="183.93" y="510"/>
      <point x="100" y="443.343"/>
      <point x="100" y="317.014" type="curve" smooth="yes"/>
    </contour>
    <contour>
      <point x="118" y="304.014" type="line" smooth="yes"/>
      <point x="118" y="433.517"/>
      <point x="192.808" y="492"/>
      <point x="289.856" y="492" type="curve" smooth="yes"/>
      <point x="415.438" y="492"/>
      <point x="480" y="402.752"/>
      <point x="480" y="252" type="curve" smooth="yes"/>
      <point x="480" y="241" type="line" smooth="yes"/>
      <point x="480" y="103.088"/>
      <point x="414.339" y="8"/>
      <point x="285.286" y="8" type="curve" smooth="yes"/>
      <point x="210.983" y="8"/>
      <point x="118" y="67.5037"/>
      <point x="118" y="181.058" type="curve" smooth="yes"/>
    </contour>
  </outline>
  <guideline angle="90" x="120" y="0"/>
</glyph>
<glyph name="sigma1" format="2">
  <advance width="620"/>
  <unicode hex="03C2"/>
  <outline>
    <contour>
      <point x="323.933" y="510" type="curve" smooth="yes"/>
      <point x="167.403" y="510"/>
      <point x="80" y="422.597"/>
      <point x="80" y="266.71" type="curve" smooth="yes"/>
      <point x="80" y="179"/>
      <point x="111.766" y="87.4323"/>
      <point x="223.59" y="58.4406" type="curve" smooth="yes"/>
      <point x="476" y="-7" type="line" smooth="yes"/>
      <point x="492.651" y="-11.3171"/>
      <point x="503" y="-27.6345"/>
      <point x="503" y="-49.5727" type="curve" smooth="yes"/>
      <point x="503" y="-74.9907"/>
      <point x="481.475" y="-155.886"/>
      <point x="461" y="-200" type="curve"/>
      <point x="479" y="-200" type="line"/>
      <point x="499" y="-154"/>
      <point x="520.648" y="-86.5536"/>
      <point x="520.944" y="-41.8891" type="curve" smooth="yes"/>
      <point x="521.147" y="-11.2638"/>
      <point x="503.362" y="6.94976"/>
      <point x="463.114" y="17.334" type="curve" smooth="yes"/>
      <point x="232.235" y="76.9021" type="line" smooth="yes"/>
      <point x="142.245" y="100.12"/>
      <point x="100" y="163.282"/>
      <point x="100" y="274.873" type="curve" smooth="yes"/>
      <point x="100" y="405.076"/>
      <point x="181.657" y="492"/>
      <point x="318.433" y="492" type="curve" smooth="yes"/>
      <point x="442.626" y="492"/>
      <point x="512.916" y="434.402"/>
      <point x="520" y="316" type="curve"/>
      <point x="540" y="316" type="line"/>
      <point x="534.745" y="455.266"/>
      <point x="439.204" y="510"/>
    </contour>
  </outline>
</glyph>
<glyph name="psi" format="2">
  <advance width="696"/>
  <unicode hex="03C8"/>
  <outline>
    <contour>
      <point x="344" y="-200" type="line"/>
      <point x="364" y="-200" type="line"/>
      <point x="364" y="722" type="line"/>
      <point x="344" y="722" type="line"/>
    </contour>
    <contour>
      <point x="354.283" y="-9.95315" type="line"/>
      <point x="516.719" y="-9.69315"/>
      <point x="606" y="58.3906"/>
      <point x="606" y="182" type="curve" smooth="yes"/>
      <point x="606" y="500" type="line"/>
      <point x="586" y="500" type="line"/>
      <point x="586" y="172.533" type="line" smooth="yes"/>
      <point x="586" y="71.9401"/>
      <point x="505.472" y="8.01566"/>
      <point x="354.283" y="7.87186" type="curve"/>
    </contour>
    <contour>
      <point x="354.112" y="8.08488" type="line"/>
      <point x="203.194" y="7.99008"/>
      <point x="120" y="72.6965"/>
      <point x="120" y="173.048" type="curve" smooth="yes"/>
      <point x="120" y="500" type="line"/>
      <point x="100" y="500" type="line"/>
      <point x="100" y="182" type="line" smooth="yes"/>
      <point x="100" y="61.6253"/>
      <point x="193.99" y="-10.0632"/>
      <point x="354.112" y="-10.1141" type="curve"/>
    </contour>
  </outline>
</glyph>
<glyph name="omega" format="2">
  <advance width="719"/>
  <unicode hex="03C9"/>
  <anchor x="350" y="600" name="tonos.top"/>
  <outline>
    <contour>
      <point x="179.425" y="500" type="line"/>
      <point x="97.9317" y="419.395"/>
      <point x="46.5" y="344.081"/>
      <point x="46.5" y="229.746" type="curve" smooth="yes"/>
      <point x="46.5" y="70.0911"/>
      <point x="109.167" y="-10"/>
      <point x="211.978" y="-10" type="curve" smooth="yes"/>
      <point x="287" y="-10"/>
      <point x="328.477" y="36.2624"/>
      <point x="350.235" y="88.2624" type="curve"/>
      <point x="365.722" y="36.2856"/>
      <point x="404.043" y="-10"/>
      <point x="483.853" y="-10" type="curve" smooth="yes"/>
      <point x="595.171" y="-10"/>
      <point x="657" y="70.0911"/>
      <point x="657" y="229.714" type="curve" smooth="yes"/>
      <point x="657" y="326"/>
      <point x="583.115" y="445.405"/>
      <point x="513.429" y="500" type="curve"/>
      <point x="486.378" y="500" type="line"/>
      <point x="579.071" y="419.327"/>
      <point x="637" y="312.966"/>
      <point x="637" y="226.102" type="curve" smooth="yes"/>
      <point x="637" y="83.3832"/>
      <point x="583.289" y="8"/>
      <point x="480.452" y="8" type="curve" smooth="yes"/>
      <point x="409.877" y="8"/>
      <point x="361" y="69.0968"/>
      <point x="361" y="131.859" type="curve" smooth="yes"/>
      <point x="361" y="387" type="line"/>
      <point x="341" y="387" type="line"/>
      <point x="341" y="132" type="line" smooth="yes"/>
      <point x="341" y="73.1759"/>
      <point x="273.44" y="8"/>
      <point x="213.218" y="8" type="curve" smooth="yes"/>
      <point x="119.991" y="8"/>
      <point x="66.5" y="88.5036"/>
      <point x="66.5" y="226" type="curve" smooth="yes"/>
      <point x="66.5" y="335.079"/>
      <point x="108.711" y="401.562"/>
      <point x="205.87" y="500" type="curve"/>
    </contour>
  </outline>
</glyph>
<glyph name="uni0411" format="2">
  <advance width="653"/>
  <unicode hex="0411"/>
  <outline>
    <component base="uni042C"/>
    <contour>
      <point x="472" y="702" type="line"/>
      <point x="472" y="722" type="line"/>
      <point x="92.0207" y="722" type="line"/>
      <point x="92" y="702" type="line"/>
    </contour>
  </outline>
</glyph>
<glyph name="uni0414" format="2">
  <advance width="756"/>
  <unicode hex="0414"/>
  <outline>
    <contour>
      <point x="107.028" y="13.8684" type="line"/>
      <point x="187.706" y="13.9662"/>
      <point x="246.127" y="277.599"/>
      <point x="260" y="524.222" type="curve" smooth="yes"/>
      <point x="270" y="702" type="line"/>
      <point x="613" y="702" type="line"/>
      <point x="613" y="10" type="line"/>
      <point x="635" y="10" type="line"/>
      <point x="635" y="722" type="line"/>
      <point x="250" y="722" type="line"/>
      <point x="244" y="585.182" type="line" smooth="yes"/>
      <point x="231.795" y="306.877"/>
      <point x="177.724" y="14.496"/>
      <point x="74.1369" y="13.7375" type="curve"/>
      <point x="73.8369" y="3.79409" type="line"/>
      <point x="107.148" y="3.83389" type="line"/>
    </contour>
    <contour>
      <point x="716" y="-160" type="line"/>
      <point x="716" y="20" type="line"/>
      <point x="40" y="20" type="line"/>
      <point x="40" y="-160" type="line"/>
      <point x="60" y="-160" type="line"/>
      <point x="60" y="0" type="line"/>
      <point x="694" y="0" type="line"/>
      <point x="694" y="-160" type="line"/>
    </contour>
  </outline>
</glyph>
<glyph name="uni0419" format="2">
  <advance width="664"/>
  <unicode hex="0419"/>
  <outline>
    <component base="uni0418"/>
    <contour>
      <point x="332" y="780" type="curve" smooth="yes"/>
      <point x="272.978" y="780"/>
      <point x="228.204" y="816.633"/>
      <point x="214" y="877" type="curve"/>
      <point x="192" y="877" type="line"/>
      <point x="200.258" y="810.938"/>
      <point x="261.209" y="760"/>
      <point x="332" y="760" type="curve" smooth="yes"/>
      <point x="402.462" y="760"/>
      <point x="463.524" y="810.669"/>
      <point x="473" y="877" type="curve"/>
      <point x="451.086" y="877" type="line"/>
      <point x="437.15" y="818.402"/>
      <point x="390.824" y="780"/>
    </contour>
  </outline>
  <guideline angle="90" x="332" y="0"/>
</glyph>
<glyph name="uni0424" format="2">
  <advance width="716"/>
  <unicode hex="0424"/>
  <outline>
    <contour>
      <point x="342" y="-1" type="line"/>
      <point x="363.936" y="-1" type="line"/>
      <point x="363.936" y="721" type="line"/>
      <point x="342" y="721" type="line"/>
    </contour>
    <contour>
      <point x="363.736" y="65" type="line"/>
      <point x="386.936" y="65" type="line" smooth="yes"/>
      <point x="536.336" y="65"/>
      <point x="635.936" y="182.295"/>
      <point x="635.936" y="358.239" type="curve" smooth="yes"/>
      <point x="635.936" y="533.295"/>
      <point x="536.336" y="650"/>
      <point x="386.936" y="650" type="curve" smooth="yes"/>
      <point x="363.736" y="650" type="line"/>
      <point x="363.536" y="630.175" type="line"/>
      <point x="379.936" y="630.175" type="line" smooth="yes"/>
      <point x="520.336" y="630.175"/>
      <point x="613.936" y="521.401"/>
      <point x="613.936" y="358.239" type="curve" smooth="yes"/>
      <point x="613.936" y="194.295"/>
      <point x="520.336" y="85"/>
      <point x="379.936" y="85" type="curve" smooth="yes"/>
      <point x="363.536" y="85" type="line"/>
    </contour>
    <contour>
      <point x="342.4" y="85" type="line"/>
      <point x="326" y="85" type="line" smooth="yes"/>
      <point x="191.566" y="85"/>
      <point x="101.944" y="194.295"/>
      <point x="101.944" y="358.239" type="curve" smooth="yes"/>
      <point x="101.944" y="521.401"/>
      <point x="191.566" y="630.175"/>
      <point x="326" y="630.175" type="curve" smooth="yes"/>
      <point x="342.4" y="630.175" type="line"/>
      <point x="342.2" y="650" type="line"/>
      <point x="319" y="650" type="line" smooth="yes"/>
      <point x="175.6" y="650"/>
      <point x="80" y="533.295"/>
      <point x="80" y="358.239" type="curve" smooth="yes"/>
      <point x="80" y="182.295"/>
      <point x="175.6" y="65"/>
      <point x="319" y="65" type="curve" smooth="yes"/>
      <point x="342.2" y="65" type="line"/>
    </contour>
  </outline>
</glyph>
<glyph name="uni0426" format="2">
  <advance width="680"/>
  <unicode hex="0426"/>
  <outline>
    <contour>
      <point x="92" y="0" type="line"/>
      <point x="92" y="722" type="line"/>
      <point x="70" y="722" type="line"/>
      <point x="70" y="0" type="line"/>
    </contour>
    <contour>
      <point x="540" y="0" type="line"/>
      <point x="540" y="722" type="line"/>
      <point x="518" y="722" type="line"/>
      <point x="518" y="0" type="line"/>
    </contour>
    <contour>
      <point x="538" y="20" type="line"/>
      <point x="91.9544" y="20" type="line"/>
      <point x="92" y="0" type="line"/>
      <point x="538" y="0" type="line"/>
    </contour>
    <contour>
      <point x="618" y="-160" type="line"/>
      <point x="640" y="-160" type="line"/>
      <point x="640" y="20" type="line"/>
      <point x="517.95" y="20" type="line"/>
      <point x="518" y="0" type="line"/>
      <point x="618" y="0" type="line"/>
    </contour>
  </outline>
</glyph>
<glyph name="uni0428" format="2">
  <advance width="964"/>
  <unicode hex="0428"/>
  <outline>
    <contour>
      <point x="471" y="20" type="line"/>
      <point x="91.7643" y="20" type="line"/>
      <point x="91.7643" y="722" type="line"/>
      <point x="70" y="722" type="line"/>
      <point x="70" y="0" type="line"/>
      <point x="894" y="0" type="line"/>
      <point x="894" y="722" type="line"/>
      <point x="872.035" y="722" type="line"/>
      <point x="872.035" y="20" type="line"/>
      <point x="493" y="20" type="line"/>
      <point x="493" y="722" type="line"/>
      <point x="471" y="722" type="line"/>
    </contour>
  </outline>
  <guideline angle="90" x="482" y="0"/>
</glyph>
<glyph name="uni042C" format="2">
  <advance width="604"/>
  <unicode hex="042C"/>
  <outline>
    <contour>
      <point x="70" y="0" type="line"/>
      <point x="92" y="0" type="line"/>
      <point x="92" y="722" type="line"/>
      <point x="70" y="722" type="line"/>
    </contour>
    <contour>
      <point x="308" y="397.484" type="line" smooth="yes"/>
      <point x="424.496" y="397.484"/>
      <point x="502.159" y="323.601"/>
      <point x="502.159" y="212.777" type="curve" smooth="yes"/>
      <point x="502.159" y="97.0797"/>
      <point x="424.496" y="19.9483"/>
      <point x="308" y="19.9483" type="curve" smooth="yes"/>
      <point x="79.9894" y="19.9483" type="line"/>
      <point x="80" y="0" type="line"/>
      <point x="315" y="0" type="line" smooth="yes"/>
      <point x="440.4" y="0"/>
      <point x="524" y="85.1856"/>
      <point x="524" y="212.964" type="curve" smooth="yes"/>
      <point x="524" y="335.386"/>
      <point x="440.4" y="417"/>
      <point x="315" y="417" type="curve" smooth="yes"/>
      <point x="79.8322" y="417" type="line"/>
      <point x="79.8322" y="397.484" type="line"/>
    </contour>
  </outline>
</glyph>
<glyph name="uni042D" format="2">
  <advance width="771"/>
  <unicode hex="042D"/>
  <outline>
    <contour>
      <point x="80" y="165" type="line"/>
      <point x="134.07" y="49.5808"/>
      <point x="232.751" y="-10"/>
      <point x="368.864" y="-10" type="curve" smooth="yes"/>
      <point x="566.068" y="-10"/>
      <point x="693" y="138.568"/>
      <point x="693" y="369.387" type="curve" smooth="yes"/>
      <point x="693" y="596.53"/>
      <point x="571.208" y="732"/>
      <point x="367" y="732" type="curve" smooth="yes"/>
      <point x="233.446" y="732"/>
      <point x="135.011" y="676.465"/>
      <point x="81" y="570.644" type="curve"/>
      <point x="101" y="570.644" type="line"/>
      <point x="156.716" y="665.577"/>
      <point x="253.394" y="712.407"/>
      <point x="363.219" y="712.407" type="curve" smooth="yes"/>
      <point x="552.886" y="712.407"/>
      <point x="671.047" y="579.137"/>
      <point x="671.047" y="366.25" type="curve" smooth="yes"/>
      <point x="671.047" y="154.83"/>
      <point x="549.878" y="10"/>
      <point x="373.449" y="10" type="curve" smooth="yes"/>
      <point x="252.273" y="10"/>
      <point x="154.777" y="57.1319"/>
      <point x="99.9742" y="165" type="curve"/>
    </contour>
    <contour>
      <point x="682" y="382" type="line"/>
      <point x="298" y="382" type="line"/>
      <point x="298" y="362" type="line"/>
      <point x="682" y="362" type="line"/>
    </contour>
  </outline>
</glyph>
<glyph name="uni042E" format="2">
  <advance width="861"/>
  <unicode hex="042E"/>
  <outline>
    <component base="I" xOffset="-10"/>
    <component base="O" xOffset="107"/>
    <contour>
      <point x="197" y="376" type="line"/>
      <point x="92" y="376" type="line"/>
      <point x="92" y="356" type="line"/>
      <point x="197" y="356" type="line"/>
    </contour>
  </outline>
</glyph>
<glyph name="uni0431" format="2">
  <advance width="586"/>
  <unicode hex="0431"/>
  <outline>
    <contour>
      <point x="50" y="267.528" type="curve" smooth="yes"/>
      <point x="50" y="110.327"/>
      <point x="128.253" y="-10"/>
      <point x="293.449" y="-10" type="curve" smooth="yes"/>
      <point x="457" y="-10"/>
      <point x="536" y="106.364"/>
      <point x="536" y="245" type="curve" smooth="yes"/>
      <point x="536" y="392.78"/>
      <point x="439.452" y="492"/>
      <point x="291.722" y="492" type="curve" smooth="yes"/>
      <point x="187.663" y="492"/>
      <point x="115.309" y="442.669"/>
      <point x="72.6346" y="349.954" type="curve"/>
      <point x="70.6557" y="350.954" type="line"/>
      <point x="92.3003" y="554.041"/>
      <point x="165.115" y="627.088"/>
      <point x="360.978" y="652.106" type="curve" smooth="yes"/>
      <point x="449.22" y="663.377"/>
      <point x="487.164" y="681.763"/>
      <point x="496" y="722" type="curve"/>
      <point x="476" y="722" type="line"/>
      <point x="443.986" y="697.177"/>
      <point x="422.861" y="690.394"/>
      <point x="318.132" y="672.106" type="curve" smooth="yes"/>
      <point x="127.713" y="638.855"/>
      <point x="50" y="521.874"/>
    </contour>
    <contour>
      <point x="69.8445" y="252.505" type="curve" smooth="yes"/>
      <point x="69.8445" y="378.445"/>
      <point x="164.187" y="472.119"/>
      <point x="294.422" y="472.119" type="curve" smooth="yes"/>
      <point x="425.393" y="472.119"/>
      <point x="516.07" y="377.975"/>
      <point x="516.07" y="241.996" type="curve" smooth="yes"/>
      <point x="516.07" y="104.688"/>
      <point x="432.192" y="10"/>
      <point x="296.276" y="10" type="curve" smooth="yes"/>
      <point x="161.009" y="10"/>
      <point x="69.8445" y="103.785"/>
    </contour>
  </outline>
</glyph>
<glyph name="uni043F" format="2">
  <advance width="571"/>
  <unicode hex="043F"/>
  <anchor x="285" y="21" name="bottom"/>
  <outline>
    <contour>
      <point x="100.051" y="0" type="line"/>
      <point x="100.051" y="500" type="line"/>
      <point x="470.415" y="500" type="line"/>
      <point x="470.415" y="0" type="line"/>
      <point x="450" y="0" type="line"/>
      <point x="450" y="480" type="line"/>
      <point x="120" y="480" type="line"/>
      <point x="120" y="0" type="line"/>
    </contour>
  </outline>
</glyph>
<glyph name="uni0444" format="2">
  <advance width="796"/>
  <unicode hex="0444"/>
  <outline>
    <contour>
      <point x="388" y="-198" type="line"/>
      <point x="408" y="-198" type="line"/>
      <point x="408" y="722" type="line"/>
      <point x="388" y="722" type="line"/>
    </contour>
    <contour>
      <point x="293" y="-10" type="curve" smooth="yes"/>
      <point x="331.551" y="-10"/>
      <point x="377.983" y="-6.13292"/>
      <point x="397.856" y="-1.26714" type="curve"/>
      <point x="398.308" y="24.7427" type="line"/>
      <point x="380.173" y="16.4986"/>
      <point x="345.654" y="10"/>
      <point x="320" y="10" type="curve" smooth="yes"/>
      <point x="172.834" y="10"/>
      <point x="99.8796" y="89.7061"/>
      <point x="99.8796" y="250.492" type="curve" smooth="yes"/>
      <point x="99.8796" y="412.896"/>
      <point x="172.934" y="493"/>
      <point x="320" y="493" type="curve" smooth="yes"/>
      <point x="342.157" y="493"/>
      <point x="387.324" y="482.166"/>
      <point x="397.583" y="474.39" type="curve"/>
      <point x="397.52" y="493.202" type="line"/>
      <point x="377.664" y="503.956"/>
      <point x="329.917" y="513"/>
      <point x="293" y="513" type="curve" smooth="yes"/>
      <point x="160.021" y="513"/>
      <point x="80" y="414.007"/>
      <point x="80" y="249.5" type="curve" smooth="yes"/>
      <point x="80" y="86.8033"/>
      <point x="159.457" y="-10"/>
    </contour>
    <contour>
      <point x="503" y="-10" type="curve" smooth="yes"/>
      <point x="636.543" y="-10"/>
      <point x="716" y="86.8033"/>
      <point x="716" y="249.5" type="curve" smooth="yes"/>
      <point x="716" y="414.007"/>
      <point x="635.979" y="513"/>
      <point x="503" y="513" type="curve" smooth="yes"/>
      <point x="468.221" y="513"/>
      <point x="414.938" y="502.905"/>
      <point x="398.428" y="493.188" type="curve"/>
      <point x="398.417" y="474.39" type="line"/>
      <point x="408.676" y="482.166"/>
      <point x="453.843" y="493"/>
      <point x="476" y="493" type="curve" smooth="yes"/>
      <point x="619.585" y="493"/>
      <point x="696.005" y="409.038"/>
      <point x="696.005" y="250.493" type="curve" smooth="yes"/>
      <point x="696.005" y="92.6184"/>
      <point x="620.029" y="10"/>
      <point x="476" y="10" type="curve" smooth="yes"/>
      <point x="450.347" y="10"/>
      <point x="415.828" y="16.4986"/>
      <point x="397.692" y="24.7427" type="curve"/>
      <point x="398" y="-1.33483" type="line"/>
      <point x="418.5" y="-6.10257"/>
      <point x="465.728" y="-10"/>
    </contour>
  </outline>
</glyph>
<glyph name="uni0446" format="2">
  <advance width="652"/>
  <unicode hex="0446"/>
  <outline>
    <component base="dotlessi"/>
    <component base="dotlessi" xOffset="378"/>
    <contour>
      <point x="119.983" y="20" type="line"/>
      <point x="120" y="0" type="line"/>
      <point x="478.027" y="0.3799" type="line"/>
      <point x="478.096" y="20" type="line"/>
    </contour>
    <contour>
      <point x="612" y="20" type="line"/>
      <point x="498" y="20" type="line"/>
      <point x="497.697" y="0.2691" type="line"/>
      <point x="592.027" y="0" type="line"/>
      <point x="592.027" y="-160" type="line"/>
      <point x="612" y="-160" type="line"/>
    </contour>
  </outline>
</glyph>
<glyph name="uni044D" format="2">
  <advance width="637"/>
  <unicode hex="044D"/>
  <outline>
    <contour>
      <point x="80" y="146.418" type="line"/>
      <point x="109" y="51"/>
      <point x="196" y="-10"/>
      <point x="314.72" y="-10" type="curve" smooth="yes"/>
      <point x="464" y="-10"/>
      <point x="557" y="88.7697"/>
      <point x="557" y="249.048" type="curve" smooth="yes"/>
      <point x="557" y="408.452"/>
      <point x="464" y="510"/>
      <point x="315.275" y="510" type="curve" smooth="yes"/>
      <point x="203" y="510"/>
      <point x="115" y="452"/>
      <point x="83" y="365.964" type="curve"/>
      <point x="103" y="365.964" type="line"/>
      <point x="146.24" y="449.24"/>
      <point x="220.884" y="490"/>
      <point x="311.877" y="490" type="curve" smooth="yes"/>
      <point x="451.893" y="490"/>
      <point x="537.123" y="393.488"/>
      <point x="537.123" y="247.72" type="curve" smooth="yes"/>
      <point x="537.123" y="105.961"/>
      <point x="449.896" y="10"/>
      <point x="312.96" y="10" type="curve" smooth="yes"/>
      <point x="215.819" y="10"/>
      <point x="139.67" y="58.2898"/>
      <point x="100" y="146.418" type="curve"/>
    </contour>
    <contour>
      <point x="550.112" y="258" type="line"/>
      <point x="235" y="258" type="line"/>
      <point x="235" y="238" type="line"/>
      <point x="550.112" y="238" type="line"/>
    </contour>
  </outline>
</glyph>
<glyph name="njecyr" format="2">
  <advance width="899"/>
  <unicode hex="045A"/>
  <outline>
    <component base="uni043D" xOffset="-20"/>
    <contour>
      <point x="460" y="0" type="line"/>
      <point x="590.411" y="0" type="line" smooth="yes"/>
      <point x="699.53" y="0"/>
      <point x="760.537" y="53.8935"/>
      <point x="760.537" y="150.29" type="curve" smooth="yes"/>
      <point x="760.537" y="247.629"/>
      <point x="697.861" y="300"/>
      <point x="581.369" y="300" type="curve" smooth="yes"/>
      <point x="460" y="300" type="line"/>
      <point x="460" y="280" type="line"/>
      <point x="572.09" y="280" type="line" smooth="yes"/>
      <point x="682.803" y="280"/>
      <point x="740.694" y="236.357"/>
      <point x="740.694" y="152.557" type="curve" smooth="yes"/>
      <point x="740.694" y="67.536"/>
      <point x="683.085" y="20"/>
      <point x="580.047" y="20" type="curve" smooth="yes"/>
      <point x="460" y="20" type="line"/>
    </contour>
  </outline>
</glyph>
<glyph name="uni04D6" format="2">
  <advance width="510"/>
  <unicode hex="04D6"/>
  <anchor x="-8" y="722" name="tonos"/>
  <outline>
    <contour>
      <point x="92" y="18" type="line"/>
      <point x="92" y="0" type="line"/>
      <point x="450" y="0" type="line"/>
      <point x="450" y="18" type="line"/>
    </contour>
    <contour>
      <point x="70" y="0" type="line"/>
      <point x="92" y="0" type="line"/>
      <point x="92" y="722" type="line"/>
      <point x="70" y="722" type="line"/>
    </contour>
    <contour>
      <point x="92" y="377.889" type="line"/>
      <point x="92" y="358.018" type="line"/>
      <point x="430" y="358.018" type="line"/>
      <point x="430" y="377.889" type="line"/>
    </contour>
    <contour>
      <point x="92" y="722" type="line"/>
      <point x="92" y="704" type="line"/>
      <point x="440" y="704" type="line"/>
      <point x="440" y="722" type="line"/>
    </contour>
    <contour>
      <point x="119" y="914" type="line"/>
      <point x="127" y="848"/>
      <point x="189" y="797"/>
      <point x="260" y="797" type="curve" smooth="yes"/>
      <point x="329" y="797"/>
      <point x="390" y="848"/>
      <point x="401" y="914" type="curve"/>
      <point x="391" y="913.992" type="line"/>
      <point x="380.346" y="857.535"/>
      <point x="325.993" y="816.992"/>
      <point x="261" y="816.992" type="curve" smooth="yes"/>
      <point x="193.159" y="816.992"/>
      <point x="140.267" y="855.794"/>
      <point x="129" y="913.992" type="curve"/>
    </contour>
  </outline>
</glyph>
<glyph name="uni04D7" format="2">
  <advance width="616"/>
  <unicode hex="04D7"/>
  <anchor x="308" y="580" name="top"/>
  <anchor x="308" y="-89" name="bottom"/>
  <outline>
    <component base="uni0435"/>
    <contour>
      <point x="190" y="718.007" type="curve"/>
      <point x="168" y="718.007" type="line"/>
      <point x="173" y="630.007"/>
      <point x="222" y="580.007"/>
      <point x="307.5" y="580.007" type="curve" smooth="yes"/>
      <point x="393" y="580.007"/>
      <point x="443" y="630.007"/>
      <point x="448" y="718.007" type="curve"/>
      <point x="426" y="718.007" type="line"/>
      <point x="420.074" y="639.397"/>
      <point x="379.678" y="600"/>
      <point x="307.177" y="600" type="curve" smooth="yes"/>
      <point x="232.989" y="600"/>
      <point x="193.744" y="641.251"/>
    </contour>
  </outline>
</glyph>
<glyph name="guilsinglright" format="2">
  <advance width="317"/>
  <unicode hex="203A"/>
  <outline>
    <contour>
      <point x="80" y="57" type="line"/>
      <point x="100" y="57" type="line"/>
      <point x="237" y="252" type="line"/>
      <point x="100" y="447" type="line"/>
      <point x="80" y="447" type="line"/>
      <point x="206.289" y="241.78" type="line"/>
      <point x="206.289" y="262.22" type="line"/>
    </contour>
  </outline>
</glyph>
<glyph name="Euro" format="2">
  <advance width="572"/>
  <unicode hex="20AC"/>
  <outline>
    <contour>
      <point x="513" y="666" type="line"/>
      <point x="481.399" y="690.017"/>
      <point x="416.4" y="707"/>
      <point x="354.988" y="707" type="curve" smooth="yes"/>
      <point x="185.559" y="707"/>
      <point x="90" y="577.734"/>
      <point x="90" y="348.596" type="curve" smooth="yes"/>
      <point x="90" y="117.646"/>
      <point x="187.076" y="-10"/>
      <point x="359.789" y="-10" type="curve" smooth="yes"/>
      <point x="421.85" y="-10"/>
      <point x="484.255" y="6.48168"/>
      <point x="513" y="30" type="curve"/>
      <point x="513" y="60" type="line"/>
      <point x="478.699" y="28.0642"/>
      <point x="428.617" y="10"/>
      <point x="374.38" y="10" type="curve" smooth="yes"/>
      <point x="200.584" y="10"/>
      <point x="111.97" y="124.639"/>
      <point x="111.97" y="348.046" type="curve" smooth="yes"/>
      <point x="111.97" y="571.967"/>
      <point x="200.992" y="687"/>
      <point x="363.258" y="687" type="curve" smooth="yes"/>
      <point x="428.442" y="687"/>
      <point x="480.354" y="668.437"/>
      <point x="513" y="637" type="curve"/>
    </contour>
    <contour>
      <point x="106" y="400" type="line"/>
      <point x="462" y="400" type="line"/>
      <point x="468" y="420" type="line"/>
      <point x="106" y="420" type="line"/>
    </contour>
    <contour>
      <point x="106" y="276" type="line"/>
      <point x="411" y="276" type="line"/>
      <point x="418" y="296" type="line"/>
      <point x="106" y="296" type="line"/>
    </contour>
    <contour>
      <point x="104" y="296" type="line"/>
      <point x="39" y="296" type="line"/>
      <point x="32" y="276" type="line"/>
      <point x="104" y="276" type="line"/>
    </contour>
    <contour>
      <point x="104" y="420" type="line"/>
      <point x="39" y="420" type="line"/>
      <point x="32" y="400" type="line"/>
      <point x="104" y="400" type="line"/>
    </contour>
  </outline>
  <guideline angle="71.5651" x="449" y="381"/>
  <guideline angle="250.907" x="49" y="459"/>
  <guideline angle="250.907" x="49" y="315"/>
</glyph>
<glyph name="trademark" format="2">
  <advance width="655"/>
  <unicode hex="2122"/>
  <outline>
    <contour>
      <point x="585" y="439" type="line"/>
      <point x="585" y="713" type="line"/>
      <point x="555" y="713" type="line"/>
      <point x="449.139" y="455.638" type="line"/>
      <point x="446.91" y="455.655" type="line"/>
      <point x="342" y="713" type="line"/>
      <point x="312" y="713" type="line"/>
      <point x="312" y="439" type="line"/>
      <point x="332" y="439" type="line"/>
      <point x="332" y="707.655" type="line"/>
      <point x="322.99" y="707.655" type="line"/>
      <point x="435" y="439" type="line"/>
      <point x="462" y="439" type="line"/>
      <point x="573.978" y="707.655" type="line"/>
      <point x="565" y="707.655" type="line"/>
      <point x="565" y="439" type="line"/>
    </contour>
    <contour>
      <point x="137" y="700" type="line"/>
      <point x="137" y="439" type="line"/>
      <point x="157" y="439" type="line"/>
      <point x="157" y="700" type="line"/>
    </contour>
    <contour>
      <point x="254" y="694" type="line"/>
      <point x="254" y="712" type="line"/>
      <point x="40" y="712" type="line"/>
      <point x="40" y="694" type="line"/>
    </contour>
  </outline>
</glyph>
<glyph name="approxequal" format="2">
  <advance width="1000"/>
  <unicode hex="2248"/>
  <outline>
    <contour>
      <point x="798" y="240.236" type="curve"/>
      <point x="798" y="271.375" type="line"/>
      <point x="741" y="219.446"/>
      <point x="703" y="197"/>
      <point x="640" y="197" type="curve" smooth="yes"/>
      <point x="611.43" y="197"/>
      <point x="549.831" y="213.037"/>
      <point x="490.744" y="230.4" type="curve" smooth="yes"/>
      <point x="438.384" y="245.786"/>
      <point x="387.567" y="260"/>
      <point x="364" y="260" type="curve" smooth="yes"/>
      <point x="297.004" y="260"/>
      <point x="241" y="236.521"/>
      <point x="196" y="190.806" type="curve"/>
      <point x="196" y="160" type="line"/>
      <point x="249" y="214.29"/>
      <point x="288" y="235.979"/>
      <point x="348" y="236" type="curve" smooth="yes"/>
      <point x="378.153" y="236.011"/>
      <point x="436.014" y="220.504"/>
      <point x="492.034" y="203.454" type="curve" smooth="yes"/>
      <point x="545.899" y="187.06"/>
      <point x="598.598" y="173"/>
      <point x="625" y="173" type="curve" smooth="yes"/>
      <point x="693" y="173"/>
      <point x="752" y="198.806"/>
    </contour>
    <contour>
      <point x="800" y="411" type="curve"/>
      <point x="800" y="440" type="line"/>
      <point x="743" y="389"/>
      <point x="705" y="366"/>
      <point x="647.089" y="366" type="curve" smooth="yes"/>
      <point x="601.899" y="366"/>
      <point x="553.68" y="379.608"/>
      <point x="505.383" y="395.19" type="curve" smooth="yes"/>
      <point x="455.507" y="411.281"/>
      <point x="404.965" y="425.587"/>
      <point x="356.053" y="425.64" type="curve" smooth="yes"/>
      <point x="298.985" y="425.702"/>
      <point x="243" y="405"/>
      <point x="198" y="359.806" type="curve"/>
      <point x="198" y="330.625" type="line"/>
      <point x="251" y="383.29"/>
      <point x="289.981" y="407"/>
      <point x="350" y="407" type="curve" smooth="yes"/>
      <point x="380.145" y="407"/>
      <point x="438.021" y="390.977"/>
      <point x="494.034" y="373.421" type="curve" smooth="yes"/>
      <point x="547.899" y="356.539"/>
      <point x="600.598" y="342"/>
      <point x="627" y="342" type="curve" smooth="yes"/>
      <point x="695" y="342"/>
      <point x="754" y="367.806"/>
    </contour>
  </outline>
</glyph>
<glyph name="notequal" format="2">
  <advance width="1000"/>
  <unicode hex="2260"/>
  <outline>
    <contour>
      <point x="269.902" y="84.8978" type="line"/>
      <point x="284.6" y="71.6" type="line"/>
      <point x="730.627" y="517.627" type="line"/>
      <point x="716" y="532" type="line"/>
    </contour>
    <contour>
      <point x="800" y="380" type="line"/>
      <point x="800" y="400" type="line"/>
      <point x="200" y="400" type="line"/>
      <point x="200" y="380" type="line"/>
    </contour>
    <contour>
      <point x="800" y="200" type="line"/>
      <point x="800" y="220" type="line"/>
      <point x="200" y="220" type="line"/>
      <point x="200" y="200" type="line"/>
    </contour>
  </outline>
  <guideline angle="137.862" x="733" y="517.238"/>
  <guideline angle="225.064" x="716" y="532"/>
  <guideline angle="45" x="281" y="68"/>
</glyph>
<glyph name="uniFB00" format="2">
  <advance width="562"/>
  <unicode hex="FB00"/>
  <outline>
    <component base="f"/>
    <component base="f" xOffset="282"/>
    <contour>
      <point x="192" y="480" type="line"/>
      <point x="332" y="480" type="line"/>
      <point x="332" y="500" type="line"/>
      <point x="192" y="500" type="line"/>
    </contour>
  </outline>
  <guideline angle="90" x="256.001" y="0"/>
  <guideline angle="90" x="292" y="0"/>
</glyph>
<glyph name="uniFB02" format="2">
  <advance width="490"/>
  <unicode hex="FB02"/>
  <anchor x="390" y="762" name="top"/>
  <anchor x="390" y="-57" name="bottom"/>
  <anchor x="470" y="722" name="caron_TR"/>
  <outline>
    <contour>
      <point x="110" y="622.98" type="curve" smooth="yes"/>
      <point x="110" y="0" type="line"/>
      <point x="130" y="0" type="line"/>
      <point x="130" y="620.98" type="line" smooth="yes"/>
      <point x="130" y="682.944"/>
      <point x="148.197" y="711.926"/>
      <point x="201.763" y="711.926" type="curve" smooth="yes"/>
      <point x="219.525" y="711.926"/>
      <point x="241.515" y="709.179"/>
      <point x="261" y="701.98" type="curve"/>
      <point x="261" y="722" type="line"/>
      <point x="238.955" y="729.348"/>
      <point x="223.045" y="732"/>
      <point x="192.024" y="732" type="curve" smooth="yes"/>
      <point x="137.751" y="732"/>
      <point x="110" y="692.469"/>
    </contour>
    <contour>
      <point x="120" y="500" type="line"/>
      <point x="10" y="500" type="line"/>
      <point x="10" y="480" type="line"/>
      <point x="120" y="480" type="line"/>
    </contour>
    <contour>
      <point x="120.494" y="480" type="line"/>
      <point x="256" y="480" type="line"/>
      <point x="256" y="500" type="line"/>
      <point x="120.493" y="500" type="line"/>
    </contour>
    <contour>
      <point x="380" y="0" type="line"/>
      <point x="400" y="0" type="line"/>
      <point x="400" y="722" type="line"/>
      <point x="380" y="722" type="line"/>
    </contour>
  </outline>
</glyph>
<glyph name="uniFB06" format="2">
  <advance width="867"/>
  <unicode hex="FB06"/>
  <outline>
    <component base="s"/>
    <contour>
      <point x="637" y="73.7953" type="line" smooth="yes"/>
      <point x="637" y="17.7681"/>
      <point x="659.214" y="-10"/>
      <point x="704.467" y="-10" type="curve" smooth="yes"/>
      <point x="722.451" y="-10"/>
      <point x="750.119" y="-6.56984"/>
      <point x="767.011" y="0" type="curve"/>
      <point x="767.011" y="20" type="line"/>
      <point x="747.011" y="14"/>
      <point x="726.011" y="10"/>
      <point x="708.907" y="10" type="curve" smooth="yes"/>
      <point x="671.946" y="10"/>
      <point x="657.011" y="28.6811"/>
      <point x="657.011" y="70.7953" type="curve" smooth="yes"/>
      <point x="657.011" y="576" type="line"/>
      <point x="637" y="567.504" type="line"/>
    </contour>
    <contour>
      <point x="642.011" y="480" type="line"/>
      <point x="767.011" y="480" type="line"/>
      <point x="767.011" y="500" type="line"/>
      <point x="642.011" y="500" type="line"/>
    </contour>
    <contour>
      <point x="547" y="480" type="line"/>
      <point x="652" y="480" type="line"/>
      <point x="652" y="500" type="line"/>
      <point x="547" y="500" type="line"/>
    </contour>
    <contour>
      <point x="417" y="366" type="curve"/>
      <point x="433" y="366" type="line"/>
      <point x="433" y="481"/>
      <point x="352" y="499.398"/>
      <point x="352" y="591" type="curve" smooth="yes"/>
      <point x="352" y="664"/>
      <point x="410.764" y="712"/>
      <point x="500" y="712" type="curve" smooth="yes"/>
      <point x="582" y="712"/>
      <point x="637" y="655.723"/>
      <point x="637" y="571" type="curve" smooth="yes"/>
      <point x="637" y="557" type="line"/>
      <point x="657" y="557" type="line"/>
      <point x="657" y="580" type="line" smooth="yes"/>
      <point x="657" y="671"/>
      <point x="594.834" y="732"/>
      <point x="502" y="732" type="curve" smooth="yes"/>
      <point x="402" y="732"/>
      <point x="336" y="677"/>
      <point x="336" y="595" type="curve" smooth="yes"/>
      <point x="336" y="495"/>
      <point x="417" y="480"/>
    </contour>
  </outline>
</glyph>
<glyph name="aed.dlig" format="2">
  <advance width="951"/>
  <outline>
    <contour>
      <point x="890.276" y="376.78" type="line"/>
      <point x="883.966" y="382.606" type="line" smooth="yes"/>
      <point x="873.767" y="392.318"/>
      <point x="861.63" y="397.173"/>
      <point x="848.518" y="397.173" type="curve" smooth="yes"/>
      <point x="780.543" y="397.173" type="line"/>
      <point x="781.512" y="385.52"/>
      <point x="782.003" y="373.867"/>
      <point x="782.003" y="361.243" type="curve" smooth="yes"/>
      <point x="782.003" y="348.619"/>
      <point x="781.512" y="336.966"/>
      <point x="780.543" y="324.827" type="curve"/>
      <point x="826.667" y="324.827" type="line" smooth="yes"/>
      <point x="861.63" y="324.827"/>
      <point x="890.276" y="291.81"/>
      <point x="890.276" y="250.539" type="curve" smooth="yes"/>
      <point x="890.276" y="232.089" type="line"/>
      <point x="883.966" y="238.401" type="line" smooth="yes"/>
      <point x="874.242" y="248.126"/>
      <point x="861.63" y="252.482"/>
      <point x="848.518" y="252.482" type="curve" smooth="yes"/>
      <point x="770.344" y="252.482" type="line"/>
      <point x="732.959" y="88.8512"/>
      <point x="602.35" y="0"/>
      <point x="396.48" y="0" type="curve" smooth="yes"/>
      <point x="132.346" y="0" type="line"/>
      <point x="154.427" y="13.424"/>
      <point x="168.276" y="59.8349"/>
      <point x="168.276" y="120.414" type="curve" smooth="yes"/>
      <point x="168.276" y="252.482" type="line"/>
      <point x="124.092" y="252.482" type="line" smooth="yes"/>
      <point x="88.6469" y="252.482"/>
      <point x="60" y="285.984"/>
      <point x="60" y="326.77" type="curve" smooth="yes"/>
      <point x="60" y="345.22" type="line"/>
      <point x="66.7976" y="339.393" type="line" smooth="yes"/>
      <point x="76.9669" y="330.676"/>
      <point x="88.6469" y="324.827"/>
      <point x="101.757" y="324.827" type="curve" smooth="yes"/>
      <point x="168.276" y="324.827" type="line"/>
      <point x="168.276" y="397.173" type="line"/>
      <point x="124.092" y="397.173" type="line" smooth="yes"/>
      <point x="88.6469" y="397.173"/>
      <point x="60" y="430.675"/>
      <point x="60" y="471.461" type="curve" smooth="yes"/>
      <point x="60" y="489.911" type="line"/>
      <point x="66.7976" y="483.599" type="line" smooth="yes"/>
      <point x="76.5084" y="474.374"/>
      <point x="88.6469" y="469.518"/>
      <point x="101.757" y="469.518" type="curve" smooth="yes"/>
      <point x="168.276" y="469.518" type="line"/>
      <point x="168.276" y="596.245" type="line" smooth="yes"/>
      <point x="168.276" y="648.853"/>
      <point x="152.107" y="705.443"/>
      <point x="132.346" y="722" type="curve"/>
      <point x="396.48" y="722" type="line" smooth="yes"/>
      <point x="596.523" y="722"/>
      <point x="730.53" y="634.117"/>
      <point x="769.86" y="469.518" type="curve"/>
      <point x="826.667" y="469.518" type="line" smooth="yes"/>
      <point x="861.63" y="469.518"/>
      <point x="890.276" y="436.502"/>
      <point x="890.276" y="395.231" type="curve" smooth="yes"/>
    </contour>
    <contour>
      <point x="386.77" y="686.07" type="curve" smooth="yes"/>
      <point x="276.552" y="686.07" type="line"/>
      <point x="276.552" y="469.518" type="line"/>
      <point x="647.02" y="469.518" type="line"/>
      <point x="621.772" y="620.036"/>
      <point x="535.83" y="686.07"/>
    </contour>
    <contour>
      <point x="655.759" y="361.243" type="curve" smooth="yes"/>
      <point x="655.759" y="373.867"/>
      <point x="655.274" y="385.52"/>
      <point x="654.788" y="397.173" type="curve"/>
      <point x="276.552" y="397.173" type="line"/>
      <point x="276.552" y="324.827" type="line"/>
      <point x="654.788" y="324.827" type="line"/>
      <point x="655.274" y="336.966"/>
      <point x="655.759" y="348.619"/>
    </contour>
    <contour>
      <point x="276.552" y="36.4163" type="line"/>
      <point x="387.74" y="36.4163" type="line" smooth="yes"/>
      <point x="545.589" y="36.4163"/>
      <point x="623.228" y="116.045"/>
      <point x="647.02" y="252.482" type="curve"/>
      <point x="276.552" y="252.482" type="line"/>
    </contour>
  </outline>
</glyph>
<glyph name="brevecyr.case" format="2">
  <advance width="341"/>
  <anchor x="171" y="750" name="top"/>
  <outline>
    <contour>
      <point x="170" y="770" type="curve" smooth="yes"/>
      <point x="110.978" y="770"/>
      <point x="66.2039" y="806.633"/>
      <point x="52" y="867" type="curve"/>
      <point x="30" y="867" type="line"/>
      <point x="38.2577" y="800.938"/>
      <point x="99.2094" y="750"/>
      <point x="170" y="750" type="curve" smooth="yes"/>
      <point x="240.462" y="750"/>
      <point x="301.524" y="800.669"/>
      <point x="311" y="867" type="curve"/>
      <point x="289.086" y="867" type="line"/>
      <point x="275.15" y="808.402"/>
      <point x="228.824" y="770"/>
    </contour>
  </outline>
</glyph>
<glyph name="brevecyr" format="2">
  <advance width="401"/>
  <anchor x="200" y="580" name="top"/>
  <outline>
    <contour>
      <point x="82.4962" y="718" type="curve"/>
      <point x="60.4962" y="718" type="line"/>
      <point x="65.4962" y="630"/>
      <point x="114.496" y="580"/>
      <point x="199.996" y="580" type="curve" smooth="yes"/>
      <point x="285.496" y="580"/>
      <point x="335.496" y="630"/>
      <point x="340.496" y="718" type="curve"/>
      <point x="318.496" y="718" type="line"/>
      <point x="312.57" y="639.389"/>
      <point x="272.175" y="599.993"/>
      <point x="199.673" y="599.993" type="curve" smooth="yes"/>
      <point x="125.485" y="599.993"/>
      <point x="86.2404" y="641.244"/>
    </contour>
  </outline>
</glyph>
<glyph name="commaaccent.alt" format="2">
  <advance width="160"/>
  <anchor x="80" y="580" name="_top"/>
  <outline>
    <contour>
      <point x="52.7093" y="580" type="line"/>
      <point x="72.7093" y="580" type="line"/>
      <point x="107.709" y="725" type="line"/>
      <point x="94.7093" y="725" type="line"/>
      <point x="52.7093" y="586.234" type="line"/>
    </contour>
  </outline>
  <guideline angle="0" x="0" y="580"/>
  <guideline angle="90" x="80" y="0"/>
</glyph>
<glyph name="uni0306_gravecomb" format="2">
  <anchor x="-300" y="600" name="_top"/>
  <outline>
    <contour>
      <point x="-439" y="717" type="line"/>
      <point x="-431" y="651"/>
      <point x="-369" y="600"/>
      <point x="-298" y="600" type="curve" smooth="yes"/>
      <point x="-229" y="600"/>
      <point x="-168" y="651"/>
      <point x="-157" y="717" type="curve"/>
      <point x="-167" y="716.992" type="line"/>
      <point x="-177.654" y="660.535"/>
      <point x="-232.007" y="619.992"/>
      <point x="-297" y="619.992" type="curve" smooth="yes"/>
      <point x="-364.841" y="619.992"/>
      <point x="-417.733" y="658.794"/>
      <point x="-429" y="716.992" type="curve"/>
    </contour>
    <contour>
      <point x="-264" y="732" type="line"/>
      <point x="-374" y="903" type="line"/>
      <point x="-403.758" y="903" type="line"/>
      <point x="-273.758" y="732" type="line"/>
    </contour>
  </outline>
</glyph>
<glyph name="uni0414.loclBGR" format="2">
  <advance width="711"/>
  <outline>
    <contour>
      <point x="642.031" y="9.86899" type="line"/>
      <point x="373" y="722" type="line"/>
      <point x="342.511" y="722" type="line"/>
      <point x="71.4128" y="9.86597" type="line"/>
      <point x="93.4128" y="9.78417" type="line"/>
      <point x="361.943" y="717.447" type="line"/>
      <point x="354.066" y="717.447" type="line"/>
      <point x="620.031" y="9.78417" type="line"/>
    </contour>
    <contour>
      <point x="691" y="-160" type="line"/>
      <point x="691" y="20" type="line"/>
      <point x="20" y="20" type="line"/>
      <point x="20" y="-160" type="line"/>
      <point x="40" y="-160" type="line"/>
      <point x="40" y="0" type="line"/>
      <point x="671" y="0" type="line"/>
      <point x="671" y="-160" type="line"/>
    </contour>
  </outline>
  <guideline angle="90" x="358" y="0"/>
  <guideline angle="0" x="0" y="702"/>
</glyph>
<glyph name="uni041B.loclBGR" format="2">
  <advance width="612"/>
  <outline>
    <contour>
      <point x="572" y="0" type="line"/>
      <point x="315" y="722" type="line"/>
      <point x="297" y="722" type="line"/>
      <point x="40" y="0" type="line"/>
      <point x="59.5438" y="0" type="line"/>
      <point x="309.824" y="702.639" type="line"/>
      <point x="302.176" y="702.639" type="line"/>
      <point x="551.526" y="0" type="line"/>
    </contour>
  </outline>
</glyph>
<glyph name="uni0432.loclBGR" format="2">
  <advance width="568"/>
  <outline>
    <contour>
      <point x="100" y="209" type="line" smooth="yes"/>
      <point x="100" y="74"/>
      <point x="165.231" y="-10"/>
      <point x="293.153" y="-10" type="curve" smooth="yes"/>
      <point x="420.227" y="-10"/>
      <point x="488" y="74"/>
      <point x="488" y="212" type="curve" smooth="yes"/>
      <point x="488" y="317.342"/>
      <point x="418.534" y="398.063"/>
      <point x="276.205" y="398.063" type="curve"/>
      <point x="276.205" y="393.287" type="line"/>
      <point x="385.659" y="431.163"/>
      <point x="436" y="492.213"/>
      <point x="436" y="586" type="curve" smooth="yes"/>
      <point x="436" y="673.6"/>
      <point x="373" y="732"/>
      <point x="278.5" y="732" type="curve" smooth="yes"/>
      <point x="165.423" y="732"/>
      <point x="100" y="642"/>
      <point x="100" y="488" type="curve" smooth="yes"/>
    </contour>
    <contour>
      <point x="120" y="492" type="line" smooth="yes"/>
      <point x="120" y="632"/>
      <point x="179.043" y="712"/>
      <point x="275.085" y="712" type="curve" smooth="yes"/>
      <point x="359.634" y="712"/>
      <point x="416" y="662.8"/>
      <point x="416" y="589" type="curve" smooth="yes"/>
      <point x="416" y="470.753"/>
      <point x="344.008" y="418.167"/>
      <point x="110" y="365.483" type="curve"/>
      <point x="110" y="340.236" type="line"/>
      <point x="174.695" y="365.908"/>
      <point x="226.251" y="378"/>
      <point x="281.532" y="378" type="curve" smooth="yes"/>
      <point x="393.413" y="378"/>
      <point x="468" y="310.4"/>
      <point x="468" y="209" type="curve" smooth="yes"/>
      <point x="468" y="80.5495"/>
      <point x="404.247" y="10"/>
      <point x="288.172" y="10" type="curve" smooth="yes"/>
      <point x="179.739" y="10"/>
      <point x="120" y="88.8597"/>
      <point x="120" y="202" type="curve" smooth="yes"/>
    </contour>
  </outline>
</glyph>
<glyph name="uni0432.ss01" format="2">
  <advance width="669"/>
  <outline>
    <contour>
      <point x="194.823" y="374.988" type="curve"/>
      <point x="194.823" y="471.988" type="line" smooth="yes"/>
      <point x="194.823" y="597.988"/>
      <point x="249.823" y="668.988"/>
      <point x="345.823" y="668.988" type="curve" smooth="yes"/>
      <point x="418.823" y="668.988"/>
      <point x="464.823" y="626.988"/>
      <point x="464.823" y="562.988" type="curve" smooth="yes"/>
      <point x="464.823" y="522.988"/>
      <point x="446.823" y="484.988"/>
      <point x="418.823" y="462.988" type="curve"/>
      <point x="390.823" y="467.988"/>
      <point x="376.823" y="468.988"/>
      <point x="346.823" y="468.988" type="curve" smooth="yes"/>
      <point x="289.823" y="468.988"/>
      <point x="225.823" y="429.988"/>
    </contour>
    <contour>
      <point x="487.823" y="232.988" type="curve" smooth="yes"/>
      <point x="487.823" y="125.988"/>
      <point x="428.823" y="52.9877"/>
      <point x="341.823" y="52.9877" type="curve" smooth="yes"/>
      <point x="254.823" y="52.9877"/>
      <point x="194.823" y="128.988"/>
      <point x="194.823" y="233.988" type="curve" smooth="yes"/>
      <point x="194.823" y="337.988"/>
      <point x="254.823" y="403.988"/>
      <point x="344.823" y="403.988" type="curve" smooth="yes"/>
      <point x="434.823" y="403.988"/>
      <point x="487.823" y="338.988"/>
    </contour>
    <contour>
      <point x="100.823" y="289.988" type="line" smooth="yes"/>
      <point x="100.823" y="87.9877"/>
      <point x="180.823" y="-12.0123"/>
      <point x="341.823" y="-12.0123" type="curve" smooth="yes"/>
      <point x="484.823" y="-12.0123"/>
      <point x="588.823" y="100.988"/>
      <point x="588.823" y="253.988" type="curve" smooth="yes"/>
      <point x="588.823" y="340.988"/>
      <point x="554.823" y="397.988"/>
      <point x="477.823" y="437.988" type="curve"/>
      <point x="523.823" y="458.988"/>
      <point x="558.823" y="517.988"/>
      <point x="558.823" y="578.988" type="curve" smooth="yes"/>
      <point x="558.823" y="670.988"/>
      <point x="477.823" y="733.988"/>
      <point x="355.823" y="733.988" type="curve" smooth="yes"/>
      <point x="200.823" y="733.988"/>
      <point x="100.823" y="631.988"/>
      <point x="100.823" y="477.988" type="curve" smooth="yes"/>
    </contour>
  </outline>
</glyph>
